G04 EAGLE Gerber RS-274X export*
G75*
%MOMM*%
%FSLAX34Y34*%
%LPD*%
%INBottom Copper*%
%IPPOS*%
%AMOC8*
5,1,8,0,0,1.08239X$1,22.5*%
G01*
%ADD10C,0.254000*%
%ADD11P,1.732040X8X112.500000*%
%ADD12C,1.600200*%
%ADD13P,1.979475X8X202.500000*%
%ADD14P,1.979475X8X112.500000*%
%ADD15P,1.979475X8X22.500000*%
%ADD16C,1.828800*%
%ADD17C,1.879600*%
%ADD18C,0.808000*%
%ADD19C,0.304800*%
%ADD20C,0.406400*%
%ADD21C,0.858000*%
%ADD22C,0.152400*%

G36*
X845986Y2003D02*
X845986Y2003D01*
X846004Y2001D01*
X846186Y2022D01*
X846369Y2041D01*
X846386Y2046D01*
X846403Y2048D01*
X846578Y2105D01*
X846754Y2159D01*
X846769Y2167D01*
X846786Y2173D01*
X846946Y2263D01*
X847108Y2351D01*
X847121Y2362D01*
X847137Y2371D01*
X847276Y2491D01*
X847417Y2608D01*
X847428Y2622D01*
X847442Y2634D01*
X847554Y2779D01*
X847669Y2922D01*
X847677Y2938D01*
X847688Y2952D01*
X847770Y3117D01*
X847855Y3279D01*
X847860Y3296D01*
X847868Y3312D01*
X847915Y3491D01*
X847966Y3666D01*
X847968Y3684D01*
X847972Y3701D01*
X847999Y4032D01*
X847999Y635968D01*
X847997Y635986D01*
X847999Y636004D01*
X847978Y636186D01*
X847959Y636369D01*
X847954Y636386D01*
X847952Y636403D01*
X847895Y636578D01*
X847841Y636754D01*
X847833Y636769D01*
X847827Y636786D01*
X847737Y636946D01*
X847649Y637108D01*
X847638Y637121D01*
X847629Y637137D01*
X847509Y637276D01*
X847392Y637417D01*
X847378Y637428D01*
X847366Y637442D01*
X847221Y637554D01*
X847078Y637669D01*
X847062Y637677D01*
X847048Y637688D01*
X846883Y637770D01*
X846721Y637855D01*
X846704Y637860D01*
X846688Y637868D01*
X846509Y637915D01*
X846334Y637966D01*
X846316Y637968D01*
X846299Y637972D01*
X845968Y637999D01*
X4032Y637999D01*
X4014Y637997D01*
X3996Y637999D01*
X3814Y637978D01*
X3631Y637959D01*
X3614Y637954D01*
X3597Y637952D01*
X3422Y637895D01*
X3246Y637841D01*
X3231Y637833D01*
X3214Y637827D01*
X3054Y637737D01*
X2892Y637649D01*
X2879Y637638D01*
X2863Y637629D01*
X2724Y637509D01*
X2583Y637392D01*
X2572Y637378D01*
X2558Y637366D01*
X2446Y637221D01*
X2331Y637078D01*
X2323Y637062D01*
X2312Y637048D01*
X2230Y636883D01*
X2145Y636721D01*
X2140Y636704D01*
X2132Y636688D01*
X2085Y636509D01*
X2034Y636334D01*
X2032Y636316D01*
X2028Y636299D01*
X2001Y635968D01*
X2001Y4032D01*
X2003Y4014D01*
X2001Y3996D01*
X2022Y3814D01*
X2041Y3631D01*
X2046Y3614D01*
X2048Y3597D01*
X2105Y3422D01*
X2159Y3246D01*
X2167Y3231D01*
X2173Y3214D01*
X2263Y3054D01*
X2351Y2892D01*
X2362Y2879D01*
X2371Y2863D01*
X2491Y2724D01*
X2608Y2583D01*
X2622Y2572D01*
X2634Y2558D01*
X2779Y2446D01*
X2922Y2331D01*
X2938Y2323D01*
X2952Y2312D01*
X3117Y2230D01*
X3279Y2145D01*
X3296Y2140D01*
X3312Y2132D01*
X3491Y2085D01*
X3666Y2034D01*
X3684Y2032D01*
X3701Y2028D01*
X4032Y2001D01*
X845968Y2001D01*
X845986Y2003D01*
G37*
%LPC*%
G36*
X312070Y59623D02*
X312070Y59623D01*
X305523Y66170D01*
X305523Y75430D01*
X312157Y82064D01*
X312169Y82078D01*
X312182Y82089D01*
X312296Y82233D01*
X312412Y82375D01*
X312421Y82391D01*
X312432Y82405D01*
X312515Y82569D01*
X312601Y82731D01*
X312606Y82748D01*
X312614Y82764D01*
X312664Y82941D01*
X312716Y83117D01*
X312718Y83135D01*
X312722Y83152D01*
X312736Y83335D01*
X312752Y83518D01*
X312750Y83536D01*
X312752Y83553D01*
X312729Y83735D01*
X312709Y83918D01*
X312704Y83935D01*
X312701Y83953D01*
X312643Y84127D01*
X312587Y84302D01*
X312579Y84318D01*
X312573Y84334D01*
X312481Y84494D01*
X312393Y84654D01*
X312381Y84668D01*
X312372Y84683D01*
X312157Y84936D01*
X305523Y91570D01*
X305523Y100830D01*
X312070Y107377D01*
X321330Y107377D01*
X323265Y105442D01*
X323272Y105436D01*
X323277Y105429D01*
X323427Y105309D01*
X323576Y105186D01*
X323584Y105182D01*
X323591Y105177D01*
X323761Y105088D01*
X323932Y104998D01*
X323941Y104995D01*
X323948Y104991D01*
X324133Y104938D01*
X324318Y104883D01*
X324327Y104882D01*
X324335Y104880D01*
X324526Y104864D01*
X324719Y104847D01*
X324728Y104848D01*
X324737Y104847D01*
X324926Y104869D01*
X325119Y104890D01*
X325128Y104893D01*
X325136Y104894D01*
X325318Y104953D01*
X325503Y105012D01*
X325511Y105016D01*
X325519Y105019D01*
X325688Y105114D01*
X325855Y105206D01*
X325862Y105212D01*
X325870Y105217D01*
X326016Y105343D01*
X326162Y105467D01*
X326168Y105474D01*
X326175Y105480D01*
X326291Y105630D01*
X326412Y105783D01*
X326416Y105791D01*
X326421Y105798D01*
X326507Y105970D01*
X326594Y106142D01*
X326597Y106150D01*
X326601Y106158D01*
X326651Y106344D01*
X326702Y106530D01*
X326703Y106539D01*
X326705Y106547D01*
X326732Y106878D01*
X326732Y142235D01*
X326729Y142266D01*
X326731Y142298D01*
X326709Y142467D01*
X326692Y142636D01*
X326683Y142666D01*
X326679Y142697D01*
X326578Y143013D01*
X325994Y144421D01*
X325994Y147039D01*
X326287Y147747D01*
X326291Y147760D01*
X326297Y147771D01*
X326349Y147952D01*
X326404Y148132D01*
X326405Y148145D01*
X326409Y148158D01*
X326424Y148347D01*
X326442Y148533D01*
X326441Y148546D01*
X326442Y148560D01*
X326420Y148746D01*
X326400Y148933D01*
X326396Y148946D01*
X326395Y148959D01*
X326337Y149138D01*
X326281Y149318D01*
X326274Y149329D01*
X326270Y149342D01*
X326178Y149506D01*
X326087Y149671D01*
X326079Y149681D01*
X326072Y149693D01*
X325949Y149835D01*
X325828Y149979D01*
X325818Y149987D01*
X325809Y149998D01*
X325661Y150112D01*
X325513Y150230D01*
X325501Y150236D01*
X325491Y150244D01*
X325323Y150328D01*
X325155Y150414D01*
X325142Y150418D01*
X325130Y150424D01*
X324948Y150473D01*
X324768Y150524D01*
X324755Y150525D01*
X324742Y150528D01*
X324411Y150555D01*
X222452Y150555D01*
X196327Y176680D01*
X196327Y281451D01*
X196326Y281460D01*
X196327Y281469D01*
X196306Y281662D01*
X196287Y281852D01*
X196285Y281860D01*
X196284Y281869D01*
X196225Y282054D01*
X196169Y282237D01*
X196165Y282244D01*
X196162Y282253D01*
X196069Y282421D01*
X195977Y282591D01*
X195972Y282598D01*
X195967Y282605D01*
X195843Y282752D01*
X195720Y282900D01*
X195713Y282905D01*
X195707Y282912D01*
X195555Y283032D01*
X195406Y283152D01*
X195398Y283156D01*
X195391Y283162D01*
X195218Y283250D01*
X195049Y283338D01*
X195040Y283340D01*
X195032Y283344D01*
X194846Y283396D01*
X194662Y283449D01*
X194653Y283450D01*
X194644Y283452D01*
X194451Y283466D01*
X194260Y283482D01*
X194252Y283481D01*
X194243Y283482D01*
X194050Y283457D01*
X193861Y283435D01*
X193852Y283432D01*
X193843Y283431D01*
X193661Y283370D01*
X193478Y283310D01*
X193470Y283306D01*
X193462Y283303D01*
X193295Y283207D01*
X193127Y283112D01*
X193120Y283107D01*
X193113Y283102D01*
X192860Y282887D01*
X126580Y216607D01*
X126563Y216587D01*
X126542Y216569D01*
X126435Y216431D01*
X126325Y216296D01*
X126312Y216272D01*
X126296Y216251D01*
X126218Y216094D01*
X126136Y215940D01*
X126128Y215915D01*
X126116Y215891D01*
X126071Y215721D01*
X126021Y215554D01*
X126019Y215528D01*
X126012Y215502D01*
X125985Y215171D01*
X125985Y188072D01*
X115150Y177237D01*
X113028Y175116D01*
X113008Y175092D01*
X112985Y175071D01*
X112881Y174936D01*
X112773Y174804D01*
X112758Y174777D01*
X112739Y174752D01*
X112588Y174457D01*
X111291Y171325D01*
X108075Y168109D01*
X103885Y166374D01*
X103874Y166369D01*
X99326Y166369D01*
X95125Y168109D01*
X91909Y171325D01*
X90169Y175526D01*
X90169Y180074D01*
X91909Y184275D01*
X95125Y187491D01*
X97860Y188623D01*
X97868Y188628D01*
X97876Y188630D01*
X98044Y188722D01*
X98215Y188814D01*
X98222Y188819D01*
X98230Y188824D01*
X98374Y188945D01*
X98525Y189070D01*
X98531Y189077D01*
X98538Y189083D01*
X98657Y189232D01*
X98779Y189383D01*
X98783Y189391D01*
X98789Y189397D01*
X98877Y189569D01*
X98966Y189739D01*
X98969Y189748D01*
X98973Y189756D01*
X99025Y189941D01*
X99079Y190126D01*
X99080Y190134D01*
X99082Y190143D01*
X99097Y190334D01*
X99114Y190527D01*
X99113Y190536D01*
X99113Y190544D01*
X99090Y190737D01*
X99069Y190927D01*
X99066Y190935D01*
X99065Y190944D01*
X99004Y191128D01*
X98945Y191310D01*
X98941Y191318D01*
X98938Y191326D01*
X98843Y191494D01*
X98749Y191662D01*
X98743Y191668D01*
X98739Y191676D01*
X98612Y191821D01*
X98487Y191967D01*
X98480Y191973D01*
X98474Y191980D01*
X98322Y192097D01*
X98170Y192216D01*
X98162Y192220D01*
X98155Y192225D01*
X97860Y192377D01*
X95125Y193509D01*
X91909Y196725D01*
X90169Y200926D01*
X90169Y205474D01*
X91909Y209675D01*
X95125Y212891D01*
X97155Y213731D01*
X97233Y213773D01*
X97316Y213806D01*
X97410Y213868D01*
X97510Y213921D01*
X97578Y213978D01*
X97653Y214027D01*
X97733Y214106D01*
X97820Y214178D01*
X97876Y214247D01*
X97939Y214309D01*
X98003Y214403D01*
X98074Y214491D01*
X98115Y214569D01*
X98165Y214643D01*
X98209Y214747D01*
X98261Y214847D01*
X98286Y214932D01*
X98320Y215014D01*
X98342Y215125D01*
X98374Y215233D01*
X98382Y215322D01*
X98399Y215409D01*
X98399Y215522D01*
X98409Y215635D01*
X98399Y215723D01*
X98399Y215812D01*
X98376Y215922D01*
X98364Y216035D01*
X98336Y216119D01*
X98319Y216206D01*
X98275Y216310D01*
X98240Y216418D01*
X98197Y216496D01*
X98163Y216577D01*
X98099Y216671D01*
X98044Y216769D01*
X97986Y216837D01*
X97936Y216910D01*
X97856Y216990D01*
X97782Y217075D01*
X97712Y217130D01*
X97649Y217192D01*
X97554Y217254D01*
X97465Y217324D01*
X97386Y217363D01*
X97311Y217412D01*
X97181Y217466D01*
X97105Y217504D01*
X97061Y217516D01*
X97029Y217530D01*
X95343Y218389D01*
X93822Y219494D01*
X92494Y220822D01*
X91389Y222343D01*
X90536Y224017D01*
X89955Y225804D01*
X89915Y226061D01*
X101092Y226061D01*
X101110Y226062D01*
X101127Y226061D01*
X101310Y226082D01*
X101492Y226101D01*
X101509Y226106D01*
X101527Y226108D01*
X101605Y226133D01*
X101742Y226094D01*
X101760Y226092D01*
X101777Y226088D01*
X102108Y226061D01*
X113285Y226061D01*
X113245Y225804D01*
X112664Y224017D01*
X111811Y222343D01*
X110706Y220822D01*
X109378Y219494D01*
X107857Y218389D01*
X106164Y217526D01*
X106113Y217504D01*
X106029Y217478D01*
X105930Y217424D01*
X105826Y217378D01*
X105753Y217327D01*
X105675Y217284D01*
X105589Y217212D01*
X105496Y217147D01*
X105435Y217082D01*
X105367Y217025D01*
X105297Y216937D01*
X105219Y216855D01*
X105172Y216780D01*
X105116Y216710D01*
X105065Y216610D01*
X105005Y216514D01*
X104973Y216431D01*
X104932Y216352D01*
X104902Y216244D01*
X104861Y216138D01*
X104847Y216050D01*
X104823Y215965D01*
X104814Y215852D01*
X104795Y215741D01*
X104798Y215652D01*
X104792Y215564D01*
X104805Y215451D01*
X104809Y215338D01*
X104830Y215252D01*
X104840Y215164D01*
X104876Y215057D01*
X104902Y214947D01*
X104939Y214866D01*
X104967Y214782D01*
X105023Y214684D01*
X105070Y214581D01*
X105122Y214509D01*
X105166Y214432D01*
X105240Y214347D01*
X105307Y214255D01*
X105372Y214195D01*
X105431Y214128D01*
X105520Y214059D01*
X105603Y213983D01*
X105680Y213937D01*
X105750Y213883D01*
X105875Y213819D01*
X105948Y213775D01*
X105991Y213759D01*
X106045Y213731D01*
X108206Y212836D01*
X108227Y212830D01*
X108247Y212820D01*
X108420Y212772D01*
X108591Y212720D01*
X108613Y212718D01*
X108635Y212712D01*
X108814Y212699D01*
X108992Y212682D01*
X109014Y212684D01*
X109036Y212682D01*
X109215Y212705D01*
X109392Y212723D01*
X109414Y212730D01*
X109436Y212733D01*
X109606Y212790D01*
X109777Y212843D01*
X109796Y212854D01*
X109817Y212861D01*
X109973Y212951D01*
X110130Y213037D01*
X110147Y213051D01*
X110166Y213062D01*
X110419Y213277D01*
X178480Y281337D01*
X178488Y281347D01*
X178498Y281356D01*
X178616Y281503D01*
X178735Y281649D01*
X178741Y281660D01*
X178749Y281671D01*
X178836Y281840D01*
X178923Y282004D01*
X178927Y282017D01*
X178933Y282029D01*
X178985Y282211D01*
X179038Y282390D01*
X179039Y282403D01*
X179043Y282416D01*
X179058Y282603D01*
X179075Y282791D01*
X179073Y282805D01*
X179074Y282818D01*
X179052Y283003D01*
X179031Y283191D01*
X179027Y283204D01*
X179025Y283217D01*
X178967Y283395D01*
X178910Y283575D01*
X178903Y283587D01*
X178899Y283600D01*
X178806Y283763D01*
X178715Y283928D01*
X178706Y283938D01*
X178700Y283949D01*
X178576Y284091D01*
X178454Y284235D01*
X178444Y284243D01*
X178435Y284253D01*
X178286Y284368D01*
X178138Y284484D01*
X178126Y284490D01*
X178116Y284498D01*
X177821Y284650D01*
X177191Y284911D01*
X176568Y285534D01*
X176547Y285551D01*
X176529Y285571D01*
X176391Y285678D01*
X176256Y285789D01*
X176232Y285802D01*
X176211Y285818D01*
X176054Y285896D01*
X175900Y285978D01*
X175875Y285985D01*
X175851Y285997D01*
X175681Y286043D01*
X175514Y286093D01*
X175488Y286095D01*
X175462Y286102D01*
X175131Y286129D01*
X153339Y286129D01*
X153313Y286126D01*
X153286Y286128D01*
X153112Y286106D01*
X152939Y286089D01*
X152913Y286081D01*
X152887Y286078D01*
X152721Y286022D01*
X152554Y285971D01*
X152530Y285958D01*
X152505Y285950D01*
X152353Y285862D01*
X152200Y285779D01*
X152179Y285762D01*
X152156Y285749D01*
X151903Y285534D01*
X117066Y250697D01*
X113962Y250697D01*
X113939Y250695D01*
X113917Y250697D01*
X113740Y250675D01*
X113561Y250657D01*
X113540Y250651D01*
X113518Y250648D01*
X113348Y250592D01*
X113176Y250539D01*
X113157Y250529D01*
X113135Y250522D01*
X112979Y250433D01*
X112822Y250347D01*
X112805Y250333D01*
X112786Y250322D01*
X112650Y250204D01*
X112513Y250090D01*
X112499Y250072D01*
X112482Y250058D01*
X112373Y249916D01*
X112261Y249776D01*
X112250Y249756D01*
X112237Y249738D01*
X112085Y249443D01*
X111291Y247525D01*
X108075Y244309D01*
X106045Y243469D01*
X105967Y243427D01*
X105884Y243394D01*
X105790Y243332D01*
X105690Y243279D01*
X105622Y243222D01*
X105547Y243173D01*
X105467Y243094D01*
X105380Y243022D01*
X105324Y242953D01*
X105261Y242891D01*
X105197Y242797D01*
X105126Y242709D01*
X105085Y242631D01*
X105035Y242557D01*
X104991Y242453D01*
X104939Y242353D01*
X104914Y242268D01*
X104880Y242186D01*
X104858Y242075D01*
X104826Y241967D01*
X104818Y241878D01*
X104801Y241791D01*
X104801Y241678D01*
X104791Y241565D01*
X104801Y241477D01*
X104801Y241388D01*
X104824Y241278D01*
X104836Y241165D01*
X104864Y241081D01*
X104881Y240994D01*
X104925Y240890D01*
X104960Y240782D01*
X105003Y240704D01*
X105037Y240623D01*
X105101Y240529D01*
X105156Y240431D01*
X105214Y240363D01*
X105264Y240290D01*
X105344Y240210D01*
X105418Y240125D01*
X105488Y240070D01*
X105551Y240008D01*
X105646Y239946D01*
X105735Y239876D01*
X105814Y239837D01*
X105889Y239788D01*
X106019Y239734D01*
X106095Y239696D01*
X106139Y239684D01*
X106171Y239670D01*
X107857Y238811D01*
X109378Y237706D01*
X110706Y236378D01*
X111811Y234857D01*
X112664Y233183D01*
X113245Y231396D01*
X113285Y231139D01*
X102108Y231139D01*
X102090Y231137D01*
X102073Y231139D01*
X101890Y231118D01*
X101708Y231099D01*
X101691Y231094D01*
X101673Y231092D01*
X101595Y231067D01*
X101458Y231106D01*
X101440Y231108D01*
X101423Y231112D01*
X101092Y231139D01*
X89915Y231139D01*
X89955Y231396D01*
X90536Y233183D01*
X91389Y234857D01*
X92494Y236378D01*
X93822Y237706D01*
X95343Y238811D01*
X97036Y239674D01*
X97087Y239696D01*
X97171Y239722D01*
X97270Y239776D01*
X97374Y239822D01*
X97447Y239873D01*
X97525Y239916D01*
X97611Y239988D01*
X97704Y240053D01*
X97765Y240118D01*
X97833Y240175D01*
X97903Y240263D01*
X97981Y240345D01*
X98028Y240420D01*
X98084Y240490D01*
X98135Y240590D01*
X98195Y240686D01*
X98227Y240769D01*
X98268Y240848D01*
X98298Y240956D01*
X98339Y241062D01*
X98353Y241150D01*
X98377Y241235D01*
X98386Y241348D01*
X98405Y241459D01*
X98402Y241548D01*
X98408Y241636D01*
X98395Y241749D01*
X98391Y241862D01*
X98370Y241948D01*
X98360Y242036D01*
X98324Y242143D01*
X98298Y242253D01*
X98261Y242334D01*
X98233Y242418D01*
X98177Y242516D01*
X98130Y242619D01*
X98078Y242691D01*
X98034Y242768D01*
X97959Y242853D01*
X97893Y242945D01*
X97828Y243005D01*
X97769Y243072D01*
X97680Y243141D01*
X97597Y243217D01*
X97520Y243263D01*
X97450Y243317D01*
X97325Y243381D01*
X97252Y243425D01*
X97209Y243441D01*
X97155Y243469D01*
X95125Y244309D01*
X91909Y247525D01*
X90169Y251726D01*
X90169Y256274D01*
X91909Y260475D01*
X95125Y263691D01*
X96331Y264190D01*
X97860Y264823D01*
X97868Y264828D01*
X97876Y264830D01*
X98044Y264922D01*
X98215Y265014D01*
X98222Y265019D01*
X98230Y265024D01*
X98376Y265147D01*
X98525Y265270D01*
X98531Y265277D01*
X98538Y265283D01*
X98657Y265433D01*
X98779Y265583D01*
X98783Y265591D01*
X98789Y265597D01*
X98877Y265769D01*
X98966Y265939D01*
X98969Y265948D01*
X98973Y265956D01*
X99025Y266141D01*
X99079Y266326D01*
X99080Y266334D01*
X99082Y266343D01*
X99097Y266534D01*
X99114Y266727D01*
X99113Y266736D01*
X99113Y266744D01*
X99090Y266937D01*
X99069Y267127D01*
X99066Y267135D01*
X99065Y267144D01*
X99004Y267329D01*
X98945Y267510D01*
X98941Y267518D01*
X98938Y267526D01*
X98843Y267694D01*
X98749Y267862D01*
X98743Y267868D01*
X98739Y267876D01*
X98612Y268021D01*
X98487Y268167D01*
X98480Y268173D01*
X98474Y268180D01*
X98322Y268297D01*
X98170Y268416D01*
X98162Y268420D01*
X98155Y268425D01*
X97860Y268577D01*
X95125Y269709D01*
X91909Y272925D01*
X90169Y277126D01*
X90169Y281674D01*
X91909Y285875D01*
X95125Y289091D01*
X99326Y290831D01*
X103874Y290831D01*
X108075Y289091D01*
X111291Y285875D01*
X112085Y283957D01*
X112096Y283937D01*
X112103Y283916D01*
X112191Y283759D01*
X112275Y283602D01*
X112289Y283585D01*
X112300Y283565D01*
X112418Y283429D01*
X112532Y283291D01*
X112549Y283277D01*
X112564Y283260D01*
X112705Y283151D01*
X112844Y283038D01*
X112864Y283027D01*
X112882Y283014D01*
X113043Y282934D01*
X113201Y282851D01*
X113222Y282844D01*
X113242Y282834D01*
X113416Y282788D01*
X113587Y282738D01*
X113609Y282736D01*
X113631Y282730D01*
X113962Y282703D01*
X116941Y282703D01*
X116967Y282705D01*
X116994Y282703D01*
X117168Y282725D01*
X117341Y282743D01*
X117367Y282750D01*
X117393Y282754D01*
X117559Y282809D01*
X117726Y282861D01*
X117750Y282874D01*
X117775Y282882D01*
X117927Y282969D01*
X118080Y283053D01*
X118101Y283070D01*
X118124Y283083D01*
X118377Y283298D01*
X174150Y339070D01*
X174169Y339094D01*
X174193Y339115D01*
X174297Y339250D01*
X174405Y339382D01*
X174419Y339409D01*
X174438Y339434D01*
X174590Y339729D01*
X175269Y341369D01*
X177191Y343291D01*
X179701Y344331D01*
X182419Y344331D01*
X184929Y343291D01*
X186851Y341369D01*
X187891Y338859D01*
X187891Y336141D01*
X186851Y333631D01*
X184929Y331709D01*
X182419Y330669D01*
X179701Y330669D01*
X177695Y331500D01*
X177673Y331507D01*
X177653Y331517D01*
X177481Y331565D01*
X177309Y331617D01*
X177287Y331619D01*
X177265Y331625D01*
X177086Y331638D01*
X176908Y331655D01*
X176886Y331653D01*
X176864Y331654D01*
X176686Y331632D01*
X176508Y331613D01*
X176487Y331607D01*
X176464Y331604D01*
X176295Y331547D01*
X176124Y331494D01*
X176104Y331483D01*
X176083Y331476D01*
X175928Y331386D01*
X175770Y331300D01*
X175753Y331286D01*
X175734Y331275D01*
X175481Y331060D01*
X123048Y278627D01*
X120518Y276097D01*
X113962Y276097D01*
X113939Y276095D01*
X113917Y276097D01*
X113740Y276075D01*
X113561Y276057D01*
X113540Y276051D01*
X113518Y276048D01*
X113348Y275992D01*
X113176Y275939D01*
X113157Y275929D01*
X113135Y275922D01*
X112979Y275833D01*
X112822Y275747D01*
X112805Y275733D01*
X112786Y275722D01*
X112650Y275604D01*
X112513Y275490D01*
X112499Y275472D01*
X112482Y275458D01*
X112373Y275315D01*
X112261Y275176D01*
X112250Y275156D01*
X112237Y275138D01*
X112085Y274843D01*
X111291Y272925D01*
X108075Y269709D01*
X105340Y268577D01*
X105332Y268572D01*
X105324Y268570D01*
X105155Y268477D01*
X104985Y268386D01*
X104978Y268381D01*
X104970Y268376D01*
X104823Y268252D01*
X104675Y268130D01*
X104669Y268123D01*
X104662Y268117D01*
X104542Y267966D01*
X104421Y267817D01*
X104417Y267810D01*
X104411Y267802D01*
X104324Y267632D01*
X104234Y267461D01*
X104231Y267452D01*
X104227Y267444D01*
X104176Y267262D01*
X104121Y267074D01*
X104120Y267065D01*
X104118Y267057D01*
X104103Y266866D01*
X104086Y266673D01*
X104087Y266664D01*
X104087Y266656D01*
X104110Y266465D01*
X104131Y266273D01*
X104134Y266265D01*
X104135Y266256D01*
X104195Y266075D01*
X104255Y265890D01*
X104259Y265882D01*
X104262Y265874D01*
X104357Y265707D01*
X104451Y265538D01*
X104457Y265532D01*
X104461Y265524D01*
X104589Y265377D01*
X104713Y265233D01*
X104720Y265227D01*
X104726Y265220D01*
X104879Y265103D01*
X105030Y264984D01*
X105038Y264980D01*
X105045Y264975D01*
X105340Y264823D01*
X108075Y263691D01*
X111291Y260475D01*
X111947Y258891D01*
X111953Y258879D01*
X111957Y258866D01*
X112048Y258701D01*
X112137Y258536D01*
X112145Y258526D01*
X112152Y258514D01*
X112274Y258371D01*
X112393Y258226D01*
X112404Y258217D01*
X112412Y258207D01*
X112560Y258091D01*
X112706Y257972D01*
X112718Y257966D01*
X112728Y257958D01*
X112896Y257872D01*
X113062Y257785D01*
X113075Y257781D01*
X113087Y257775D01*
X113268Y257725D01*
X113449Y257672D01*
X113462Y257671D01*
X113475Y257667D01*
X113664Y257653D01*
X113850Y257637D01*
X113863Y257639D01*
X113877Y257638D01*
X114065Y257662D01*
X114250Y257682D01*
X114263Y257687D01*
X114276Y257688D01*
X114454Y257748D01*
X114633Y257806D01*
X114645Y257812D01*
X114658Y257816D01*
X114821Y257910D01*
X114985Y258002D01*
X114995Y258011D01*
X115007Y258017D01*
X115260Y258232D01*
X149762Y292734D01*
X173151Y292734D01*
X173174Y292737D01*
X173196Y292735D01*
X173373Y292757D01*
X173552Y292774D01*
X173573Y292781D01*
X173595Y292784D01*
X173765Y292840D01*
X173937Y292893D01*
X173956Y292903D01*
X173978Y292910D01*
X174133Y292999D01*
X174291Y293084D01*
X174308Y293099D01*
X174327Y293110D01*
X174463Y293227D01*
X174600Y293342D01*
X174614Y293359D01*
X174631Y293374D01*
X174740Y293516D01*
X174852Y293656D01*
X174863Y293676D01*
X174876Y293693D01*
X175028Y293988D01*
X175269Y294571D01*
X177191Y296493D01*
X179701Y297532D01*
X182419Y297532D01*
X184929Y296493D01*
X186851Y294571D01*
X187112Y293941D01*
X187118Y293929D01*
X187122Y293916D01*
X187213Y293752D01*
X187302Y293586D01*
X187310Y293576D01*
X187317Y293564D01*
X187439Y293421D01*
X187558Y293276D01*
X187569Y293267D01*
X187577Y293257D01*
X187725Y293141D01*
X187871Y293022D01*
X187883Y293016D01*
X187893Y293008D01*
X188061Y292922D01*
X188227Y292835D01*
X188240Y292831D01*
X188252Y292825D01*
X188434Y292775D01*
X188614Y292722D01*
X188627Y292721D01*
X188640Y292717D01*
X188829Y292703D01*
X189015Y292687D01*
X189028Y292689D01*
X189042Y292688D01*
X189229Y292711D01*
X189415Y292732D01*
X189428Y292737D01*
X189441Y292738D01*
X189619Y292798D01*
X189798Y292856D01*
X189810Y292862D01*
X189823Y292866D01*
X189986Y292961D01*
X190150Y293052D01*
X190160Y293061D01*
X190172Y293067D01*
X190425Y293282D01*
X196470Y299328D01*
X196487Y299348D01*
X196508Y299366D01*
X196615Y299504D01*
X196725Y299639D01*
X196738Y299663D01*
X196754Y299684D01*
X196832Y299841D01*
X196914Y299995D01*
X196922Y300020D01*
X196934Y300044D01*
X196979Y300214D01*
X197029Y300381D01*
X197031Y300407D01*
X197038Y300433D01*
X197065Y300764D01*
X197065Y327451D01*
X199297Y329683D01*
X273877Y404263D01*
X273883Y404270D01*
X273890Y404275D01*
X274010Y404425D01*
X274132Y404574D01*
X274136Y404582D01*
X274142Y404589D01*
X274231Y404760D01*
X274321Y404930D01*
X274323Y404938D01*
X274328Y404946D01*
X274381Y405131D01*
X274436Y405316D01*
X274436Y405325D01*
X274439Y405333D01*
X274455Y405525D01*
X274472Y405717D01*
X274471Y405726D01*
X274472Y405735D01*
X274450Y405924D01*
X274429Y406117D01*
X274426Y406126D01*
X274425Y406134D01*
X274366Y406316D01*
X274307Y406501D01*
X274303Y406509D01*
X274300Y406517D01*
X274205Y406686D01*
X274112Y406853D01*
X274107Y406860D01*
X274102Y406868D01*
X273976Y407014D01*
X273852Y407160D01*
X273845Y407166D01*
X273839Y407173D01*
X273688Y407290D01*
X273536Y407410D01*
X273528Y407414D01*
X273521Y407419D01*
X273349Y407505D01*
X273177Y407592D01*
X273168Y407595D01*
X273160Y407599D01*
X272974Y407649D01*
X272789Y407700D01*
X272780Y407701D01*
X272772Y407703D01*
X272441Y407730D01*
X251155Y407730D01*
X251146Y407729D01*
X251137Y407730D01*
X250947Y407709D01*
X250755Y407690D01*
X250746Y407688D01*
X250737Y407687D01*
X250553Y407628D01*
X250370Y407572D01*
X250362Y407568D01*
X250353Y407565D01*
X250184Y407472D01*
X250016Y407380D01*
X250009Y407375D01*
X250001Y407370D01*
X249853Y407245D01*
X249706Y407123D01*
X249701Y407116D01*
X249694Y407110D01*
X249574Y406959D01*
X249454Y406809D01*
X249450Y406801D01*
X249444Y406794D01*
X249357Y406621D01*
X249268Y406452D01*
X249266Y406443D01*
X249262Y406435D01*
X249209Y406247D01*
X249157Y406065D01*
X249156Y406056D01*
X249154Y406047D01*
X249140Y405854D01*
X249124Y405663D01*
X249125Y405655D01*
X249125Y405646D01*
X249149Y405453D01*
X249171Y405264D01*
X249174Y405255D01*
X249175Y405246D01*
X249236Y405065D01*
X249296Y404881D01*
X249300Y404873D01*
X249303Y404865D01*
X249399Y404699D01*
X249494Y404530D01*
X249500Y404523D01*
X249504Y404516D01*
X249719Y404263D01*
X249889Y404093D01*
X250891Y401674D01*
X250891Y399056D01*
X249889Y396637D01*
X248038Y394786D01*
X245619Y393784D01*
X243001Y393784D01*
X240582Y394786D01*
X238731Y396637D01*
X237729Y399056D01*
X237729Y401254D01*
X237727Y401272D01*
X237729Y401290D01*
X237708Y401472D01*
X237689Y401655D01*
X237684Y401672D01*
X237682Y401689D01*
X237625Y401864D01*
X237571Y402040D01*
X237563Y402055D01*
X237557Y402072D01*
X237467Y402232D01*
X237379Y402394D01*
X237368Y402407D01*
X237359Y402423D01*
X237239Y402562D01*
X237122Y402703D01*
X237108Y402714D01*
X237096Y402728D01*
X236951Y402840D01*
X236808Y402955D01*
X236792Y402963D01*
X236778Y402974D01*
X236613Y403056D01*
X236451Y403141D01*
X236434Y403146D01*
X236418Y403154D01*
X236239Y403201D01*
X236064Y403252D01*
X236046Y403254D01*
X236029Y403258D01*
X235698Y403285D01*
X196779Y403285D01*
X196752Y403283D01*
X196726Y403285D01*
X196552Y403263D01*
X196378Y403245D01*
X196353Y403238D01*
X196326Y403234D01*
X196161Y403179D01*
X195993Y403127D01*
X195970Y403114D01*
X195945Y403106D01*
X195793Y403019D01*
X195639Y402935D01*
X195619Y402918D01*
X195596Y402905D01*
X195343Y402690D01*
X137516Y344863D01*
X137504Y344849D01*
X137491Y344838D01*
X137377Y344694D01*
X137261Y344552D01*
X137252Y344536D01*
X137241Y344522D01*
X137158Y344358D01*
X137072Y344196D01*
X137067Y344179D01*
X137059Y344163D01*
X137009Y343986D01*
X136957Y343810D01*
X136956Y343792D01*
X136951Y343775D01*
X136937Y343592D01*
X136921Y343409D01*
X136923Y343391D01*
X136921Y343374D01*
X136944Y343192D01*
X136964Y343009D01*
X136970Y342992D01*
X136972Y342974D01*
X137030Y342801D01*
X137086Y342625D01*
X137094Y342609D01*
X137100Y342592D01*
X137192Y342433D01*
X137280Y342273D01*
X137292Y342259D01*
X137301Y342244D01*
X137377Y342154D01*
X137377Y332870D01*
X130830Y326323D01*
X121570Y326323D01*
X114936Y332957D01*
X114923Y332969D01*
X114911Y332982D01*
X114767Y333096D01*
X114625Y333212D01*
X114609Y333221D01*
X114595Y333232D01*
X114431Y333315D01*
X114269Y333401D01*
X114252Y333406D01*
X114236Y333414D01*
X114059Y333464D01*
X113883Y333516D01*
X113865Y333518D01*
X113848Y333522D01*
X113665Y333536D01*
X113482Y333552D01*
X113464Y333550D01*
X113447Y333552D01*
X113265Y333529D01*
X113082Y333509D01*
X113065Y333503D01*
X113047Y333501D01*
X112874Y333443D01*
X112698Y333387D01*
X112682Y333379D01*
X112666Y333373D01*
X112506Y333281D01*
X112346Y333193D01*
X112332Y333181D01*
X112317Y333172D01*
X112064Y332957D01*
X105430Y326323D01*
X96170Y326323D01*
X89623Y332870D01*
X89623Y342130D01*
X96257Y348764D01*
X96269Y348777D01*
X96282Y348789D01*
X96396Y348933D01*
X96512Y349075D01*
X96521Y349091D01*
X96532Y349105D01*
X96615Y349269D01*
X96701Y349431D01*
X96706Y349448D01*
X96714Y349464D01*
X96764Y349641D01*
X96816Y349817D01*
X96818Y349835D01*
X96822Y349852D01*
X96836Y350035D01*
X96852Y350218D01*
X96850Y350236D01*
X96852Y350253D01*
X96829Y350435D01*
X96809Y350618D01*
X96803Y350635D01*
X96801Y350653D01*
X96743Y350826D01*
X96687Y351002D01*
X96679Y351018D01*
X96673Y351034D01*
X96581Y351194D01*
X96493Y351354D01*
X96481Y351368D01*
X96472Y351383D01*
X96257Y351636D01*
X89623Y358270D01*
X89623Y367530D01*
X96257Y374164D01*
X96269Y374177D01*
X96282Y374189D01*
X96396Y374333D01*
X96512Y374475D01*
X96521Y374491D01*
X96532Y374505D01*
X96615Y374669D01*
X96701Y374831D01*
X96706Y374848D01*
X96714Y374864D01*
X96764Y375041D01*
X96816Y375217D01*
X96818Y375235D01*
X96822Y375252D01*
X96836Y375435D01*
X96852Y375618D01*
X96850Y375636D01*
X96852Y375653D01*
X96829Y375835D01*
X96809Y376018D01*
X96803Y376035D01*
X96801Y376053D01*
X96743Y376226D01*
X96687Y376402D01*
X96679Y376418D01*
X96673Y376434D01*
X96581Y376594D01*
X96493Y376754D01*
X96481Y376768D01*
X96472Y376783D01*
X96257Y377036D01*
X89623Y383670D01*
X89623Y392930D01*
X96257Y399564D01*
X96269Y399577D01*
X96282Y399589D01*
X96396Y399733D01*
X96512Y399875D01*
X96521Y399891D01*
X96532Y399905D01*
X96615Y400069D01*
X96701Y400231D01*
X96706Y400248D01*
X96714Y400264D01*
X96764Y400441D01*
X96816Y400617D01*
X96818Y400635D01*
X96822Y400652D01*
X96836Y400835D01*
X96852Y401018D01*
X96850Y401036D01*
X96852Y401053D01*
X96829Y401235D01*
X96809Y401418D01*
X96803Y401435D01*
X96801Y401453D01*
X96743Y401626D01*
X96687Y401802D01*
X96679Y401818D01*
X96673Y401834D01*
X96581Y401994D01*
X96493Y402154D01*
X96481Y402168D01*
X96472Y402183D01*
X96257Y402436D01*
X89623Y409070D01*
X89623Y418330D01*
X96257Y424964D01*
X96269Y424977D01*
X96282Y424989D01*
X96396Y425133D01*
X96512Y425275D01*
X96521Y425291D01*
X96532Y425305D01*
X96615Y425469D01*
X96701Y425631D01*
X96706Y425648D01*
X96714Y425664D01*
X96764Y425841D01*
X96816Y426017D01*
X96818Y426035D01*
X96822Y426052D01*
X96836Y426235D01*
X96852Y426418D01*
X96850Y426436D01*
X96852Y426453D01*
X96829Y426635D01*
X96809Y426818D01*
X96803Y426835D01*
X96801Y426853D01*
X96743Y427026D01*
X96687Y427202D01*
X96679Y427218D01*
X96673Y427234D01*
X96581Y427394D01*
X96493Y427554D01*
X96481Y427568D01*
X96472Y427583D01*
X96257Y427836D01*
X89623Y434470D01*
X89623Y443730D01*
X96257Y450364D01*
X96269Y450377D01*
X96282Y450389D01*
X96396Y450533D01*
X96512Y450675D01*
X96521Y450691D01*
X96532Y450705D01*
X96615Y450869D01*
X96701Y451031D01*
X96706Y451048D01*
X96714Y451064D01*
X96764Y451241D01*
X96816Y451417D01*
X96818Y451435D01*
X96822Y451452D01*
X96836Y451635D01*
X96852Y451818D01*
X96850Y451836D01*
X96852Y451853D01*
X96829Y452035D01*
X96809Y452218D01*
X96803Y452235D01*
X96801Y452253D01*
X96743Y452426D01*
X96687Y452602D01*
X96679Y452618D01*
X96673Y452634D01*
X96581Y452794D01*
X96493Y452954D01*
X96481Y452968D01*
X96472Y452983D01*
X96257Y453236D01*
X89623Y459870D01*
X89623Y469130D01*
X96257Y475764D01*
X96269Y475777D01*
X96282Y475789D01*
X96396Y475933D01*
X96512Y476075D01*
X96521Y476091D01*
X96532Y476105D01*
X96615Y476269D01*
X96701Y476431D01*
X96706Y476448D01*
X96714Y476464D01*
X96764Y476641D01*
X96816Y476817D01*
X96818Y476835D01*
X96822Y476852D01*
X96836Y477035D01*
X96852Y477218D01*
X96850Y477236D01*
X96852Y477253D01*
X96829Y477435D01*
X96809Y477618D01*
X96803Y477635D01*
X96801Y477653D01*
X96743Y477826D01*
X96687Y478002D01*
X96679Y478018D01*
X96673Y478034D01*
X96581Y478194D01*
X96493Y478354D01*
X96481Y478368D01*
X96472Y478383D01*
X96257Y478636D01*
X89623Y485270D01*
X89623Y494530D01*
X96257Y501164D01*
X96269Y501177D01*
X96282Y501189D01*
X96396Y501333D01*
X96512Y501475D01*
X96521Y501491D01*
X96532Y501505D01*
X96615Y501669D01*
X96701Y501831D01*
X96706Y501848D01*
X96714Y501864D01*
X96764Y502041D01*
X96816Y502217D01*
X96818Y502235D01*
X96822Y502252D01*
X96836Y502434D01*
X96852Y502618D01*
X96850Y502636D01*
X96852Y502653D01*
X96829Y502835D01*
X96809Y503018D01*
X96803Y503035D01*
X96801Y503053D01*
X96743Y503226D01*
X96687Y503402D01*
X96679Y503418D01*
X96673Y503434D01*
X96581Y503594D01*
X96493Y503754D01*
X96481Y503768D01*
X96472Y503783D01*
X96257Y504036D01*
X89623Y510670D01*
X89623Y519930D01*
X96170Y526477D01*
X105430Y526477D01*
X112064Y519843D01*
X112078Y519831D01*
X112089Y519818D01*
X112233Y519704D01*
X112375Y519588D01*
X112391Y519579D01*
X112405Y519568D01*
X112569Y519485D01*
X112731Y519399D01*
X112748Y519394D01*
X112764Y519386D01*
X112941Y519336D01*
X113117Y519284D01*
X113135Y519282D01*
X113152Y519278D01*
X113335Y519264D01*
X113518Y519248D01*
X113536Y519250D01*
X113553Y519248D01*
X113735Y519271D01*
X113918Y519291D01*
X113935Y519296D01*
X113953Y519299D01*
X114127Y519357D01*
X114302Y519413D01*
X114318Y519421D01*
X114334Y519427D01*
X114494Y519519D01*
X114654Y519607D01*
X114668Y519619D01*
X114683Y519628D01*
X114936Y519843D01*
X121570Y526477D01*
X130830Y526477D01*
X137398Y519908D01*
X137417Y519725D01*
X137422Y519708D01*
X137424Y519691D01*
X137481Y519516D01*
X137535Y519340D01*
X137543Y519325D01*
X137549Y519308D01*
X137639Y519148D01*
X137727Y518986D01*
X137738Y518973D01*
X137747Y518957D01*
X137867Y518818D01*
X137984Y518677D01*
X137998Y518666D01*
X138010Y518652D01*
X138155Y518540D01*
X138298Y518425D01*
X138314Y518417D01*
X138328Y518406D01*
X138493Y518324D01*
X138655Y518239D01*
X138672Y518234D01*
X138688Y518226D01*
X138867Y518179D01*
X139042Y518128D01*
X139060Y518126D01*
X139077Y518122D01*
X139408Y518095D01*
X189208Y518095D01*
X189231Y518097D01*
X189253Y518095D01*
X189431Y518117D01*
X189609Y518135D01*
X189630Y518141D01*
X189652Y518144D01*
X189823Y518200D01*
X189994Y518253D01*
X190013Y518263D01*
X190035Y518270D01*
X190191Y518359D01*
X190348Y518445D01*
X190365Y518459D01*
X190384Y518470D01*
X190520Y518588D01*
X190657Y518702D01*
X190671Y518720D01*
X190688Y518734D01*
X190797Y518877D01*
X190910Y519016D01*
X190920Y519036D01*
X190933Y519053D01*
X191085Y519349D01*
X191741Y520933D01*
X193592Y522784D01*
X196011Y523786D01*
X198629Y523786D01*
X201048Y522784D01*
X202899Y520933D01*
X203901Y518514D01*
X203901Y515896D01*
X202777Y513183D01*
X202720Y513076D01*
X202715Y513058D01*
X202706Y513041D01*
X202657Y512865D01*
X202605Y512690D01*
X202603Y512672D01*
X202598Y512654D01*
X202585Y512471D01*
X202568Y512289D01*
X202570Y512271D01*
X202569Y512252D01*
X202592Y512070D01*
X202611Y511889D01*
X202617Y511871D01*
X202619Y511853D01*
X202678Y511679D01*
X202733Y511505D01*
X202742Y511489D01*
X202748Y511471D01*
X202839Y511312D01*
X202927Y511152D01*
X202939Y511138D01*
X202949Y511122D01*
X203163Y510869D01*
X229633Y484400D01*
X229653Y484383D01*
X229671Y484362D01*
X229809Y484255D01*
X229944Y484145D01*
X229968Y484132D01*
X229989Y484116D01*
X230146Y484038D01*
X230300Y483956D01*
X230325Y483948D01*
X230349Y483936D01*
X230519Y483891D01*
X230686Y483841D01*
X230712Y483839D01*
X230738Y483832D01*
X231069Y483805D01*
X257991Y483805D01*
X258005Y483806D01*
X258018Y483805D01*
X258204Y483826D01*
X258392Y483845D01*
X258405Y483849D01*
X258418Y483850D01*
X258597Y483908D01*
X258777Y483963D01*
X258789Y483969D01*
X258801Y483973D01*
X258966Y484065D01*
X259131Y484155D01*
X259141Y484163D01*
X259153Y484170D01*
X259295Y484292D01*
X259440Y484412D01*
X259448Y484423D01*
X259459Y484431D01*
X259574Y484579D01*
X259692Y484726D01*
X259699Y484738D01*
X259707Y484748D01*
X259791Y484917D01*
X259878Y485083D01*
X259882Y485096D01*
X259888Y485108D01*
X259937Y485289D01*
X259989Y485470D01*
X259990Y485484D01*
X259994Y485497D01*
X260007Y485685D01*
X260022Y485872D01*
X260021Y485885D01*
X260022Y485898D01*
X259997Y486086D01*
X259975Y486271D01*
X259971Y486284D01*
X259969Y486297D01*
X259868Y486613D01*
X259069Y488541D01*
X259069Y491259D01*
X260109Y493769D01*
X261154Y494814D01*
X261165Y494827D01*
X261178Y494839D01*
X261293Y494984D01*
X261409Y495125D01*
X261417Y495141D01*
X261428Y495155D01*
X261512Y495319D01*
X261597Y495481D01*
X261602Y495498D01*
X261610Y495514D01*
X261660Y495691D01*
X261712Y495867D01*
X261714Y495884D01*
X261718Y495902D01*
X261732Y496085D01*
X261748Y496268D01*
X261747Y496285D01*
X261748Y496303D01*
X261725Y496485D01*
X261705Y496668D01*
X261700Y496685D01*
X261697Y496703D01*
X261639Y496876D01*
X261584Y497052D01*
X261575Y497067D01*
X261569Y497084D01*
X261478Y497243D01*
X261389Y497404D01*
X261377Y497418D01*
X261368Y497433D01*
X261154Y497686D01*
X260986Y497853D01*
X260973Y497865D01*
X260961Y497878D01*
X260817Y497992D01*
X260675Y498109D01*
X260659Y498117D01*
X260645Y498128D01*
X260481Y498211D01*
X260319Y498297D01*
X260302Y498302D01*
X260286Y498310D01*
X260109Y498360D01*
X259933Y498412D01*
X259916Y498414D01*
X259898Y498418D01*
X259715Y498432D01*
X259532Y498448D01*
X259515Y498447D01*
X259497Y498448D01*
X259315Y498425D01*
X259132Y498405D01*
X259115Y498400D01*
X259097Y498397D01*
X258923Y498339D01*
X258748Y498284D01*
X258733Y498275D01*
X258716Y498269D01*
X258557Y498178D01*
X258396Y498089D01*
X258382Y498077D01*
X258367Y498068D01*
X258114Y497854D01*
X257069Y496809D01*
X254559Y495769D01*
X251841Y495769D01*
X249331Y496809D01*
X248286Y497854D01*
X248272Y497865D01*
X248261Y497879D01*
X248117Y497992D01*
X247975Y498109D01*
X247959Y498117D01*
X247945Y498128D01*
X247781Y498211D01*
X247619Y498297D01*
X247602Y498302D01*
X247586Y498310D01*
X247409Y498360D01*
X247233Y498412D01*
X247215Y498414D01*
X247198Y498418D01*
X247015Y498432D01*
X246832Y498448D01*
X246814Y498447D01*
X246797Y498448D01*
X246615Y498425D01*
X246432Y498405D01*
X246415Y498400D01*
X246397Y498397D01*
X246223Y498339D01*
X246048Y498284D01*
X246032Y498275D01*
X246016Y498269D01*
X245857Y498178D01*
X245696Y498089D01*
X245682Y498077D01*
X245667Y498068D01*
X245414Y497854D01*
X244369Y496809D01*
X241859Y495769D01*
X239141Y495769D01*
X236631Y496809D01*
X235586Y497854D01*
X235573Y497865D01*
X235561Y497878D01*
X235416Y497993D01*
X235275Y498109D01*
X235259Y498117D01*
X235245Y498128D01*
X235081Y498211D01*
X234919Y498297D01*
X234902Y498302D01*
X234886Y498310D01*
X234709Y498360D01*
X234533Y498412D01*
X234515Y498414D01*
X234498Y498418D01*
X234315Y498432D01*
X234132Y498448D01*
X234114Y498447D01*
X234097Y498448D01*
X233915Y498425D01*
X233732Y498405D01*
X233715Y498400D01*
X233697Y498397D01*
X233524Y498339D01*
X233348Y498284D01*
X233332Y498275D01*
X233316Y498269D01*
X233157Y498178D01*
X232996Y498089D01*
X232982Y498077D01*
X232967Y498068D01*
X232714Y497854D01*
X231669Y496809D01*
X229159Y495769D01*
X226441Y495769D01*
X223931Y496809D01*
X222009Y498731D01*
X220969Y501241D01*
X220969Y503959D01*
X222009Y506469D01*
X223931Y508391D01*
X226441Y509431D01*
X229225Y509431D01*
X229365Y509389D01*
X229387Y509386D01*
X229408Y509380D01*
X229588Y509367D01*
X229765Y509350D01*
X229788Y509353D01*
X229810Y509351D01*
X229989Y509374D01*
X230166Y509392D01*
X230187Y509399D01*
X230209Y509401D01*
X230379Y509458D01*
X230550Y509512D01*
X230570Y509523D01*
X230591Y509530D01*
X230746Y509619D01*
X230904Y509705D01*
X230921Y509719D01*
X230940Y509731D01*
X231193Y509945D01*
X247303Y526056D01*
X247309Y526063D01*
X247316Y526068D01*
X247435Y526217D01*
X247558Y526367D01*
X247563Y526375D01*
X247568Y526382D01*
X247657Y526553D01*
X247747Y526723D01*
X247750Y526731D01*
X247754Y526739D01*
X247807Y526925D01*
X247862Y527109D01*
X247863Y527118D01*
X247865Y527126D01*
X247881Y527318D01*
X247898Y527510D01*
X247897Y527519D01*
X247898Y527528D01*
X247876Y527717D01*
X247855Y527910D01*
X247852Y527919D01*
X247851Y527927D01*
X247792Y528109D01*
X247733Y528294D01*
X247729Y528302D01*
X247726Y528310D01*
X247631Y528479D01*
X247539Y528646D01*
X247533Y528653D01*
X247528Y528661D01*
X247402Y528807D01*
X247278Y528953D01*
X247271Y528959D01*
X247265Y528966D01*
X247114Y529083D01*
X246962Y529203D01*
X246954Y529207D01*
X246947Y529212D01*
X246775Y529298D01*
X246603Y529385D01*
X246595Y529388D01*
X246587Y529392D01*
X246400Y529442D01*
X246215Y529493D01*
X246206Y529494D01*
X246198Y529496D01*
X245867Y529523D01*
X235870Y529523D01*
X229323Y536070D01*
X229323Y545330D01*
X235957Y551964D01*
X235969Y551978D01*
X235982Y551989D01*
X236096Y552133D01*
X236212Y552275D01*
X236221Y552291D01*
X236232Y552305D01*
X236315Y552469D01*
X236401Y552631D01*
X236406Y552648D01*
X236414Y552664D01*
X236464Y552841D01*
X236516Y553017D01*
X236518Y553035D01*
X236522Y553052D01*
X236536Y553235D01*
X236552Y553418D01*
X236550Y553436D01*
X236552Y553453D01*
X236529Y553634D01*
X236509Y553818D01*
X236504Y553835D01*
X236501Y553853D01*
X236443Y554027D01*
X236387Y554202D01*
X236379Y554218D01*
X236373Y554234D01*
X236281Y554394D01*
X236193Y554554D01*
X236181Y554568D01*
X236172Y554583D01*
X235957Y554836D01*
X229323Y561470D01*
X229323Y570730D01*
X235870Y577277D01*
X245130Y577277D01*
X251764Y570643D01*
X251778Y570631D01*
X251789Y570618D01*
X251933Y570504D01*
X252075Y570388D01*
X252091Y570379D01*
X252105Y570368D01*
X252269Y570285D01*
X252431Y570199D01*
X252448Y570194D01*
X252464Y570186D01*
X252641Y570136D01*
X252817Y570084D01*
X252835Y570082D01*
X252852Y570078D01*
X253035Y570064D01*
X253218Y570048D01*
X253236Y570050D01*
X253253Y570048D01*
X253435Y570071D01*
X253618Y570091D01*
X253635Y570096D01*
X253653Y570099D01*
X253827Y570157D01*
X254002Y570213D01*
X254018Y570221D01*
X254034Y570227D01*
X254194Y570319D01*
X254354Y570407D01*
X254368Y570419D01*
X254383Y570428D01*
X254636Y570643D01*
X261270Y577277D01*
X270530Y577277D01*
X277164Y570643D01*
X277178Y570631D01*
X277189Y570618D01*
X277333Y570504D01*
X277475Y570388D01*
X277491Y570379D01*
X277505Y570368D01*
X277669Y570285D01*
X277831Y570199D01*
X277848Y570194D01*
X277864Y570186D01*
X278041Y570136D01*
X278217Y570084D01*
X278235Y570082D01*
X278252Y570078D01*
X278435Y570064D01*
X278618Y570048D01*
X278636Y570050D01*
X278653Y570048D01*
X278835Y570071D01*
X279018Y570091D01*
X279035Y570096D01*
X279053Y570099D01*
X279227Y570157D01*
X279402Y570213D01*
X279418Y570221D01*
X279434Y570227D01*
X279594Y570319D01*
X279754Y570407D01*
X279768Y570419D01*
X279783Y570428D01*
X280036Y570643D01*
X286670Y577277D01*
X295930Y577277D01*
X302564Y570643D01*
X302578Y570631D01*
X302589Y570618D01*
X302733Y570504D01*
X302875Y570388D01*
X302891Y570379D01*
X302905Y570368D01*
X303069Y570285D01*
X303231Y570199D01*
X303248Y570194D01*
X303264Y570186D01*
X303441Y570136D01*
X303617Y570084D01*
X303635Y570082D01*
X303652Y570078D01*
X303835Y570064D01*
X304018Y570048D01*
X304036Y570050D01*
X304053Y570048D01*
X304235Y570071D01*
X304418Y570091D01*
X304435Y570096D01*
X304453Y570099D01*
X304627Y570157D01*
X304802Y570213D01*
X304818Y570221D01*
X304834Y570227D01*
X304994Y570319D01*
X305154Y570407D01*
X305168Y570419D01*
X305183Y570428D01*
X305436Y570643D01*
X312070Y577277D01*
X321330Y577277D01*
X327964Y570643D01*
X327978Y570631D01*
X327989Y570618D01*
X328133Y570504D01*
X328275Y570388D01*
X328291Y570379D01*
X328305Y570368D01*
X328469Y570285D01*
X328631Y570199D01*
X328648Y570194D01*
X328664Y570186D01*
X328841Y570136D01*
X329017Y570084D01*
X329035Y570082D01*
X329052Y570078D01*
X329235Y570064D01*
X329418Y570048D01*
X329436Y570050D01*
X329453Y570048D01*
X329635Y570071D01*
X329818Y570091D01*
X329835Y570096D01*
X329853Y570099D01*
X330027Y570157D01*
X330202Y570213D01*
X330218Y570221D01*
X330234Y570227D01*
X330394Y570319D01*
X330554Y570407D01*
X330568Y570419D01*
X330583Y570428D01*
X330836Y570643D01*
X337470Y577277D01*
X346730Y577277D01*
X353364Y570643D01*
X353378Y570631D01*
X353389Y570618D01*
X353533Y570504D01*
X353675Y570388D01*
X353691Y570379D01*
X353705Y570368D01*
X353869Y570285D01*
X354031Y570199D01*
X354048Y570194D01*
X354064Y570186D01*
X354241Y570136D01*
X354417Y570084D01*
X354435Y570082D01*
X354452Y570078D01*
X354635Y570064D01*
X354818Y570048D01*
X354836Y570050D01*
X354853Y570048D01*
X355035Y570071D01*
X355218Y570091D01*
X355235Y570096D01*
X355253Y570099D01*
X355427Y570157D01*
X355602Y570213D01*
X355618Y570221D01*
X355634Y570227D01*
X355794Y570319D01*
X355954Y570407D01*
X355968Y570419D01*
X355983Y570428D01*
X356236Y570643D01*
X362870Y577277D01*
X372130Y577277D01*
X378764Y570643D01*
X378778Y570631D01*
X378789Y570618D01*
X378933Y570504D01*
X379075Y570388D01*
X379091Y570379D01*
X379105Y570368D01*
X379269Y570285D01*
X379431Y570199D01*
X379448Y570194D01*
X379464Y570186D01*
X379641Y570136D01*
X379817Y570084D01*
X379835Y570082D01*
X379852Y570078D01*
X380035Y570064D01*
X380218Y570048D01*
X380236Y570050D01*
X380253Y570048D01*
X380435Y570071D01*
X380618Y570091D01*
X380635Y570096D01*
X380653Y570099D01*
X380827Y570157D01*
X381002Y570213D01*
X381018Y570221D01*
X381034Y570227D01*
X381194Y570319D01*
X381354Y570407D01*
X381368Y570419D01*
X381383Y570428D01*
X381636Y570643D01*
X388270Y577277D01*
X397530Y577277D01*
X404164Y570643D01*
X404178Y570631D01*
X404189Y570618D01*
X404333Y570504D01*
X404475Y570388D01*
X404491Y570379D01*
X404505Y570368D01*
X404669Y570285D01*
X404831Y570199D01*
X404848Y570194D01*
X404864Y570186D01*
X405041Y570136D01*
X405217Y570084D01*
X405235Y570082D01*
X405252Y570078D01*
X405435Y570064D01*
X405618Y570048D01*
X405636Y570050D01*
X405653Y570048D01*
X405835Y570071D01*
X406018Y570091D01*
X406035Y570096D01*
X406053Y570099D01*
X406227Y570157D01*
X406402Y570213D01*
X406418Y570221D01*
X406434Y570227D01*
X406594Y570319D01*
X406754Y570407D01*
X406768Y570419D01*
X406783Y570428D01*
X407036Y570643D01*
X413670Y577277D01*
X422930Y577277D01*
X429477Y570730D01*
X429477Y561470D01*
X426627Y558621D01*
X426616Y558607D01*
X426602Y558595D01*
X426488Y558451D01*
X426372Y558309D01*
X426364Y558294D01*
X426353Y558280D01*
X426269Y558115D01*
X426183Y557954D01*
X426178Y557937D01*
X426170Y557921D01*
X426121Y557743D01*
X426069Y557568D01*
X426067Y557550D01*
X426062Y557533D01*
X426049Y557350D01*
X426032Y557167D01*
X426034Y557149D01*
X426033Y557131D01*
X426056Y556949D01*
X426076Y556766D01*
X426081Y556749D01*
X426083Y556732D01*
X426142Y556558D01*
X426197Y556383D01*
X426206Y556367D01*
X426211Y556350D01*
X426303Y556191D01*
X426392Y556030D01*
X426403Y556017D01*
X426412Y556001D01*
X426627Y555748D01*
X449503Y532873D01*
X449510Y532867D01*
X449515Y532860D01*
X449665Y532740D01*
X449814Y532617D01*
X449822Y532613D01*
X449829Y532608D01*
X450000Y532519D01*
X450170Y532429D01*
X450178Y532426D01*
X450186Y532422D01*
X450372Y532369D01*
X450556Y532314D01*
X450565Y532313D01*
X450573Y532311D01*
X450765Y532295D01*
X450957Y532278D01*
X450966Y532279D01*
X450975Y532278D01*
X451164Y532300D01*
X451357Y532321D01*
X451366Y532324D01*
X451374Y532325D01*
X451556Y532384D01*
X451741Y532443D01*
X451749Y532447D01*
X451757Y532450D01*
X451926Y532545D01*
X452093Y532637D01*
X452100Y532643D01*
X452108Y532648D01*
X452254Y532774D01*
X452400Y532898D01*
X452406Y532905D01*
X452413Y532911D01*
X452530Y533062D01*
X452650Y533214D01*
X452654Y533222D01*
X452659Y533229D01*
X452745Y533401D01*
X452832Y533573D01*
X452835Y533581D01*
X452839Y533589D01*
X452889Y533776D01*
X452940Y533961D01*
X452941Y533970D01*
X452943Y533978D01*
X452970Y534309D01*
X452970Y553923D01*
X455202Y556154D01*
X455202Y556155D01*
X457784Y558737D01*
X457796Y558751D01*
X457809Y558762D01*
X457923Y558906D01*
X458039Y559048D01*
X458048Y559064D01*
X458059Y559078D01*
X458142Y559242D01*
X458228Y559404D01*
X458233Y559421D01*
X458241Y559437D01*
X458291Y559614D01*
X458343Y559790D01*
X458344Y559808D01*
X458349Y559825D01*
X458363Y560008D01*
X458379Y560191D01*
X458377Y560209D01*
X458379Y560226D01*
X458356Y560408D01*
X458336Y560591D01*
X458330Y560608D01*
X458328Y560626D01*
X458270Y560799D01*
X458214Y560975D01*
X458206Y560991D01*
X458200Y561007D01*
X458108Y561167D01*
X458020Y561327D01*
X458008Y561341D01*
X457999Y561356D01*
X457923Y561446D01*
X457923Y570730D01*
X464470Y577277D01*
X473730Y577277D01*
X480364Y570643D01*
X480377Y570631D01*
X480389Y570618D01*
X480533Y570504D01*
X480675Y570388D01*
X480691Y570379D01*
X480705Y570368D01*
X480869Y570285D01*
X481031Y570199D01*
X481048Y570194D01*
X481064Y570186D01*
X481241Y570136D01*
X481417Y570084D01*
X481435Y570082D01*
X481452Y570078D01*
X481635Y570064D01*
X481818Y570048D01*
X481836Y570050D01*
X481853Y570048D01*
X482035Y570071D01*
X482218Y570091D01*
X482235Y570097D01*
X482253Y570099D01*
X482426Y570157D01*
X482602Y570213D01*
X482618Y570221D01*
X482634Y570227D01*
X482794Y570319D01*
X482954Y570407D01*
X482968Y570419D01*
X482983Y570428D01*
X483236Y570643D01*
X489870Y577277D01*
X499130Y577277D01*
X505764Y570643D01*
X505777Y570631D01*
X505789Y570618D01*
X505933Y570504D01*
X506075Y570388D01*
X506091Y570379D01*
X506105Y570368D01*
X506269Y570285D01*
X506431Y570199D01*
X506448Y570194D01*
X506464Y570186D01*
X506641Y570136D01*
X506817Y570084D01*
X506835Y570082D01*
X506852Y570078D01*
X507035Y570064D01*
X507218Y570048D01*
X507236Y570050D01*
X507253Y570048D01*
X507435Y570071D01*
X507618Y570091D01*
X507635Y570097D01*
X507653Y570099D01*
X507826Y570157D01*
X508002Y570213D01*
X508018Y570221D01*
X508034Y570227D01*
X508194Y570319D01*
X508354Y570407D01*
X508368Y570419D01*
X508383Y570428D01*
X508636Y570643D01*
X515270Y577277D01*
X524530Y577277D01*
X531164Y570643D01*
X531177Y570631D01*
X531189Y570618D01*
X531333Y570504D01*
X531475Y570388D01*
X531491Y570379D01*
X531505Y570368D01*
X531669Y570285D01*
X531831Y570199D01*
X531848Y570194D01*
X531864Y570186D01*
X532041Y570136D01*
X532217Y570084D01*
X532235Y570082D01*
X532252Y570078D01*
X532435Y570064D01*
X532618Y570048D01*
X532636Y570050D01*
X532653Y570048D01*
X532835Y570071D01*
X533018Y570091D01*
X533035Y570097D01*
X533053Y570099D01*
X533226Y570157D01*
X533402Y570213D01*
X533418Y570221D01*
X533434Y570227D01*
X533594Y570319D01*
X533754Y570407D01*
X533768Y570419D01*
X533783Y570428D01*
X534036Y570643D01*
X540670Y577277D01*
X549930Y577277D01*
X556564Y570643D01*
X556577Y570631D01*
X556589Y570618D01*
X556733Y570504D01*
X556875Y570388D01*
X556891Y570379D01*
X556905Y570368D01*
X557069Y570285D01*
X557231Y570199D01*
X557248Y570194D01*
X557264Y570186D01*
X557441Y570136D01*
X557617Y570084D01*
X557635Y570082D01*
X557652Y570078D01*
X557835Y570064D01*
X558018Y570048D01*
X558036Y570050D01*
X558053Y570048D01*
X558235Y570071D01*
X558418Y570091D01*
X558435Y570097D01*
X558453Y570099D01*
X558626Y570157D01*
X558802Y570213D01*
X558818Y570221D01*
X558834Y570227D01*
X558994Y570319D01*
X559154Y570407D01*
X559168Y570419D01*
X559183Y570428D01*
X559436Y570643D01*
X566070Y577277D01*
X575330Y577277D01*
X581964Y570643D01*
X581977Y570631D01*
X581989Y570618D01*
X582133Y570504D01*
X582275Y570388D01*
X582291Y570379D01*
X582305Y570368D01*
X582469Y570285D01*
X582631Y570199D01*
X582648Y570194D01*
X582664Y570186D01*
X582841Y570136D01*
X583017Y570084D01*
X583035Y570082D01*
X583052Y570078D01*
X583235Y570064D01*
X583418Y570048D01*
X583436Y570050D01*
X583453Y570048D01*
X583635Y570071D01*
X583818Y570091D01*
X583835Y570097D01*
X583853Y570099D01*
X584026Y570157D01*
X584202Y570213D01*
X584218Y570221D01*
X584234Y570227D01*
X584394Y570319D01*
X584554Y570407D01*
X584568Y570419D01*
X584583Y570428D01*
X584836Y570643D01*
X591470Y577277D01*
X600730Y577277D01*
X607364Y570643D01*
X607377Y570631D01*
X607389Y570618D01*
X607533Y570504D01*
X607675Y570388D01*
X607691Y570379D01*
X607705Y570368D01*
X607869Y570285D01*
X608031Y570199D01*
X608048Y570194D01*
X608064Y570186D01*
X608241Y570136D01*
X608417Y570084D01*
X608435Y570082D01*
X608452Y570078D01*
X608635Y570064D01*
X608818Y570048D01*
X608836Y570050D01*
X608853Y570048D01*
X609035Y570071D01*
X609218Y570091D01*
X609235Y570097D01*
X609253Y570099D01*
X609426Y570157D01*
X609602Y570213D01*
X609618Y570221D01*
X609634Y570227D01*
X609794Y570319D01*
X609954Y570407D01*
X609968Y570419D01*
X609983Y570428D01*
X610236Y570643D01*
X616870Y577277D01*
X626130Y577277D01*
X632764Y570643D01*
X632777Y570631D01*
X632789Y570618D01*
X632933Y570504D01*
X633075Y570388D01*
X633091Y570379D01*
X633105Y570368D01*
X633269Y570285D01*
X633431Y570199D01*
X633448Y570194D01*
X633464Y570186D01*
X633641Y570136D01*
X633817Y570084D01*
X633835Y570082D01*
X633852Y570078D01*
X634035Y570064D01*
X634218Y570048D01*
X634236Y570050D01*
X634253Y570048D01*
X634435Y570071D01*
X634618Y570091D01*
X634635Y570097D01*
X634653Y570099D01*
X634826Y570157D01*
X635002Y570213D01*
X635018Y570221D01*
X635034Y570227D01*
X635194Y570319D01*
X635354Y570407D01*
X635368Y570419D01*
X635383Y570428D01*
X635636Y570643D01*
X642270Y577277D01*
X651530Y577277D01*
X658077Y570730D01*
X658077Y561470D01*
X651443Y554836D01*
X651431Y554822D01*
X651418Y554811D01*
X651304Y554667D01*
X651188Y554525D01*
X651179Y554509D01*
X651168Y554495D01*
X651084Y554330D01*
X650999Y554169D01*
X650994Y554152D01*
X650986Y554136D01*
X650936Y553959D01*
X650884Y553783D01*
X650882Y553765D01*
X650878Y553748D01*
X650864Y553565D01*
X650848Y553382D01*
X650850Y553364D01*
X650848Y553347D01*
X650871Y553165D01*
X650891Y552982D01*
X650896Y552965D01*
X650899Y552947D01*
X650957Y552773D01*
X651013Y552598D01*
X651021Y552582D01*
X651027Y552566D01*
X651119Y552406D01*
X651207Y552246D01*
X651219Y552232D01*
X651228Y552217D01*
X651443Y551964D01*
X658077Y545330D01*
X658077Y536070D01*
X651530Y529523D01*
X642270Y529523D01*
X635636Y536157D01*
X635622Y536169D01*
X635611Y536182D01*
X635467Y536296D01*
X635325Y536412D01*
X635309Y536421D01*
X635295Y536432D01*
X635131Y536515D01*
X634969Y536601D01*
X634952Y536606D01*
X634936Y536614D01*
X634759Y536664D01*
X634583Y536716D01*
X634565Y536718D01*
X634548Y536722D01*
X634365Y536736D01*
X634182Y536752D01*
X634164Y536750D01*
X634147Y536752D01*
X633965Y536729D01*
X633782Y536709D01*
X633765Y536704D01*
X633747Y536701D01*
X633573Y536643D01*
X633398Y536587D01*
X633382Y536579D01*
X633366Y536573D01*
X633206Y536481D01*
X633046Y536393D01*
X633032Y536381D01*
X633017Y536372D01*
X632764Y536157D01*
X626108Y529502D01*
X625925Y529483D01*
X625908Y529478D01*
X625891Y529476D01*
X625716Y529419D01*
X625540Y529365D01*
X625525Y529357D01*
X625508Y529351D01*
X625347Y529261D01*
X625186Y529173D01*
X625173Y529162D01*
X625157Y529153D01*
X625018Y529033D01*
X624877Y528916D01*
X624866Y528902D01*
X624852Y528890D01*
X624740Y528745D01*
X624625Y528602D01*
X624617Y528586D01*
X624606Y528572D01*
X624524Y528407D01*
X624439Y528245D01*
X624434Y528228D01*
X624426Y528212D01*
X624379Y528033D01*
X624328Y527858D01*
X624326Y527840D01*
X624322Y527823D01*
X624295Y527492D01*
X624295Y517543D01*
X624297Y517520D01*
X624295Y517498D01*
X624317Y517320D01*
X624335Y517142D01*
X624341Y517120D01*
X624344Y517098D01*
X624400Y516928D01*
X624453Y516757D01*
X624464Y516737D01*
X624471Y516716D01*
X624559Y516561D01*
X624645Y516403D01*
X624659Y516386D01*
X624670Y516366D01*
X624788Y516231D01*
X624902Y516094D01*
X624920Y516080D01*
X624935Y516063D01*
X625061Y515965D01*
X627079Y513948D01*
X628081Y511529D01*
X628081Y508911D01*
X627079Y506492D01*
X625228Y504641D01*
X622809Y503639D01*
X620191Y503639D01*
X617772Y504641D01*
X615921Y506492D01*
X614919Y508911D01*
X614919Y511529D01*
X615921Y513948D01*
X617930Y515957D01*
X617978Y515998D01*
X618116Y516112D01*
X618130Y516130D01*
X618148Y516144D01*
X618257Y516286D01*
X618370Y516425D01*
X618381Y516445D01*
X618394Y516463D01*
X618474Y516623D01*
X618557Y516781D01*
X618564Y516803D01*
X618574Y516823D01*
X618620Y516996D01*
X618670Y517168D01*
X618672Y517190D01*
X618678Y517212D01*
X618705Y517543D01*
X618705Y527492D01*
X618703Y527510D01*
X618705Y527528D01*
X618684Y527710D01*
X618665Y527893D01*
X618660Y527910D01*
X618658Y527927D01*
X618601Y528102D01*
X618547Y528278D01*
X618539Y528293D01*
X618533Y528310D01*
X618443Y528470D01*
X618355Y528632D01*
X618344Y528645D01*
X618335Y528661D01*
X618215Y528800D01*
X618098Y528941D01*
X618084Y528952D01*
X618072Y528966D01*
X617927Y529078D01*
X617784Y529193D01*
X617768Y529201D01*
X617754Y529212D01*
X617589Y529294D01*
X617427Y529379D01*
X617410Y529384D01*
X617394Y529392D01*
X617215Y529439D01*
X617040Y529490D01*
X617022Y529492D01*
X617005Y529496D01*
X616888Y529506D01*
X610236Y536157D01*
X610222Y536169D01*
X610211Y536182D01*
X610067Y536296D01*
X609925Y536412D01*
X609909Y536421D01*
X609895Y536432D01*
X609731Y536515D01*
X609569Y536601D01*
X609552Y536606D01*
X609536Y536614D01*
X609359Y536664D01*
X609183Y536716D01*
X609165Y536718D01*
X609148Y536722D01*
X608965Y536736D01*
X608782Y536752D01*
X608764Y536750D01*
X608747Y536752D01*
X608565Y536729D01*
X608382Y536709D01*
X608365Y536704D01*
X608347Y536701D01*
X608173Y536643D01*
X607998Y536587D01*
X607982Y536579D01*
X607966Y536573D01*
X607806Y536481D01*
X607646Y536393D01*
X607632Y536381D01*
X607617Y536372D01*
X607364Y536157D01*
X600708Y529502D01*
X600525Y529483D01*
X600508Y529478D01*
X600491Y529476D01*
X600316Y529419D01*
X600140Y529365D01*
X600125Y529357D01*
X600108Y529351D01*
X599947Y529261D01*
X599786Y529173D01*
X599773Y529162D01*
X599757Y529153D01*
X599618Y529033D01*
X599477Y528916D01*
X599466Y528902D01*
X599452Y528890D01*
X599340Y528745D01*
X599225Y528602D01*
X599217Y528586D01*
X599206Y528572D01*
X599124Y528407D01*
X599039Y528245D01*
X599034Y528228D01*
X599026Y528212D01*
X598979Y528033D01*
X598928Y527858D01*
X598926Y527840D01*
X598922Y527823D01*
X598895Y527492D01*
X598895Y508186D01*
X598897Y508159D01*
X598895Y508132D01*
X598917Y507959D01*
X598935Y507785D01*
X598942Y507760D01*
X598946Y507733D01*
X599001Y507567D01*
X599053Y507400D01*
X599066Y507377D01*
X599074Y507351D01*
X599161Y507200D01*
X599245Y507046D01*
X599262Y507026D01*
X599275Y507002D01*
X599490Y506749D01*
X601543Y504696D01*
X601564Y504679D01*
X601582Y504658D01*
X601720Y504551D01*
X601855Y504441D01*
X601879Y504428D01*
X601900Y504412D01*
X602057Y504334D01*
X602211Y504252D01*
X602236Y504244D01*
X602260Y504232D01*
X602430Y504187D01*
X602597Y504137D01*
X602623Y504135D01*
X602649Y504128D01*
X602980Y504101D01*
X605029Y504101D01*
X607448Y503099D01*
X609299Y501248D01*
X610301Y498829D01*
X610301Y496211D01*
X609299Y493792D01*
X607448Y491941D01*
X605029Y490939D01*
X604380Y490939D01*
X604371Y490938D01*
X604362Y490939D01*
X604169Y490918D01*
X603979Y490899D01*
X603971Y490897D01*
X603962Y490896D01*
X603777Y490837D01*
X603594Y490781D01*
X603586Y490777D01*
X603578Y490774D01*
X603410Y490681D01*
X603240Y490589D01*
X603233Y490584D01*
X603226Y490579D01*
X603078Y490455D01*
X602931Y490332D01*
X602925Y490325D01*
X602919Y490319D01*
X602799Y490167D01*
X602679Y490018D01*
X602674Y490010D01*
X602669Y490003D01*
X602581Y489830D01*
X602493Y489661D01*
X602491Y489652D01*
X602487Y489644D01*
X602435Y489458D01*
X602382Y489274D01*
X602381Y489265D01*
X602379Y489256D01*
X602364Y489063D01*
X602349Y488872D01*
X602350Y488864D01*
X602349Y488855D01*
X602373Y488662D01*
X602396Y488473D01*
X602398Y488464D01*
X602400Y488455D01*
X602461Y488273D01*
X602521Y488090D01*
X602525Y488082D01*
X602528Y488074D01*
X602624Y487907D01*
X602718Y487739D01*
X602724Y487732D01*
X602729Y487725D01*
X602943Y487472D01*
X628486Y461929D01*
X628486Y397099D01*
X618416Y387029D01*
X611942Y387029D01*
X611933Y387028D01*
X611924Y387029D01*
X611731Y387008D01*
X611541Y386989D01*
X611533Y386987D01*
X611524Y386986D01*
X611339Y386927D01*
X611156Y386871D01*
X611149Y386867D01*
X611140Y386864D01*
X610972Y386771D01*
X610802Y386679D01*
X610795Y386674D01*
X610788Y386669D01*
X610641Y386545D01*
X610493Y386422D01*
X610488Y386415D01*
X610481Y386409D01*
X610360Y386257D01*
X610241Y386108D01*
X610237Y386100D01*
X610231Y386093D01*
X610143Y385920D01*
X610055Y385751D01*
X610053Y385742D01*
X610049Y385734D01*
X609997Y385548D01*
X609944Y385364D01*
X609943Y385355D01*
X609941Y385346D01*
X609927Y385153D01*
X609911Y384962D01*
X609912Y384954D01*
X609911Y384945D01*
X609936Y384752D01*
X609958Y384563D01*
X609961Y384554D01*
X609962Y384545D01*
X610023Y384363D01*
X610083Y384180D01*
X610087Y384172D01*
X610090Y384164D01*
X610186Y383997D01*
X610281Y383829D01*
X610286Y383822D01*
X610291Y383815D01*
X610506Y383562D01*
X618298Y375769D01*
X618316Y375755D01*
X618331Y375737D01*
X618471Y375627D01*
X618610Y375514D01*
X618630Y375503D01*
X618648Y375489D01*
X618808Y375409D01*
X618966Y375325D01*
X618987Y375319D01*
X619007Y375309D01*
X619180Y375261D01*
X619351Y375211D01*
X619374Y375208D01*
X619396Y375203D01*
X619574Y375190D01*
X619752Y375174D01*
X619775Y375177D01*
X619797Y375175D01*
X619956Y375196D01*
X622809Y375196D01*
X625228Y374194D01*
X627079Y372343D01*
X628081Y369924D01*
X628081Y367306D01*
X627079Y364887D01*
X625228Y363036D01*
X622809Y362034D01*
X620191Y362034D01*
X617772Y363036D01*
X615921Y364887D01*
X615703Y365414D01*
X615697Y365426D01*
X615692Y365439D01*
X615602Y365603D01*
X615513Y365769D01*
X615504Y365780D01*
X615498Y365791D01*
X615376Y365934D01*
X615256Y366080D01*
X615246Y366088D01*
X615237Y366098D01*
X615089Y366215D01*
X614944Y366333D01*
X614932Y366339D01*
X614921Y366348D01*
X614753Y366433D01*
X614587Y366520D01*
X614574Y366524D01*
X614562Y366530D01*
X614382Y366580D01*
X614201Y366633D01*
X614187Y366635D01*
X614174Y366638D01*
X613986Y366652D01*
X613800Y366668D01*
X613786Y366667D01*
X613773Y366668D01*
X613586Y366644D01*
X613400Y366623D01*
X613387Y366619D01*
X613373Y366617D01*
X613195Y366557D01*
X613016Y366500D01*
X613005Y366493D01*
X612992Y366489D01*
X612828Y366395D01*
X612665Y366303D01*
X612655Y366295D01*
X612643Y366288D01*
X612390Y366073D01*
X611893Y365576D01*
X609474Y364574D01*
X606856Y364574D01*
X605126Y365291D01*
X605104Y365297D01*
X605085Y365308D01*
X604912Y365356D01*
X604740Y365407D01*
X604718Y365409D01*
X604697Y365416D01*
X604517Y365429D01*
X604340Y365446D01*
X604318Y365443D01*
X604295Y365445D01*
X604117Y365422D01*
X603939Y365404D01*
X603918Y365397D01*
X603896Y365394D01*
X603725Y365337D01*
X603555Y365284D01*
X603535Y365273D01*
X603514Y365266D01*
X603359Y365177D01*
X603202Y365091D01*
X603184Y365076D01*
X603165Y365065D01*
X602912Y364851D01*
X601098Y363036D01*
X598679Y362034D01*
X596061Y362034D01*
X593642Y363036D01*
X591791Y364887D01*
X590789Y367306D01*
X590789Y369504D01*
X590787Y369522D01*
X590789Y369540D01*
X590768Y369722D01*
X590749Y369905D01*
X590744Y369922D01*
X590742Y369939D01*
X590685Y370114D01*
X590631Y370290D01*
X590623Y370305D01*
X590617Y370322D01*
X590527Y370482D01*
X590439Y370644D01*
X590428Y370657D01*
X590419Y370673D01*
X590299Y370812D01*
X590182Y370953D01*
X590168Y370964D01*
X590156Y370978D01*
X590011Y371090D01*
X589868Y371205D01*
X589852Y371213D01*
X589838Y371224D01*
X589673Y371306D01*
X589511Y371391D01*
X589494Y371396D01*
X589478Y371404D01*
X589299Y371451D01*
X589124Y371502D01*
X589106Y371504D01*
X589089Y371508D01*
X588758Y371535D01*
X523413Y371535D01*
X523390Y371533D01*
X523368Y371535D01*
X523190Y371513D01*
X523012Y371495D01*
X522990Y371489D01*
X522968Y371486D01*
X522798Y371430D01*
X522627Y371377D01*
X522607Y371366D01*
X522586Y371359D01*
X522431Y371271D01*
X522273Y371185D01*
X522256Y371171D01*
X522236Y371160D01*
X522101Y371042D01*
X521964Y370928D01*
X521950Y370910D01*
X521933Y370895D01*
X521835Y370769D01*
X519818Y368751D01*
X517399Y367749D01*
X514781Y367749D01*
X512362Y368751D01*
X510511Y370602D01*
X509509Y373021D01*
X509509Y375639D01*
X510511Y378058D01*
X512362Y379909D01*
X514906Y380962D01*
X514910Y380964D01*
X514914Y380966D01*
X515087Y381059D01*
X515261Y381153D01*
X515264Y381155D01*
X515268Y381158D01*
X515417Y381282D01*
X515571Y381409D01*
X515574Y381412D01*
X515577Y381415D01*
X515700Y381568D01*
X515825Y381722D01*
X515827Y381726D01*
X515830Y381729D01*
X515920Y381902D01*
X516012Y382078D01*
X516013Y382082D01*
X516015Y382086D01*
X516069Y382275D01*
X516125Y382465D01*
X516125Y382469D01*
X516127Y382473D01*
X516143Y382671D01*
X516160Y382866D01*
X516159Y382870D01*
X516159Y382875D01*
X516137Y383067D01*
X516114Y383266D01*
X516113Y383270D01*
X516112Y383274D01*
X516052Y383460D01*
X515991Y383649D01*
X515989Y383653D01*
X515988Y383657D01*
X515891Y383829D01*
X515795Y384001D01*
X515792Y384004D01*
X515790Y384008D01*
X515661Y384157D01*
X515533Y384306D01*
X515529Y384309D01*
X515527Y384313D01*
X515372Y384433D01*
X515216Y384555D01*
X515212Y384557D01*
X515208Y384559D01*
X515031Y384648D01*
X514856Y384735D01*
X514852Y384737D01*
X514848Y384739D01*
X514656Y384790D01*
X514468Y384842D01*
X514463Y384842D01*
X514459Y384843D01*
X514128Y384870D01*
X474909Y384870D01*
X474882Y384868D01*
X474856Y384870D01*
X474682Y384848D01*
X474508Y384830D01*
X474483Y384823D01*
X474456Y384819D01*
X474291Y384764D01*
X474123Y384712D01*
X474100Y384699D01*
X474075Y384691D01*
X473923Y384604D01*
X473769Y384520D01*
X473749Y384503D01*
X473726Y384490D01*
X473473Y384275D01*
X465813Y376615D01*
X460548Y376615D01*
X460525Y376613D01*
X460503Y376615D01*
X460325Y376593D01*
X460147Y376575D01*
X460125Y376569D01*
X460103Y376566D01*
X459933Y376510D01*
X459762Y376457D01*
X459742Y376446D01*
X459721Y376439D01*
X459566Y376351D01*
X459408Y376265D01*
X459391Y376251D01*
X459371Y376240D01*
X459236Y376122D01*
X459099Y376008D01*
X459085Y375990D01*
X459068Y375975D01*
X458970Y375849D01*
X456953Y373831D01*
X454534Y372829D01*
X451916Y372829D01*
X449497Y373831D01*
X447646Y375682D01*
X446644Y378101D01*
X446644Y380719D01*
X447646Y383138D01*
X449497Y384989D01*
X451740Y385918D01*
X451760Y385928D01*
X451781Y385935D01*
X451938Y386024D01*
X452095Y386108D01*
X452112Y386122D01*
X452132Y386133D01*
X452268Y386251D01*
X452406Y386365D01*
X452420Y386382D01*
X452437Y386396D01*
X452546Y386538D01*
X452659Y386677D01*
X452670Y386697D01*
X452683Y386715D01*
X452763Y386875D01*
X452846Y387034D01*
X452853Y387055D01*
X452863Y387075D01*
X452909Y387248D01*
X452959Y387420D01*
X452961Y387442D01*
X452967Y387464D01*
X452994Y387795D01*
X452994Y389609D01*
X453996Y392028D01*
X455847Y393879D01*
X456598Y394190D01*
X456599Y394190D01*
X458266Y394881D01*
X461106Y394881D01*
X461171Y394876D01*
X461349Y394859D01*
X461371Y394861D01*
X461394Y394860D01*
X461572Y394882D01*
X461749Y394901D01*
X461762Y394905D01*
X550362Y394905D01*
X550375Y394906D01*
X550388Y394905D01*
X550575Y394926D01*
X550762Y394945D01*
X550775Y394949D01*
X550789Y394950D01*
X550968Y395008D01*
X551147Y395063D01*
X551159Y395069D01*
X551172Y395073D01*
X551337Y395165D01*
X551501Y395255D01*
X551512Y395263D01*
X551523Y395270D01*
X551667Y395392D01*
X551811Y395512D01*
X551819Y395523D01*
X551829Y395531D01*
X551945Y395680D01*
X552063Y395826D01*
X552069Y395838D01*
X552077Y395848D01*
X552162Y396017D01*
X552248Y396183D01*
X552252Y396196D01*
X552258Y396208D01*
X552308Y396390D01*
X552360Y396570D01*
X552361Y396584D01*
X552365Y396597D01*
X552377Y396785D01*
X552393Y396972D01*
X552391Y396985D01*
X552392Y396998D01*
X552368Y397186D01*
X552346Y397371D01*
X552342Y397384D01*
X552340Y397397D01*
X552238Y397713D01*
X551292Y399999D01*
X551281Y400019D01*
X551274Y400040D01*
X551186Y400197D01*
X551101Y400354D01*
X551087Y400371D01*
X551076Y400391D01*
X550959Y400527D01*
X550845Y400665D01*
X550828Y400679D01*
X550813Y400696D01*
X550672Y400805D01*
X550532Y400918D01*
X550513Y400929D01*
X550495Y400942D01*
X550335Y401022D01*
X550176Y401105D01*
X550154Y401112D01*
X550134Y401122D01*
X549961Y401168D01*
X549789Y401218D01*
X549767Y401220D01*
X549746Y401226D01*
X549415Y401253D01*
X443941Y401253D01*
X443915Y401251D01*
X443888Y401253D01*
X443714Y401231D01*
X443541Y401213D01*
X443515Y401206D01*
X443488Y401202D01*
X443323Y401147D01*
X443156Y401095D01*
X443132Y401082D01*
X443107Y401074D01*
X442955Y400987D01*
X442802Y400903D01*
X442781Y400886D01*
X442758Y400873D01*
X442505Y400658D01*
X441078Y399231D01*
X438659Y398229D01*
X436041Y398229D01*
X433622Y399231D01*
X431771Y401082D01*
X430769Y403501D01*
X430769Y406119D01*
X431010Y406700D01*
X431014Y406713D01*
X431020Y406724D01*
X431072Y406904D01*
X431126Y407085D01*
X431128Y407098D01*
X431131Y407111D01*
X431147Y407299D01*
X431164Y407486D01*
X431163Y407499D01*
X431164Y407513D01*
X431142Y407699D01*
X431123Y407886D01*
X431119Y407899D01*
X431117Y407912D01*
X431059Y408092D01*
X431003Y408271D01*
X430997Y408282D01*
X430992Y408295D01*
X430900Y408459D01*
X430810Y408624D01*
X430801Y408634D01*
X430794Y408646D01*
X430672Y408788D01*
X430551Y408932D01*
X430540Y408940D01*
X430531Y408951D01*
X430384Y409065D01*
X430236Y409183D01*
X430224Y409189D01*
X430213Y409197D01*
X430045Y409281D01*
X429878Y409367D01*
X429865Y409371D01*
X429853Y409377D01*
X429670Y409426D01*
X429490Y409477D01*
X429477Y409478D01*
X429464Y409481D01*
X429133Y409508D01*
X362387Y409508D01*
X362360Y409506D01*
X362334Y409508D01*
X362160Y409486D01*
X361986Y409468D01*
X361961Y409461D01*
X361934Y409457D01*
X361769Y409402D01*
X361601Y409350D01*
X361578Y409337D01*
X361553Y409329D01*
X361401Y409242D01*
X361247Y409158D01*
X361227Y409141D01*
X361204Y409128D01*
X360951Y408913D01*
X351794Y399757D01*
X351780Y399739D01*
X351762Y399724D01*
X351652Y399584D01*
X351539Y399445D01*
X351528Y399425D01*
X351514Y399407D01*
X351434Y399247D01*
X351350Y399089D01*
X351344Y399068D01*
X351334Y399048D01*
X351286Y398875D01*
X351236Y398704D01*
X351233Y398681D01*
X351228Y398659D01*
X351215Y398481D01*
X351199Y398303D01*
X351202Y398280D01*
X351200Y398258D01*
X351221Y398099D01*
X351221Y395246D01*
X350219Y392827D01*
X348368Y390976D01*
X345949Y389974D01*
X343331Y389974D01*
X340912Y390976D01*
X339061Y392827D01*
X338059Y395246D01*
X338059Y397864D01*
X339061Y400283D01*
X340912Y402134D01*
X341350Y402315D01*
X343331Y403136D01*
X346172Y403136D01*
X346236Y403131D01*
X346414Y403114D01*
X346436Y403116D01*
X346459Y403115D01*
X346637Y403137D01*
X346814Y403156D01*
X346836Y403162D01*
X346858Y403165D01*
X347028Y403222D01*
X347198Y403275D01*
X347218Y403286D01*
X347240Y403293D01*
X347395Y403383D01*
X347552Y403468D01*
X347569Y403483D01*
X347589Y403494D01*
X347842Y403709D01*
X353729Y409597D01*
X353735Y409604D01*
X353742Y409609D01*
X353862Y409759D01*
X353984Y409908D01*
X353989Y409916D01*
X353994Y409923D01*
X354083Y410094D01*
X354173Y410264D01*
X354176Y410272D01*
X354180Y410280D01*
X354233Y410466D01*
X354288Y410650D01*
X354289Y410659D01*
X354291Y410667D01*
X354307Y410859D01*
X354324Y411051D01*
X354323Y411060D01*
X354324Y411069D01*
X354302Y411258D01*
X354281Y411451D01*
X354278Y411460D01*
X354277Y411468D01*
X354218Y411650D01*
X354159Y411835D01*
X354155Y411843D01*
X354152Y411851D01*
X354057Y412020D01*
X353965Y412187D01*
X353959Y412194D01*
X353954Y412202D01*
X353828Y412348D01*
X353704Y412494D01*
X353697Y412500D01*
X353691Y412507D01*
X353540Y412624D01*
X353388Y412744D01*
X353380Y412748D01*
X353373Y412753D01*
X353201Y412839D01*
X353029Y412926D01*
X353021Y412929D01*
X353013Y412933D01*
X352826Y412983D01*
X352641Y413034D01*
X352632Y413035D01*
X352624Y413037D01*
X352588Y413040D01*
X350331Y415296D01*
X345351Y420277D01*
X345334Y420291D01*
X345319Y420308D01*
X345178Y420418D01*
X345039Y420532D01*
X345020Y420542D01*
X345002Y420556D01*
X344842Y420637D01*
X344684Y420720D01*
X344662Y420727D01*
X344642Y420737D01*
X344469Y420784D01*
X344298Y420835D01*
X344276Y420837D01*
X344254Y420843D01*
X344075Y420855D01*
X343897Y420872D01*
X343875Y420869D01*
X343852Y420871D01*
X343675Y420848D01*
X343497Y420828D01*
X343475Y420822D01*
X343453Y420819D01*
X343137Y420717D01*
X342044Y420264D01*
X339426Y420264D01*
X337007Y421266D01*
X335156Y423117D01*
X334143Y425563D01*
X334133Y425652D01*
X334114Y425844D01*
X334112Y425852D01*
X334111Y425861D01*
X334052Y426046D01*
X333996Y426229D01*
X333992Y426236D01*
X333989Y426245D01*
X333896Y426413D01*
X333804Y426583D01*
X333799Y426590D01*
X333794Y426597D01*
X333671Y426743D01*
X333547Y426892D01*
X333540Y426897D01*
X333534Y426904D01*
X333382Y427024D01*
X333233Y427144D01*
X333225Y427148D01*
X333218Y427154D01*
X333045Y427242D01*
X332876Y427330D01*
X332867Y427332D01*
X332859Y427336D01*
X332673Y427388D01*
X332489Y427441D01*
X332480Y427442D01*
X332471Y427444D01*
X332278Y427458D01*
X332087Y427474D01*
X332079Y427473D01*
X332070Y427474D01*
X331877Y427449D01*
X331688Y427427D01*
X331679Y427424D01*
X331670Y427423D01*
X331488Y427362D01*
X331305Y427302D01*
X331297Y427298D01*
X331289Y427295D01*
X331122Y427199D01*
X330954Y427104D01*
X330947Y427099D01*
X330940Y427094D01*
X330687Y426879D01*
X323522Y419715D01*
X323502Y419691D01*
X323479Y419670D01*
X323375Y419535D01*
X323267Y419403D01*
X323252Y419376D01*
X323233Y419351D01*
X323082Y419056D01*
X322131Y416761D01*
X322119Y416737D01*
X322115Y416725D01*
X322109Y416715D01*
X322057Y416533D01*
X322003Y416352D01*
X322001Y416340D01*
X321998Y416328D01*
X321983Y416139D01*
X321965Y415951D01*
X321966Y415939D01*
X321965Y415926D01*
X321987Y415737D01*
X322007Y415551D01*
X322011Y415539D01*
X322012Y415527D01*
X322071Y415346D01*
X322127Y415166D01*
X322133Y415156D01*
X322137Y415144D01*
X322230Y414979D01*
X322321Y414813D01*
X322329Y414804D01*
X322335Y414793D01*
X322458Y414651D01*
X322580Y414505D01*
X322590Y414498D01*
X322598Y414488D01*
X322747Y414373D01*
X322895Y414255D01*
X322906Y414249D01*
X322916Y414242D01*
X323085Y414158D01*
X323254Y414071D01*
X323266Y414068D01*
X323277Y414062D01*
X323459Y414013D01*
X323641Y413962D01*
X323654Y413961D01*
X323665Y413958D01*
X323996Y413931D01*
X324994Y413931D01*
X327413Y412929D01*
X329264Y411078D01*
X330266Y408659D01*
X330266Y406041D01*
X329264Y403622D01*
X327413Y401771D01*
X324994Y400769D01*
X322153Y400769D01*
X322089Y400774D01*
X321911Y400791D01*
X321889Y400789D01*
X321866Y400790D01*
X321688Y400768D01*
X321511Y400749D01*
X321489Y400743D01*
X321467Y400740D01*
X321297Y400683D01*
X321127Y400630D01*
X321107Y400619D01*
X321085Y400612D01*
X320930Y400522D01*
X320773Y400437D01*
X320756Y400422D01*
X320736Y400411D01*
X320483Y400196D01*
X248081Y327793D01*
X248064Y327773D01*
X248043Y327755D01*
X247936Y327617D01*
X247826Y327482D01*
X247813Y327458D01*
X247797Y327437D01*
X247719Y327280D01*
X247637Y327126D01*
X247629Y327101D01*
X247617Y327077D01*
X247572Y326907D01*
X247522Y326740D01*
X247520Y326714D01*
X247513Y326688D01*
X247486Y326357D01*
X247486Y277547D01*
X223848Y253909D01*
X223831Y253888D01*
X223810Y253871D01*
X223703Y253733D01*
X223593Y253598D01*
X223580Y253574D01*
X223564Y253553D01*
X223486Y253396D01*
X223404Y253242D01*
X223396Y253216D01*
X223384Y253192D01*
X223339Y253023D01*
X223289Y252856D01*
X223287Y252829D01*
X223280Y252804D01*
X223253Y252473D01*
X223253Y189310D01*
X223255Y189283D01*
X223253Y189257D01*
X223275Y189083D01*
X223293Y188909D01*
X223300Y188884D01*
X223304Y188857D01*
X223359Y188692D01*
X223411Y188524D01*
X223424Y188501D01*
X223432Y188476D01*
X223519Y188324D01*
X223603Y188170D01*
X223620Y188150D01*
X223633Y188127D01*
X223848Y187874D01*
X233646Y178076D01*
X233666Y178059D01*
X233684Y178038D01*
X233822Y177931D01*
X233957Y177821D01*
X233981Y177808D01*
X234002Y177792D01*
X234159Y177714D01*
X234313Y177632D01*
X234338Y177624D01*
X234362Y177612D01*
X234532Y177567D01*
X234699Y177517D01*
X234725Y177515D01*
X234751Y177508D01*
X235082Y177481D01*
X282606Y177481D01*
X282619Y177482D01*
X282633Y177481D01*
X282819Y177502D01*
X283007Y177521D01*
X283019Y177525D01*
X283033Y177526D01*
X283212Y177584D01*
X283392Y177639D01*
X283403Y177645D01*
X283416Y177649D01*
X283581Y177741D01*
X283746Y177831D01*
X283756Y177839D01*
X283768Y177846D01*
X283910Y177968D01*
X284055Y178088D01*
X284063Y178099D01*
X284073Y178107D01*
X284189Y178255D01*
X284307Y178402D01*
X284313Y178414D01*
X284322Y178424D01*
X284406Y178593D01*
X284493Y178759D01*
X284496Y178772D01*
X284502Y178784D01*
X284552Y178965D01*
X284604Y179146D01*
X284605Y179160D01*
X284609Y179173D01*
X284622Y179361D01*
X284637Y179548D01*
X284635Y179561D01*
X284636Y179574D01*
X284612Y179762D01*
X284590Y179947D01*
X284586Y179960D01*
X284584Y179973D01*
X284483Y180289D01*
X284084Y181251D01*
X284084Y183869D01*
X285086Y186288D01*
X286937Y188139D01*
X289356Y189141D01*
X291974Y189141D01*
X294393Y188139D01*
X296244Y186288D01*
X297246Y183869D01*
X297246Y183576D01*
X297248Y183558D01*
X297246Y183540D01*
X297267Y183358D01*
X297286Y183175D01*
X297291Y183158D01*
X297293Y183141D01*
X297350Y182966D01*
X297404Y182790D01*
X297412Y182775D01*
X297418Y182758D01*
X297508Y182598D01*
X297596Y182436D01*
X297607Y182423D01*
X297616Y182407D01*
X297736Y182268D01*
X297853Y182127D01*
X297867Y182116D01*
X297879Y182102D01*
X298024Y181990D01*
X298167Y181875D01*
X298183Y181867D01*
X298197Y181856D01*
X298362Y181774D01*
X298524Y181689D01*
X298541Y181684D01*
X298557Y181676D01*
X298736Y181629D01*
X298911Y181578D01*
X298929Y181576D01*
X298946Y181572D01*
X299277Y181545D01*
X500756Y181545D01*
X500783Y181547D01*
X500809Y181545D01*
X500983Y181567D01*
X501157Y181585D01*
X501182Y181592D01*
X501209Y181596D01*
X501374Y181651D01*
X501542Y181703D01*
X501565Y181716D01*
X501590Y181724D01*
X501742Y181811D01*
X501896Y181895D01*
X501916Y181912D01*
X501939Y181925D01*
X502192Y182140D01*
X521917Y201865D01*
X545188Y201865D01*
X639537Y107516D01*
X639551Y107504D01*
X639562Y107491D01*
X639706Y107377D01*
X639848Y107261D01*
X639864Y107252D01*
X639878Y107241D01*
X640042Y107158D01*
X640204Y107072D01*
X640221Y107067D01*
X640237Y107059D01*
X640414Y107009D01*
X640590Y106957D01*
X640608Y106956D01*
X640625Y106951D01*
X640808Y106937D01*
X640991Y106921D01*
X641009Y106923D01*
X641026Y106921D01*
X641208Y106944D01*
X641391Y106964D01*
X641408Y106970D01*
X641426Y106972D01*
X641599Y107030D01*
X641775Y107086D01*
X641791Y107094D01*
X641807Y107100D01*
X641967Y107192D01*
X642127Y107280D01*
X642141Y107292D01*
X642156Y107301D01*
X642246Y107377D01*
X651530Y107377D01*
X658077Y100830D01*
X658077Y91570D01*
X651443Y84936D01*
X651431Y84922D01*
X651418Y84911D01*
X651304Y84767D01*
X651188Y84625D01*
X651179Y84609D01*
X651168Y84595D01*
X651085Y84431D01*
X650999Y84269D01*
X650994Y84252D01*
X650986Y84236D01*
X650936Y84059D01*
X650884Y83883D01*
X650882Y83865D01*
X650878Y83848D01*
X650864Y83665D01*
X650848Y83482D01*
X650850Y83464D01*
X650848Y83447D01*
X650871Y83265D01*
X650891Y83082D01*
X650896Y83065D01*
X650899Y83047D01*
X650957Y82873D01*
X651013Y82698D01*
X651021Y82682D01*
X651027Y82666D01*
X651119Y82506D01*
X651207Y82346D01*
X651219Y82332D01*
X651228Y82317D01*
X651443Y82064D01*
X658077Y75430D01*
X658077Y66170D01*
X651530Y59623D01*
X642270Y59623D01*
X635636Y66257D01*
X635623Y66269D01*
X635611Y66282D01*
X635467Y66396D01*
X635325Y66512D01*
X635309Y66521D01*
X635295Y66532D01*
X635131Y66615D01*
X634969Y66701D01*
X634952Y66706D01*
X634936Y66714D01*
X634759Y66764D01*
X634583Y66816D01*
X634565Y66818D01*
X634548Y66822D01*
X634365Y66836D01*
X634182Y66852D01*
X634164Y66850D01*
X634147Y66852D01*
X633965Y66829D01*
X633782Y66809D01*
X633765Y66803D01*
X633747Y66801D01*
X633574Y66743D01*
X633398Y66687D01*
X633382Y66679D01*
X633366Y66673D01*
X633206Y66581D01*
X633046Y66493D01*
X633032Y66481D01*
X633017Y66472D01*
X632764Y66257D01*
X626130Y59623D01*
X616870Y59623D01*
X610236Y66257D01*
X610223Y66269D01*
X610211Y66282D01*
X610067Y66396D01*
X609925Y66512D01*
X609909Y66521D01*
X609895Y66532D01*
X609731Y66615D01*
X609569Y66701D01*
X609552Y66706D01*
X609536Y66714D01*
X609359Y66764D01*
X609183Y66816D01*
X609165Y66818D01*
X609148Y66822D01*
X608965Y66836D01*
X608782Y66852D01*
X608764Y66850D01*
X608747Y66852D01*
X608565Y66829D01*
X608382Y66809D01*
X608365Y66803D01*
X608347Y66801D01*
X608174Y66743D01*
X607998Y66687D01*
X607982Y66679D01*
X607966Y66673D01*
X607806Y66581D01*
X607646Y66493D01*
X607632Y66481D01*
X607617Y66472D01*
X607364Y66257D01*
X600730Y59623D01*
X591470Y59623D01*
X584836Y66257D01*
X584823Y66269D01*
X584811Y66282D01*
X584667Y66396D01*
X584525Y66512D01*
X584509Y66521D01*
X584495Y66532D01*
X584331Y66615D01*
X584169Y66701D01*
X584152Y66706D01*
X584136Y66714D01*
X583959Y66764D01*
X583783Y66816D01*
X583765Y66818D01*
X583748Y66822D01*
X583565Y66836D01*
X583382Y66852D01*
X583364Y66850D01*
X583347Y66852D01*
X583165Y66829D01*
X582982Y66809D01*
X582965Y66803D01*
X582947Y66801D01*
X582774Y66743D01*
X582598Y66687D01*
X582582Y66679D01*
X582566Y66673D01*
X582406Y66581D01*
X582246Y66493D01*
X582232Y66481D01*
X582217Y66472D01*
X581964Y66257D01*
X575330Y59623D01*
X566070Y59623D01*
X559436Y66257D01*
X559423Y66269D01*
X559411Y66282D01*
X559267Y66396D01*
X559125Y66512D01*
X559109Y66521D01*
X559095Y66532D01*
X558931Y66615D01*
X558769Y66701D01*
X558752Y66706D01*
X558736Y66714D01*
X558559Y66764D01*
X558383Y66816D01*
X558365Y66818D01*
X558348Y66822D01*
X558165Y66836D01*
X557982Y66852D01*
X557964Y66850D01*
X557947Y66852D01*
X557765Y66829D01*
X557582Y66809D01*
X557565Y66803D01*
X557547Y66801D01*
X557374Y66743D01*
X557198Y66687D01*
X557182Y66679D01*
X557166Y66673D01*
X557006Y66581D01*
X556846Y66493D01*
X556832Y66481D01*
X556817Y66472D01*
X556564Y66257D01*
X549930Y59623D01*
X540670Y59623D01*
X534036Y66257D01*
X534023Y66269D01*
X534011Y66282D01*
X533867Y66396D01*
X533725Y66512D01*
X533709Y66521D01*
X533695Y66532D01*
X533531Y66615D01*
X533369Y66701D01*
X533352Y66706D01*
X533336Y66714D01*
X533159Y66764D01*
X532983Y66816D01*
X532965Y66818D01*
X532948Y66822D01*
X532765Y66836D01*
X532582Y66852D01*
X532564Y66850D01*
X532547Y66852D01*
X532365Y66829D01*
X532182Y66809D01*
X532165Y66803D01*
X532147Y66801D01*
X531974Y66743D01*
X531798Y66687D01*
X531782Y66679D01*
X531766Y66673D01*
X531606Y66581D01*
X531446Y66493D01*
X531432Y66481D01*
X531417Y66472D01*
X531164Y66257D01*
X524530Y59623D01*
X515270Y59623D01*
X508636Y66257D01*
X508623Y66269D01*
X508611Y66282D01*
X508467Y66396D01*
X508325Y66512D01*
X508309Y66521D01*
X508295Y66532D01*
X508131Y66615D01*
X507969Y66701D01*
X507952Y66706D01*
X507936Y66714D01*
X507759Y66764D01*
X507583Y66816D01*
X507565Y66818D01*
X507548Y66822D01*
X507365Y66836D01*
X507182Y66852D01*
X507164Y66850D01*
X507147Y66852D01*
X506965Y66829D01*
X506782Y66809D01*
X506765Y66803D01*
X506747Y66801D01*
X506574Y66743D01*
X506398Y66687D01*
X506382Y66679D01*
X506366Y66673D01*
X506206Y66581D01*
X506046Y66493D01*
X506032Y66481D01*
X506017Y66472D01*
X505764Y66257D01*
X499130Y59623D01*
X489870Y59623D01*
X483236Y66257D01*
X483223Y66269D01*
X483211Y66282D01*
X483067Y66396D01*
X482925Y66512D01*
X482909Y66521D01*
X482895Y66532D01*
X482731Y66615D01*
X482569Y66701D01*
X482552Y66706D01*
X482536Y66714D01*
X482359Y66764D01*
X482183Y66816D01*
X482165Y66818D01*
X482148Y66822D01*
X481965Y66836D01*
X481782Y66852D01*
X481764Y66850D01*
X481747Y66852D01*
X481565Y66829D01*
X481382Y66809D01*
X481365Y66803D01*
X481347Y66801D01*
X481174Y66743D01*
X480998Y66687D01*
X480982Y66679D01*
X480966Y66673D01*
X480806Y66581D01*
X480646Y66493D01*
X480632Y66481D01*
X480617Y66472D01*
X480364Y66257D01*
X473730Y59623D01*
X464470Y59623D01*
X457923Y66170D01*
X457923Y75460D01*
X458039Y75602D01*
X458048Y75618D01*
X458059Y75632D01*
X458142Y75795D01*
X458228Y75958D01*
X458233Y75975D01*
X458241Y75991D01*
X458291Y76168D01*
X458343Y76344D01*
X458344Y76361D01*
X458349Y76379D01*
X458363Y76562D01*
X458379Y76745D01*
X458377Y76762D01*
X458379Y76780D01*
X458356Y76963D01*
X458336Y77145D01*
X458330Y77162D01*
X458328Y77180D01*
X458270Y77354D01*
X458214Y77529D01*
X458206Y77544D01*
X458200Y77561D01*
X458108Y77721D01*
X458020Y77881D01*
X458008Y77895D01*
X457999Y77910D01*
X457784Y78163D01*
X448525Y87422D01*
X448525Y119601D01*
X448523Y119628D01*
X448525Y119654D01*
X448503Y119828D01*
X448485Y120002D01*
X448478Y120027D01*
X448474Y120054D01*
X448419Y120219D01*
X448367Y120387D01*
X448354Y120410D01*
X448346Y120435D01*
X448259Y120587D01*
X448175Y120741D01*
X448158Y120761D01*
X448145Y120784D01*
X447930Y121037D01*
X419007Y149960D01*
X418987Y149977D01*
X418969Y149998D01*
X418831Y150105D01*
X418696Y150215D01*
X418672Y150228D01*
X418651Y150244D01*
X418494Y150322D01*
X418340Y150404D01*
X418315Y150412D01*
X418291Y150424D01*
X418121Y150469D01*
X417954Y150519D01*
X417928Y150521D01*
X417902Y150528D01*
X417571Y150555D01*
X410326Y150555D01*
X410313Y150554D01*
X410299Y150555D01*
X410113Y150534D01*
X409926Y150515D01*
X409913Y150511D01*
X409899Y150510D01*
X409721Y150452D01*
X409541Y150397D01*
X409529Y150391D01*
X409516Y150387D01*
X409352Y150295D01*
X409187Y150205D01*
X409176Y150197D01*
X409165Y150190D01*
X409022Y150068D01*
X408877Y149948D01*
X408869Y149937D01*
X408859Y149929D01*
X408743Y149780D01*
X408625Y149634D01*
X408619Y149622D01*
X408611Y149612D01*
X408526Y149443D01*
X408440Y149277D01*
X408436Y149264D01*
X408430Y149252D01*
X408380Y149069D01*
X408328Y148890D01*
X408327Y148876D01*
X408323Y148863D01*
X408311Y148677D01*
X408295Y148488D01*
X408297Y148475D01*
X408296Y148462D01*
X408320Y148276D01*
X408342Y148089D01*
X408346Y148076D01*
X408348Y148063D01*
X408450Y147747D01*
X409006Y146404D01*
X409006Y143786D01*
X408676Y142991D01*
X408667Y142961D01*
X408653Y142933D01*
X408609Y142768D01*
X408560Y142605D01*
X408557Y142574D01*
X408549Y142544D01*
X408522Y142213D01*
X408522Y107850D01*
X408523Y107841D01*
X408522Y107832D01*
X408543Y107641D01*
X408562Y107450D01*
X408564Y107441D01*
X408565Y107432D01*
X408623Y107250D01*
X408680Y107065D01*
X408684Y107057D01*
X408687Y107048D01*
X408780Y106880D01*
X408872Y106711D01*
X408877Y106704D01*
X408882Y106696D01*
X409008Y106547D01*
X409129Y106401D01*
X409136Y106396D01*
X409142Y106389D01*
X409294Y106269D01*
X409443Y106149D01*
X409451Y106145D01*
X409458Y106139D01*
X409630Y106052D01*
X409800Y105964D01*
X409809Y105961D01*
X409817Y105957D01*
X410003Y105905D01*
X410187Y105852D01*
X410196Y105851D01*
X410205Y105849D01*
X410397Y105835D01*
X410589Y105819D01*
X410597Y105820D01*
X410606Y105820D01*
X410799Y105844D01*
X410988Y105866D01*
X410997Y105869D01*
X411006Y105870D01*
X411189Y105932D01*
X411371Y105991D01*
X411379Y105996D01*
X411387Y105998D01*
X411553Y106094D01*
X411722Y106189D01*
X411729Y106195D01*
X411736Y106199D01*
X411989Y106414D01*
X413460Y107885D01*
X415761Y107885D01*
X415761Y96708D01*
X415762Y96690D01*
X415761Y96673D01*
X415782Y96490D01*
X415801Y96308D01*
X415806Y96291D01*
X415808Y96273D01*
X415865Y96098D01*
X415919Y95923D01*
X415927Y95907D01*
X415933Y95890D01*
X416023Y95730D01*
X416110Y95569D01*
X416122Y95555D01*
X416131Y95539D01*
X416251Y95400D01*
X416368Y95259D01*
X416382Y95248D01*
X416394Y95235D01*
X416539Y95122D01*
X416682Y95007D01*
X416698Y94999D01*
X416712Y94988D01*
X416877Y94906D01*
X416953Y94866D01*
X417039Y94714D01*
X417127Y94552D01*
X417138Y94539D01*
X417147Y94523D01*
X417267Y94384D01*
X417385Y94243D01*
X417398Y94232D01*
X417410Y94218D01*
X417555Y94106D01*
X417698Y93991D01*
X417714Y93983D01*
X417728Y93972D01*
X417893Y93890D01*
X418056Y93805D01*
X418073Y93800D01*
X418089Y93792D01*
X418267Y93744D01*
X418442Y93694D01*
X418460Y93692D01*
X418477Y93688D01*
X418808Y93661D01*
X429985Y93661D01*
X429985Y91360D01*
X423202Y84577D01*
X423190Y84563D01*
X423177Y84552D01*
X423063Y84408D01*
X422947Y84266D01*
X422938Y84250D01*
X422927Y84236D01*
X422844Y84072D01*
X422758Y83910D01*
X422753Y83893D01*
X422745Y83877D01*
X422696Y83700D01*
X422643Y83524D01*
X422642Y83506D01*
X422637Y83489D01*
X422623Y83306D01*
X422607Y83123D01*
X422609Y83105D01*
X422608Y83087D01*
X422630Y82905D01*
X422650Y82723D01*
X422656Y82706D01*
X422658Y82688D01*
X422716Y82514D01*
X422772Y82339D01*
X422780Y82323D01*
X422786Y82306D01*
X422878Y82147D01*
X422967Y81987D01*
X422978Y81973D01*
X422987Y81957D01*
X423202Y81704D01*
X429477Y75430D01*
X429477Y66170D01*
X422930Y59623D01*
X413670Y59623D01*
X407036Y66257D01*
X407022Y66269D01*
X407011Y66282D01*
X406867Y66396D01*
X406725Y66512D01*
X406709Y66521D01*
X406695Y66532D01*
X406531Y66615D01*
X406369Y66701D01*
X406352Y66706D01*
X406336Y66714D01*
X406159Y66764D01*
X405983Y66816D01*
X405965Y66818D01*
X405948Y66822D01*
X405765Y66836D01*
X405582Y66852D01*
X405564Y66850D01*
X405547Y66852D01*
X405365Y66829D01*
X405182Y66809D01*
X405165Y66804D01*
X405147Y66801D01*
X404973Y66743D01*
X404798Y66687D01*
X404782Y66679D01*
X404766Y66673D01*
X404606Y66581D01*
X404446Y66493D01*
X404432Y66481D01*
X404417Y66472D01*
X404164Y66257D01*
X397530Y59623D01*
X388270Y59623D01*
X381636Y66257D01*
X381622Y66269D01*
X381611Y66282D01*
X381467Y66396D01*
X381325Y66512D01*
X381309Y66521D01*
X381295Y66532D01*
X381131Y66615D01*
X380969Y66701D01*
X380952Y66706D01*
X380936Y66714D01*
X380759Y66764D01*
X380583Y66816D01*
X380565Y66818D01*
X380548Y66822D01*
X380365Y66836D01*
X380182Y66852D01*
X380164Y66850D01*
X380147Y66852D01*
X379965Y66829D01*
X379782Y66809D01*
X379765Y66804D01*
X379747Y66801D01*
X379573Y66743D01*
X379398Y66687D01*
X379382Y66679D01*
X379366Y66673D01*
X379206Y66581D01*
X379046Y66493D01*
X379032Y66481D01*
X379017Y66472D01*
X378764Y66257D01*
X372130Y59623D01*
X362870Y59623D01*
X356236Y66257D01*
X356222Y66269D01*
X356211Y66282D01*
X356067Y66396D01*
X355925Y66512D01*
X355909Y66521D01*
X355895Y66532D01*
X355731Y66615D01*
X355569Y66701D01*
X355552Y66706D01*
X355536Y66714D01*
X355359Y66764D01*
X355183Y66816D01*
X355165Y66818D01*
X355148Y66822D01*
X354965Y66836D01*
X354782Y66852D01*
X354764Y66850D01*
X354747Y66852D01*
X354565Y66829D01*
X354382Y66809D01*
X354365Y66804D01*
X354347Y66801D01*
X354173Y66743D01*
X353998Y66687D01*
X353982Y66679D01*
X353966Y66673D01*
X353806Y66581D01*
X353646Y66493D01*
X353632Y66481D01*
X353617Y66472D01*
X353364Y66257D01*
X346730Y59623D01*
X337470Y59623D01*
X330836Y66257D01*
X330822Y66269D01*
X330811Y66282D01*
X330667Y66396D01*
X330525Y66512D01*
X330509Y66521D01*
X330495Y66532D01*
X330331Y66615D01*
X330169Y66701D01*
X330152Y66706D01*
X330136Y66714D01*
X329959Y66764D01*
X329783Y66816D01*
X329765Y66818D01*
X329748Y66822D01*
X329565Y66836D01*
X329382Y66852D01*
X329364Y66850D01*
X329347Y66852D01*
X329165Y66829D01*
X328982Y66809D01*
X328965Y66804D01*
X328947Y66801D01*
X328773Y66743D01*
X328598Y66687D01*
X328582Y66679D01*
X328566Y66673D01*
X328406Y66581D01*
X328246Y66493D01*
X328232Y66481D01*
X328217Y66472D01*
X327964Y66257D01*
X321330Y59623D01*
X312070Y59623D01*
G37*
%LPD*%
%LPC*%
G36*
X679411Y394739D02*
X679411Y394739D01*
X676992Y395741D01*
X675141Y397592D01*
X674139Y400011D01*
X674139Y402629D01*
X674582Y403698D01*
X674589Y403719D01*
X674599Y403739D01*
X674647Y403912D01*
X674698Y404083D01*
X674701Y404105D01*
X674707Y404127D01*
X674720Y404307D01*
X674737Y404484D01*
X674734Y404506D01*
X674736Y404529D01*
X674714Y404707D01*
X674695Y404885D01*
X674688Y404906D01*
X674686Y404928D01*
X674629Y405098D01*
X674575Y405269D01*
X674564Y405289D01*
X674557Y405310D01*
X674468Y405464D01*
X674382Y405622D01*
X674368Y405639D01*
X674356Y405659D01*
X674142Y405912D01*
X672816Y407238D01*
X672815Y407238D01*
X670583Y409470D01*
X670583Y515786D01*
X687184Y532387D01*
X687196Y532401D01*
X687209Y532412D01*
X687323Y532556D01*
X687439Y532698D01*
X687448Y532714D01*
X687459Y532728D01*
X687542Y532892D01*
X687628Y533054D01*
X687633Y533071D01*
X687641Y533087D01*
X687691Y533264D01*
X687743Y533440D01*
X687744Y533458D01*
X687749Y533475D01*
X687763Y533658D01*
X687779Y533841D01*
X687777Y533859D01*
X687779Y533876D01*
X687756Y534058D01*
X687736Y534241D01*
X687730Y534258D01*
X687728Y534276D01*
X687670Y534449D01*
X687614Y534625D01*
X687606Y534641D01*
X687600Y534657D01*
X687508Y534817D01*
X687420Y534977D01*
X687408Y534991D01*
X687399Y535006D01*
X687323Y535096D01*
X687323Y544380D01*
X693957Y551014D01*
X693969Y551028D01*
X693982Y551039D01*
X694096Y551183D01*
X694212Y551325D01*
X694221Y551341D01*
X694232Y551355D01*
X694315Y551519D01*
X694401Y551681D01*
X694406Y551698D01*
X694414Y551714D01*
X694464Y551891D01*
X694516Y552067D01*
X694518Y552085D01*
X694522Y552102D01*
X694536Y552285D01*
X694552Y552468D01*
X694550Y552486D01*
X694552Y552503D01*
X694529Y552685D01*
X694509Y552868D01*
X694504Y552885D01*
X694501Y552903D01*
X694443Y553077D01*
X694387Y553252D01*
X694379Y553268D01*
X694373Y553284D01*
X694281Y553444D01*
X694193Y553604D01*
X694181Y553618D01*
X694172Y553633D01*
X693957Y553886D01*
X687323Y560520D01*
X687323Y569780D01*
X693870Y576327D01*
X703130Y576327D01*
X709764Y569693D01*
X709778Y569681D01*
X709789Y569668D01*
X709933Y569554D01*
X710075Y569438D01*
X710091Y569429D01*
X710105Y569418D01*
X710269Y569335D01*
X710431Y569249D01*
X710448Y569244D01*
X710464Y569236D01*
X710641Y569186D01*
X710817Y569134D01*
X710835Y569132D01*
X710852Y569128D01*
X711035Y569114D01*
X711218Y569098D01*
X711236Y569100D01*
X711253Y569098D01*
X711435Y569121D01*
X711618Y569141D01*
X711635Y569146D01*
X711653Y569149D01*
X711827Y569207D01*
X712002Y569263D01*
X712018Y569271D01*
X712034Y569277D01*
X712194Y569369D01*
X712354Y569457D01*
X712368Y569469D01*
X712383Y569478D01*
X712636Y569693D01*
X719270Y576327D01*
X728530Y576327D01*
X735397Y569459D01*
X735502Y569373D01*
X735601Y569281D01*
X735657Y569246D01*
X735709Y569204D01*
X735828Y569141D01*
X735943Y569070D01*
X736006Y569046D01*
X736064Y569015D01*
X736194Y568977D01*
X736321Y568930D01*
X736387Y568919D01*
X736450Y568901D01*
X736585Y568888D01*
X736719Y568867D01*
X736785Y568870D01*
X736851Y568864D01*
X736986Y568879D01*
X737121Y568884D01*
X737185Y568900D01*
X737252Y568908D01*
X737381Y568948D01*
X737512Y568981D01*
X737572Y569009D01*
X737635Y569029D01*
X737754Y569094D01*
X737876Y569152D01*
X737930Y569192D01*
X737988Y569224D01*
X738091Y569311D01*
X738199Y569392D01*
X738244Y569441D01*
X738295Y569484D01*
X738379Y569590D01*
X738469Y569691D01*
X738509Y569756D01*
X738544Y569800D01*
X738580Y569870D01*
X738643Y569973D01*
X739306Y571274D01*
X740387Y572762D01*
X741688Y574063D01*
X743176Y575144D01*
X744814Y575979D01*
X746564Y576547D01*
X746761Y576578D01*
X746761Y565658D01*
X746762Y565640D01*
X746761Y565623D01*
X746782Y565440D01*
X746801Y565258D01*
X746806Y565241D01*
X746808Y565223D01*
X746865Y565048D01*
X746919Y564873D01*
X746927Y564857D01*
X746933Y564840D01*
X747023Y564680D01*
X747110Y564519D01*
X747122Y564505D01*
X747131Y564489D01*
X747251Y564350D01*
X747368Y564209D01*
X747382Y564198D01*
X747394Y564185D01*
X747539Y564072D01*
X747682Y563957D01*
X747698Y563949D01*
X747712Y563938D01*
X747877Y563856D01*
X747953Y563816D01*
X748039Y563664D01*
X748127Y563502D01*
X748138Y563489D01*
X748147Y563473D01*
X748267Y563334D01*
X748385Y563193D01*
X748398Y563182D01*
X748410Y563168D01*
X748555Y563056D01*
X748698Y562941D01*
X748714Y562933D01*
X748728Y562922D01*
X748893Y562840D01*
X749056Y562755D01*
X749073Y562750D01*
X749089Y562742D01*
X749267Y562694D01*
X749442Y562644D01*
X749460Y562642D01*
X749477Y562638D01*
X749808Y562611D01*
X760728Y562611D01*
X760697Y562414D01*
X760129Y560664D01*
X759294Y559026D01*
X758213Y557538D01*
X756912Y556237D01*
X755424Y555156D01*
X754123Y554493D01*
X754009Y554420D01*
X753891Y554355D01*
X753840Y554312D01*
X753784Y554276D01*
X753687Y554182D01*
X753584Y554095D01*
X753543Y554042D01*
X753495Y553996D01*
X753418Y553885D01*
X753334Y553779D01*
X753304Y553719D01*
X753267Y553664D01*
X753213Y553540D01*
X753152Y553420D01*
X753134Y553356D01*
X753108Y553294D01*
X753080Y553162D01*
X753044Y553032D01*
X753039Y552965D01*
X753026Y552900D01*
X753025Y552765D01*
X753015Y552630D01*
X753023Y552564D01*
X753023Y552498D01*
X753048Y552365D01*
X753065Y552231D01*
X753086Y552168D01*
X753099Y552102D01*
X753150Y551977D01*
X753193Y551849D01*
X753227Y551791D01*
X753252Y551730D01*
X753327Y551618D01*
X753394Y551500D01*
X753444Y551442D01*
X753475Y551395D01*
X753531Y551339D01*
X753609Y551247D01*
X760477Y544380D01*
X760477Y535120D01*
X753930Y528573D01*
X744670Y528573D01*
X738036Y535207D01*
X738023Y535219D01*
X738011Y535232D01*
X737867Y535346D01*
X737725Y535462D01*
X737709Y535471D01*
X737695Y535482D01*
X737531Y535565D01*
X737369Y535651D01*
X737352Y535656D01*
X737336Y535664D01*
X737159Y535714D01*
X736983Y535766D01*
X736965Y535768D01*
X736948Y535772D01*
X736765Y535786D01*
X736582Y535802D01*
X736564Y535800D01*
X736547Y535802D01*
X736365Y535779D01*
X736182Y535759D01*
X736165Y535753D01*
X736147Y535751D01*
X735974Y535693D01*
X735798Y535637D01*
X735782Y535629D01*
X735766Y535623D01*
X735606Y535531D01*
X735446Y535443D01*
X735432Y535431D01*
X735417Y535422D01*
X735164Y535207D01*
X728530Y528573D01*
X719240Y528573D01*
X719098Y528689D01*
X719082Y528698D01*
X719068Y528709D01*
X718904Y528792D01*
X718742Y528878D01*
X718725Y528883D01*
X718709Y528891D01*
X718532Y528941D01*
X718356Y528993D01*
X718338Y528994D01*
X718321Y528999D01*
X718138Y529013D01*
X717955Y529029D01*
X717937Y529027D01*
X717920Y529029D01*
X717738Y529006D01*
X717555Y528986D01*
X717538Y528980D01*
X717520Y528978D01*
X717347Y528920D01*
X717171Y528864D01*
X717155Y528856D01*
X717139Y528850D01*
X716979Y528758D01*
X716819Y528670D01*
X716805Y528658D01*
X716790Y528649D01*
X716537Y528434D01*
X686650Y498547D01*
X686633Y498527D01*
X686612Y498509D01*
X686505Y498371D01*
X686395Y498236D01*
X686382Y498212D01*
X686366Y498191D01*
X686288Y498034D01*
X686206Y497880D01*
X686198Y497855D01*
X686186Y497831D01*
X686141Y497661D01*
X686091Y497494D01*
X686089Y497468D01*
X686082Y497442D01*
X686055Y497111D01*
X686055Y439412D01*
X686058Y439381D01*
X686056Y439350D01*
X686078Y439181D01*
X686095Y439012D01*
X686104Y438982D01*
X686108Y438951D01*
X686209Y438635D01*
X687301Y436000D01*
X687301Y433382D01*
X686299Y430964D01*
X684448Y429112D01*
X682029Y428110D01*
X679411Y428110D01*
X678981Y428288D01*
X678968Y428292D01*
X678957Y428298D01*
X678776Y428350D01*
X678596Y428405D01*
X678583Y428406D01*
X678570Y428410D01*
X678381Y428425D01*
X678195Y428443D01*
X678182Y428442D01*
X678168Y428443D01*
X677982Y428421D01*
X677795Y428401D01*
X677782Y428397D01*
X677769Y428396D01*
X677590Y428338D01*
X677410Y428282D01*
X677399Y428275D01*
X677386Y428271D01*
X677222Y428178D01*
X677057Y428088D01*
X677047Y428080D01*
X677035Y428073D01*
X676893Y427950D01*
X676749Y427829D01*
X676741Y427819D01*
X676730Y427810D01*
X676616Y427662D01*
X676498Y427514D01*
X676492Y427502D01*
X676484Y427492D01*
X676400Y427324D01*
X676314Y427156D01*
X676310Y427143D01*
X676304Y427131D01*
X676255Y426949D01*
X676204Y426769D01*
X676203Y426756D01*
X676200Y426743D01*
X676173Y426412D01*
X676173Y412627D01*
X676175Y412600D01*
X676173Y412573D01*
X676195Y412399D01*
X676213Y412226D01*
X676220Y412200D01*
X676224Y412174D01*
X676279Y412008D01*
X676331Y411841D01*
X676344Y411817D01*
X676352Y411792D01*
X676439Y411641D01*
X676523Y411487D01*
X676540Y411467D01*
X676553Y411443D01*
X676768Y411190D01*
X679462Y408496D01*
X679483Y408479D01*
X679500Y408458D01*
X679638Y408351D01*
X679774Y408241D01*
X679797Y408228D01*
X679819Y408212D01*
X679976Y408134D01*
X680130Y408052D01*
X680155Y408044D01*
X680179Y408032D01*
X680349Y407987D01*
X680515Y407937D01*
X680542Y407935D01*
X680568Y407928D01*
X680899Y407901D01*
X682029Y407901D01*
X684448Y406899D01*
X686299Y405048D01*
X687301Y402629D01*
X687301Y400011D01*
X686299Y397592D01*
X684448Y395741D01*
X682029Y394739D01*
X679411Y394739D01*
G37*
%LPD*%
%LPC*%
G36*
X26634Y569528D02*
X26634Y569528D01*
X17464Y575519D01*
X10736Y584163D01*
X7179Y594523D01*
X7179Y605477D01*
X10736Y615837D01*
X17464Y624481D01*
X26634Y630472D01*
X37252Y633161D01*
X48168Y632256D01*
X58200Y627856D01*
X66258Y620438D01*
X71472Y610804D01*
X73275Y600000D01*
X71472Y589196D01*
X66258Y579562D01*
X58200Y572144D01*
X48168Y567744D01*
X37252Y566839D01*
X26634Y569528D01*
G37*
%LPD*%
%LPC*%
G36*
X26634Y9528D02*
X26634Y9528D01*
X17464Y15519D01*
X10736Y24163D01*
X7179Y34523D01*
X7179Y45477D01*
X10736Y55837D01*
X17464Y64481D01*
X26634Y70472D01*
X37252Y73161D01*
X48168Y72256D01*
X58200Y67856D01*
X66258Y60438D01*
X71472Y50804D01*
X73275Y40000D01*
X71472Y29196D01*
X66258Y19562D01*
X58200Y12144D01*
X48168Y7744D01*
X37252Y6839D01*
X26634Y9528D01*
G37*
%LPD*%
%LPC*%
G36*
X796634Y569528D02*
X796634Y569528D01*
X787464Y575519D01*
X780736Y584163D01*
X777179Y594523D01*
X777179Y605477D01*
X780736Y615837D01*
X787464Y624481D01*
X796634Y630472D01*
X807252Y633161D01*
X818168Y632256D01*
X828200Y627856D01*
X836258Y620438D01*
X841472Y610804D01*
X843275Y600000D01*
X841472Y589196D01*
X836258Y579562D01*
X828200Y572144D01*
X818168Y567744D01*
X807252Y566839D01*
X796634Y569528D01*
G37*
%LPD*%
%LPC*%
G36*
X796634Y9528D02*
X796634Y9528D01*
X787464Y15519D01*
X780736Y24163D01*
X777179Y34523D01*
X777179Y45477D01*
X780736Y55837D01*
X787464Y64481D01*
X796634Y70472D01*
X807252Y73161D01*
X818168Y72256D01*
X828200Y67856D01*
X836258Y60438D01*
X841472Y50804D01*
X843275Y40000D01*
X841472Y29196D01*
X836258Y19562D01*
X828200Y12144D01*
X818168Y7744D01*
X807252Y6839D01*
X796634Y9528D01*
G37*
%LPD*%
%LPC*%
G36*
X750108Y71886D02*
X750108Y71886D01*
X750090Y71888D01*
X750073Y71892D01*
X749742Y71919D01*
X725358Y71919D01*
X725340Y71917D01*
X725323Y71919D01*
X725140Y71898D01*
X724958Y71879D01*
X724941Y71874D01*
X724923Y71872D01*
X724845Y71847D01*
X724708Y71886D01*
X724690Y71888D01*
X724673Y71892D01*
X724342Y71919D01*
X699958Y71919D01*
X699940Y71917D01*
X699923Y71919D01*
X699740Y71898D01*
X699558Y71879D01*
X699541Y71874D01*
X699523Y71872D01*
X699445Y71847D01*
X699308Y71886D01*
X699290Y71888D01*
X699273Y71892D01*
X698942Y71919D01*
X688022Y71919D01*
X688053Y72116D01*
X688621Y73866D01*
X689456Y75504D01*
X690537Y76992D01*
X691838Y78293D01*
X693326Y79374D01*
X694627Y80037D01*
X694741Y80110D01*
X694859Y80175D01*
X694910Y80218D01*
X694966Y80254D01*
X695063Y80348D01*
X695166Y80435D01*
X695207Y80488D01*
X695255Y80534D01*
X695332Y80645D01*
X695416Y80751D01*
X695446Y80811D01*
X695483Y80866D01*
X695537Y80990D01*
X695598Y81110D01*
X695616Y81174D01*
X695642Y81236D01*
X695670Y81368D01*
X695706Y81498D01*
X695711Y81565D01*
X695724Y81630D01*
X695725Y81765D01*
X695735Y81900D01*
X695727Y81966D01*
X695727Y82032D01*
X695702Y82165D01*
X695685Y82299D01*
X695664Y82362D01*
X695651Y82428D01*
X695600Y82553D01*
X695557Y82681D01*
X695523Y82739D01*
X695498Y82800D01*
X695423Y82912D01*
X695356Y83030D01*
X695306Y83088D01*
X695275Y83135D01*
X695219Y83191D01*
X695141Y83283D01*
X688273Y90150D01*
X688273Y99410D01*
X694820Y105957D01*
X704080Y105957D01*
X710714Y99323D01*
X710727Y99311D01*
X710739Y99298D01*
X710883Y99184D01*
X711025Y99068D01*
X711041Y99059D01*
X711055Y99048D01*
X711219Y98965D01*
X711381Y98879D01*
X711398Y98874D01*
X711414Y98866D01*
X711591Y98816D01*
X711767Y98764D01*
X711785Y98762D01*
X711802Y98758D01*
X711985Y98744D01*
X712168Y98728D01*
X712186Y98730D01*
X712203Y98728D01*
X712385Y98751D01*
X712568Y98771D01*
X712585Y98777D01*
X712603Y98779D01*
X712776Y98837D01*
X712952Y98893D01*
X712968Y98901D01*
X712984Y98907D01*
X713144Y98999D01*
X713304Y99087D01*
X713318Y99099D01*
X713333Y99108D01*
X713586Y99323D01*
X720220Y105957D01*
X729480Y105957D01*
X736114Y99323D01*
X736127Y99311D01*
X736139Y99298D01*
X736283Y99184D01*
X736425Y99068D01*
X736441Y99059D01*
X736455Y99048D01*
X736619Y98965D01*
X736781Y98879D01*
X736798Y98874D01*
X736814Y98866D01*
X736991Y98816D01*
X737167Y98764D01*
X737185Y98762D01*
X737202Y98758D01*
X737385Y98744D01*
X737568Y98728D01*
X737586Y98730D01*
X737603Y98728D01*
X737785Y98751D01*
X737968Y98771D01*
X737985Y98777D01*
X738003Y98779D01*
X738176Y98837D01*
X738352Y98893D01*
X738368Y98901D01*
X738384Y98907D01*
X738544Y98999D01*
X738704Y99087D01*
X738718Y99099D01*
X738733Y99108D01*
X738986Y99323D01*
X745620Y105957D01*
X754880Y105957D01*
X761427Y99410D01*
X761427Y90150D01*
X755152Y83876D01*
X755140Y83862D01*
X755127Y83850D01*
X755013Y83706D01*
X754897Y83564D01*
X754888Y83548D01*
X754877Y83534D01*
X754794Y83370D01*
X754708Y83208D01*
X754703Y83191D01*
X754695Y83175D01*
X754646Y82998D01*
X754593Y82822D01*
X754592Y82805D01*
X754587Y82787D01*
X754573Y82604D01*
X754557Y82421D01*
X754559Y82404D01*
X754558Y82386D01*
X754580Y82204D01*
X754600Y82021D01*
X754606Y82004D01*
X754608Y81986D01*
X754666Y81813D01*
X754722Y81637D01*
X754730Y81622D01*
X754736Y81605D01*
X754828Y81445D01*
X754917Y81285D01*
X754928Y81271D01*
X754937Y81256D01*
X755152Y81003D01*
X761935Y74220D01*
X761935Y71919D01*
X750758Y71919D01*
X750740Y71917D01*
X750723Y71919D01*
X750540Y71898D01*
X750358Y71879D01*
X750341Y71874D01*
X750323Y71872D01*
X750245Y71847D01*
X750108Y71886D01*
G37*
%LPD*%
%LPC*%
G36*
X239191Y188679D02*
X239191Y188679D01*
X236772Y189681D01*
X234921Y191532D01*
X233919Y193951D01*
X233919Y196569D01*
X234921Y198988D01*
X235332Y199399D01*
X235349Y199420D01*
X235370Y199437D01*
X235477Y199575D01*
X235587Y199710D01*
X235600Y199734D01*
X235616Y199755D01*
X235694Y199912D01*
X235776Y200066D01*
X235784Y200092D01*
X235796Y200116D01*
X235841Y200285D01*
X235891Y200452D01*
X235893Y200479D01*
X235900Y200504D01*
X235927Y200835D01*
X235927Y211275D01*
X235925Y211301D01*
X235927Y211328D01*
X235905Y211502D01*
X235887Y211675D01*
X235880Y211701D01*
X235876Y211728D01*
X235821Y211893D01*
X235769Y212060D01*
X235756Y212084D01*
X235748Y212109D01*
X235661Y212261D01*
X235577Y212414D01*
X235560Y212435D01*
X235547Y212458D01*
X235332Y212711D01*
X234921Y213122D01*
X233919Y215541D01*
X233919Y218159D01*
X234921Y220578D01*
X236772Y222429D01*
X239191Y223431D01*
X241809Y223431D01*
X244228Y222429D01*
X246079Y220578D01*
X247081Y218159D01*
X247081Y215834D01*
X247083Y215816D01*
X247081Y215798D01*
X247102Y215616D01*
X247121Y215433D01*
X247126Y215416D01*
X247128Y215399D01*
X247185Y215224D01*
X247239Y215048D01*
X247247Y215033D01*
X247253Y215016D01*
X247343Y214856D01*
X247431Y214694D01*
X247442Y214681D01*
X247451Y214665D01*
X247571Y214526D01*
X247688Y214385D01*
X247702Y214374D01*
X247714Y214360D01*
X247859Y214248D01*
X248002Y214133D01*
X248018Y214125D01*
X248032Y214114D01*
X248197Y214032D01*
X248359Y213947D01*
X248376Y213942D01*
X248392Y213934D01*
X248571Y213887D01*
X248746Y213836D01*
X248764Y213834D01*
X248781Y213830D01*
X249112Y213803D01*
X373001Y213803D01*
X373028Y213805D01*
X373055Y213803D01*
X373228Y213825D01*
X373402Y213843D01*
X373427Y213850D01*
X373454Y213854D01*
X373620Y213909D01*
X373787Y213961D01*
X373810Y213974D01*
X373836Y213982D01*
X373987Y214069D01*
X374141Y214153D01*
X374161Y214170D01*
X374185Y214183D01*
X374438Y214398D01*
X376331Y216291D01*
X378841Y217331D01*
X381559Y217331D01*
X384069Y216291D01*
X385991Y214369D01*
X387031Y211859D01*
X387031Y209141D01*
X385991Y206631D01*
X384069Y204709D01*
X381559Y203669D01*
X378841Y203669D01*
X376331Y204709D01*
X374438Y206602D01*
X374417Y206619D01*
X374399Y206640D01*
X374261Y206747D01*
X374126Y206857D01*
X374102Y206870D01*
X374081Y206886D01*
X373924Y206964D01*
X373770Y207046D01*
X373745Y207054D01*
X373721Y207066D01*
X373551Y207111D01*
X373384Y207161D01*
X373358Y207163D01*
X373332Y207170D01*
X373001Y207197D01*
X244564Y207197D01*
X244546Y207195D01*
X244528Y207197D01*
X244346Y207176D01*
X244163Y207157D01*
X244146Y207152D01*
X244129Y207150D01*
X243954Y207093D01*
X243778Y207039D01*
X243763Y207031D01*
X243746Y207025D01*
X243586Y206935D01*
X243424Y206847D01*
X243411Y206836D01*
X243395Y206827D01*
X243256Y206707D01*
X243115Y206590D01*
X243104Y206576D01*
X243090Y206564D01*
X242978Y206419D01*
X242863Y206276D01*
X242855Y206260D01*
X242844Y206246D01*
X242762Y206081D01*
X242677Y205919D01*
X242672Y205902D01*
X242664Y205886D01*
X242617Y205707D01*
X242566Y205532D01*
X242564Y205514D01*
X242560Y205497D01*
X242533Y205166D01*
X242533Y202898D01*
X242535Y202876D01*
X242533Y202854D01*
X242555Y202676D01*
X242573Y202498D01*
X242579Y202476D01*
X242582Y202454D01*
X242638Y202284D01*
X242691Y202113D01*
X242701Y202093D01*
X242708Y202072D01*
X242797Y201916D01*
X242883Y201759D01*
X242897Y201741D01*
X242908Y201722D01*
X243026Y201587D01*
X243140Y201449D01*
X243158Y201435D01*
X243172Y201419D01*
X243315Y201309D01*
X243454Y201197D01*
X243474Y201187D01*
X243492Y201173D01*
X243787Y201022D01*
X244228Y200839D01*
X246079Y198988D01*
X247081Y196569D01*
X247081Y193951D01*
X246079Y191532D01*
X244228Y189681D01*
X241809Y188679D01*
X239191Y188679D01*
G37*
%LPD*%
%LPC*%
G36*
X618286Y285834D02*
X618286Y285834D01*
X615867Y286836D01*
X614016Y288687D01*
X613360Y290271D01*
X613349Y290291D01*
X613343Y290312D01*
X613254Y290469D01*
X613170Y290626D01*
X613156Y290643D01*
X613145Y290663D01*
X613027Y290799D01*
X612913Y290937D01*
X612896Y290951D01*
X612881Y290968D01*
X612740Y291077D01*
X612601Y291190D01*
X612581Y291201D01*
X612563Y291214D01*
X612403Y291294D01*
X612244Y291377D01*
X612223Y291384D01*
X612203Y291394D01*
X612030Y291440D01*
X611858Y291490D01*
X611836Y291492D01*
X611814Y291498D01*
X611483Y291525D01*
X559441Y291525D01*
X559415Y291523D01*
X559388Y291525D01*
X559214Y291503D01*
X559041Y291485D01*
X559015Y291478D01*
X558989Y291474D01*
X558823Y291419D01*
X558656Y291367D01*
X558632Y291354D01*
X558607Y291346D01*
X558455Y291259D01*
X558302Y291175D01*
X558281Y291158D01*
X558258Y291145D01*
X558005Y290930D01*
X556064Y288989D01*
X552376Y287461D01*
X548384Y287461D01*
X544696Y288989D01*
X541874Y291811D01*
X540346Y295499D01*
X540346Y299491D01*
X541874Y303179D01*
X544696Y306001D01*
X548384Y307529D01*
X552376Y307529D01*
X556064Y306001D01*
X558886Y303179D01*
X559826Y300909D01*
X559837Y300889D01*
X559844Y300868D01*
X559932Y300711D01*
X560017Y300554D01*
X560031Y300537D01*
X560042Y300517D01*
X560159Y300381D01*
X560273Y300243D01*
X560290Y300229D01*
X560305Y300212D01*
X560446Y300103D01*
X560586Y299990D01*
X560605Y299979D01*
X560623Y299966D01*
X560784Y299886D01*
X560942Y299803D01*
X560963Y299796D01*
X560984Y299786D01*
X561157Y299740D01*
X561329Y299690D01*
X561351Y299688D01*
X561372Y299682D01*
X561703Y299655D01*
X617229Y299655D01*
X618446Y299150D01*
X618476Y299141D01*
X618504Y299127D01*
X618669Y299083D01*
X618832Y299034D01*
X618862Y299031D01*
X618893Y299023D01*
X619223Y298996D01*
X620904Y298996D01*
X623323Y297994D01*
X625174Y296143D01*
X626176Y293724D01*
X626176Y291106D01*
X625174Y288687D01*
X623323Y286836D01*
X621830Y286218D01*
X620904Y285834D01*
X618286Y285834D01*
G37*
%LPD*%
%LPC*%
G36*
X785307Y461899D02*
X785307Y461899D01*
X782918Y462889D01*
X781089Y464718D01*
X780099Y467107D01*
X780099Y469693D01*
X781089Y472082D01*
X782918Y473911D01*
X785307Y474901D01*
X787893Y474901D01*
X790282Y473911D01*
X792111Y472082D01*
X793101Y469693D01*
X793101Y467107D01*
X792111Y464718D01*
X790282Y462889D01*
X787893Y461899D01*
X785307Y461899D01*
G37*
%LPD*%
%LPC*%
G36*
X785307Y417899D02*
X785307Y417899D01*
X782918Y418889D01*
X781089Y420718D01*
X780099Y423107D01*
X780099Y425693D01*
X781089Y428082D01*
X782918Y429911D01*
X785307Y430901D01*
X787893Y430901D01*
X790282Y429911D01*
X792111Y428082D01*
X793101Y425693D01*
X793101Y423107D01*
X792111Y420718D01*
X790282Y418889D01*
X788737Y418249D01*
X787893Y417899D01*
X785307Y417899D01*
G37*
%LPD*%
%LPC*%
G36*
X745410Y57695D02*
X745410Y57695D01*
X738986Y64119D01*
X738972Y64130D01*
X738961Y64144D01*
X738817Y64257D01*
X738675Y64374D01*
X738659Y64382D01*
X738645Y64394D01*
X738481Y64477D01*
X738319Y64563D01*
X738302Y64568D01*
X738286Y64576D01*
X738109Y64625D01*
X737933Y64677D01*
X737915Y64679D01*
X737898Y64684D01*
X737715Y64697D01*
X737532Y64714D01*
X737514Y64712D01*
X737497Y64713D01*
X737315Y64690D01*
X737132Y64670D01*
X737115Y64665D01*
X737097Y64663D01*
X736923Y64604D01*
X736748Y64549D01*
X736732Y64540D01*
X736716Y64535D01*
X736556Y64443D01*
X736396Y64354D01*
X736382Y64343D01*
X736367Y64334D01*
X736114Y64119D01*
X729690Y57695D01*
X727389Y57695D01*
X727389Y66841D01*
X747711Y66841D01*
X747711Y57695D01*
X745410Y57695D01*
G37*
%LPD*%
%LPC*%
G36*
X720010Y57695D02*
X720010Y57695D01*
X713110Y64595D01*
X713006Y64681D01*
X712907Y64773D01*
X712850Y64808D01*
X712799Y64850D01*
X712679Y64913D01*
X712564Y64984D01*
X712502Y65008D01*
X712443Y65039D01*
X712314Y65077D01*
X712187Y65124D01*
X712121Y65135D01*
X712057Y65154D01*
X711922Y65166D01*
X711789Y65187D01*
X711722Y65184D01*
X711656Y65190D01*
X711522Y65175D01*
X711387Y65170D01*
X711322Y65154D01*
X711256Y65147D01*
X711127Y65106D01*
X710996Y65073D01*
X710936Y65045D01*
X710872Y65025D01*
X710754Y64960D01*
X710631Y64902D01*
X710578Y64862D01*
X710520Y64830D01*
X710417Y64743D01*
X710308Y64662D01*
X710264Y64613D01*
X710213Y64570D01*
X710129Y64464D01*
X710038Y64363D01*
X709998Y64298D01*
X709963Y64254D01*
X709928Y64184D01*
X709864Y64081D01*
X709444Y63256D01*
X708363Y61768D01*
X707062Y60467D01*
X705574Y59386D01*
X703936Y58551D01*
X702186Y57983D01*
X701989Y57952D01*
X701989Y66841D01*
X722311Y66841D01*
X722311Y57695D01*
X720010Y57695D01*
G37*
%LPD*%
%LPC*%
G36*
X420839Y98739D02*
X420839Y98739D01*
X420839Y107885D01*
X423140Y107885D01*
X429985Y101040D01*
X429985Y98739D01*
X420839Y98739D01*
G37*
%LPD*%
%LPC*%
G36*
X752789Y57695D02*
X752789Y57695D01*
X752789Y66841D01*
X761935Y66841D01*
X761935Y64540D01*
X755090Y57695D01*
X752789Y57695D01*
G37*
%LPD*%
%LPC*%
G36*
X751839Y567689D02*
X751839Y567689D01*
X751839Y576578D01*
X752036Y576547D01*
X753786Y575979D01*
X755424Y575144D01*
X756912Y574063D01*
X758213Y572762D01*
X759294Y571274D01*
X760129Y569636D01*
X760697Y567886D01*
X760728Y567689D01*
X751839Y567689D01*
G37*
%LPD*%
%LPC*%
G36*
X696714Y57983D02*
X696714Y57983D01*
X694964Y58551D01*
X693326Y59386D01*
X691838Y60467D01*
X690537Y61768D01*
X689456Y63256D01*
X688621Y64894D01*
X688053Y66644D01*
X688022Y66841D01*
X696911Y66841D01*
X696911Y57952D01*
X696714Y57983D01*
G37*
%LPD*%
%LPC*%
G36*
X552411Y335086D02*
X552411Y335086D01*
X552411Y343597D01*
X554747Y343597D01*
X560922Y337422D01*
X560922Y335086D01*
X552411Y335086D01*
G37*
%LPD*%
%LPC*%
G36*
X539838Y335086D02*
X539838Y335086D01*
X539838Y337422D01*
X546013Y343597D01*
X548349Y343597D01*
X548349Y335086D01*
X539838Y335086D01*
G37*
%LPD*%
%LPC*%
G36*
X552411Y322513D02*
X552411Y322513D01*
X552411Y331024D01*
X560922Y331024D01*
X560922Y328688D01*
X554747Y322513D01*
X552411Y322513D01*
G37*
%LPD*%
%LPC*%
G36*
X546013Y322513D02*
X546013Y322513D01*
X539838Y328688D01*
X539838Y331024D01*
X548349Y331024D01*
X548349Y322513D01*
X546013Y322513D01*
G37*
%LPD*%
D10*
X10000Y600000D02*
X10009Y600736D01*
X10036Y601472D01*
X10081Y602207D01*
X10144Y602941D01*
X10226Y603672D01*
X10325Y604402D01*
X10442Y605129D01*
X10576Y605853D01*
X10729Y606573D01*
X10899Y607289D01*
X11087Y608001D01*
X11292Y608709D01*
X11514Y609410D01*
X11754Y610107D01*
X12010Y610797D01*
X12284Y611481D01*
X12574Y612157D01*
X12880Y612827D01*
X13203Y613488D01*
X13542Y614142D01*
X13897Y614787D01*
X14268Y615423D01*
X14654Y616050D01*
X15056Y616667D01*
X15472Y617274D01*
X15904Y617871D01*
X16350Y618457D01*
X16810Y619032D01*
X17284Y619595D01*
X17771Y620147D01*
X18273Y620686D01*
X18787Y621213D01*
X19314Y621727D01*
X19853Y622229D01*
X20405Y622716D01*
X20968Y623190D01*
X21543Y623650D01*
X22129Y624096D01*
X22726Y624528D01*
X23333Y624944D01*
X23950Y625346D01*
X24577Y625732D01*
X25213Y626103D01*
X25858Y626458D01*
X26512Y626797D01*
X27173Y627120D01*
X27843Y627426D01*
X28519Y627716D01*
X29203Y627990D01*
X29893Y628246D01*
X30590Y628486D01*
X31291Y628708D01*
X31999Y628913D01*
X32711Y629101D01*
X33427Y629271D01*
X34147Y629424D01*
X34871Y629558D01*
X35598Y629675D01*
X36328Y629774D01*
X37059Y629856D01*
X37793Y629919D01*
X38528Y629964D01*
X39264Y629991D01*
X40000Y630000D01*
X40736Y629991D01*
X41472Y629964D01*
X42207Y629919D01*
X42941Y629856D01*
X43672Y629774D01*
X44402Y629675D01*
X45129Y629558D01*
X45853Y629424D01*
X46573Y629271D01*
X47289Y629101D01*
X48001Y628913D01*
X48709Y628708D01*
X49410Y628486D01*
X50107Y628246D01*
X50797Y627990D01*
X51481Y627716D01*
X52157Y627426D01*
X52827Y627120D01*
X53488Y626797D01*
X54142Y626458D01*
X54787Y626103D01*
X55423Y625732D01*
X56050Y625346D01*
X56667Y624944D01*
X57274Y624528D01*
X57871Y624096D01*
X58457Y623650D01*
X59032Y623190D01*
X59595Y622716D01*
X60147Y622229D01*
X60686Y621727D01*
X61213Y621213D01*
X61727Y620686D01*
X62229Y620147D01*
X62716Y619595D01*
X63190Y619032D01*
X63650Y618457D01*
X64096Y617871D01*
X64528Y617274D01*
X64944Y616667D01*
X65346Y616050D01*
X65732Y615423D01*
X66103Y614787D01*
X66458Y614142D01*
X66797Y613488D01*
X67120Y612827D01*
X67426Y612157D01*
X67716Y611481D01*
X67990Y610797D01*
X68246Y610107D01*
X68486Y609410D01*
X68708Y608709D01*
X68913Y608001D01*
X69101Y607289D01*
X69271Y606573D01*
X69424Y605853D01*
X69558Y605129D01*
X69675Y604402D01*
X69774Y603672D01*
X69856Y602941D01*
X69919Y602207D01*
X69964Y601472D01*
X69991Y600736D01*
X70000Y600000D01*
X69991Y599264D01*
X69964Y598528D01*
X69919Y597793D01*
X69856Y597059D01*
X69774Y596328D01*
X69675Y595598D01*
X69558Y594871D01*
X69424Y594147D01*
X69271Y593427D01*
X69101Y592711D01*
X68913Y591999D01*
X68708Y591291D01*
X68486Y590590D01*
X68246Y589893D01*
X67990Y589203D01*
X67716Y588519D01*
X67426Y587843D01*
X67120Y587173D01*
X66797Y586512D01*
X66458Y585858D01*
X66103Y585213D01*
X65732Y584577D01*
X65346Y583950D01*
X64944Y583333D01*
X64528Y582726D01*
X64096Y582129D01*
X63650Y581543D01*
X63190Y580968D01*
X62716Y580405D01*
X62229Y579853D01*
X61727Y579314D01*
X61213Y578787D01*
X60686Y578273D01*
X60147Y577771D01*
X59595Y577284D01*
X59032Y576810D01*
X58457Y576350D01*
X57871Y575904D01*
X57274Y575472D01*
X56667Y575056D01*
X56050Y574654D01*
X55423Y574268D01*
X54787Y573897D01*
X54142Y573542D01*
X53488Y573203D01*
X52827Y572880D01*
X52157Y572574D01*
X51481Y572284D01*
X50797Y572010D01*
X50107Y571754D01*
X49410Y571514D01*
X48709Y571292D01*
X48001Y571087D01*
X47289Y570899D01*
X46573Y570729D01*
X45853Y570576D01*
X45129Y570442D01*
X44402Y570325D01*
X43672Y570226D01*
X42941Y570144D01*
X42207Y570081D01*
X41472Y570036D01*
X40736Y570009D01*
X40000Y570000D01*
X39264Y570009D01*
X38528Y570036D01*
X37793Y570081D01*
X37059Y570144D01*
X36328Y570226D01*
X35598Y570325D01*
X34871Y570442D01*
X34147Y570576D01*
X33427Y570729D01*
X32711Y570899D01*
X31999Y571087D01*
X31291Y571292D01*
X30590Y571514D01*
X29893Y571754D01*
X29203Y572010D01*
X28519Y572284D01*
X27843Y572574D01*
X27173Y572880D01*
X26512Y573203D01*
X25858Y573542D01*
X25213Y573897D01*
X24577Y574268D01*
X23950Y574654D01*
X23333Y575056D01*
X22726Y575472D01*
X22129Y575904D01*
X21543Y576350D01*
X20968Y576810D01*
X20405Y577284D01*
X19853Y577771D01*
X19314Y578273D01*
X18787Y578787D01*
X18273Y579314D01*
X17771Y579853D01*
X17284Y580405D01*
X16810Y580968D01*
X16350Y581543D01*
X15904Y582129D01*
X15472Y582726D01*
X15056Y583333D01*
X14654Y583950D01*
X14268Y584577D01*
X13897Y585213D01*
X13542Y585858D01*
X13203Y586512D01*
X12880Y587173D01*
X12574Y587843D01*
X12284Y588519D01*
X12010Y589203D01*
X11754Y589893D01*
X11514Y590590D01*
X11292Y591291D01*
X11087Y591999D01*
X10899Y592711D01*
X10729Y593427D01*
X10576Y594147D01*
X10442Y594871D01*
X10325Y595598D01*
X10226Y596328D01*
X10144Y597059D01*
X10081Y597793D01*
X10036Y598528D01*
X10009Y599264D01*
X10000Y600000D01*
X780000Y600000D02*
X780009Y600736D01*
X780036Y601472D01*
X780081Y602207D01*
X780144Y602941D01*
X780226Y603672D01*
X780325Y604402D01*
X780442Y605129D01*
X780576Y605853D01*
X780729Y606573D01*
X780899Y607289D01*
X781087Y608001D01*
X781292Y608709D01*
X781514Y609410D01*
X781754Y610107D01*
X782010Y610797D01*
X782284Y611481D01*
X782574Y612157D01*
X782880Y612827D01*
X783203Y613488D01*
X783542Y614142D01*
X783897Y614787D01*
X784268Y615423D01*
X784654Y616050D01*
X785056Y616667D01*
X785472Y617274D01*
X785904Y617871D01*
X786350Y618457D01*
X786810Y619032D01*
X787284Y619595D01*
X787771Y620147D01*
X788273Y620686D01*
X788787Y621213D01*
X789314Y621727D01*
X789853Y622229D01*
X790405Y622716D01*
X790968Y623190D01*
X791543Y623650D01*
X792129Y624096D01*
X792726Y624528D01*
X793333Y624944D01*
X793950Y625346D01*
X794577Y625732D01*
X795213Y626103D01*
X795858Y626458D01*
X796512Y626797D01*
X797173Y627120D01*
X797843Y627426D01*
X798519Y627716D01*
X799203Y627990D01*
X799893Y628246D01*
X800590Y628486D01*
X801291Y628708D01*
X801999Y628913D01*
X802711Y629101D01*
X803427Y629271D01*
X804147Y629424D01*
X804871Y629558D01*
X805598Y629675D01*
X806328Y629774D01*
X807059Y629856D01*
X807793Y629919D01*
X808528Y629964D01*
X809264Y629991D01*
X810000Y630000D01*
X810736Y629991D01*
X811472Y629964D01*
X812207Y629919D01*
X812941Y629856D01*
X813672Y629774D01*
X814402Y629675D01*
X815129Y629558D01*
X815853Y629424D01*
X816573Y629271D01*
X817289Y629101D01*
X818001Y628913D01*
X818709Y628708D01*
X819410Y628486D01*
X820107Y628246D01*
X820797Y627990D01*
X821481Y627716D01*
X822157Y627426D01*
X822827Y627120D01*
X823488Y626797D01*
X824142Y626458D01*
X824787Y626103D01*
X825423Y625732D01*
X826050Y625346D01*
X826667Y624944D01*
X827274Y624528D01*
X827871Y624096D01*
X828457Y623650D01*
X829032Y623190D01*
X829595Y622716D01*
X830147Y622229D01*
X830686Y621727D01*
X831213Y621213D01*
X831727Y620686D01*
X832229Y620147D01*
X832716Y619595D01*
X833190Y619032D01*
X833650Y618457D01*
X834096Y617871D01*
X834528Y617274D01*
X834944Y616667D01*
X835346Y616050D01*
X835732Y615423D01*
X836103Y614787D01*
X836458Y614142D01*
X836797Y613488D01*
X837120Y612827D01*
X837426Y612157D01*
X837716Y611481D01*
X837990Y610797D01*
X838246Y610107D01*
X838486Y609410D01*
X838708Y608709D01*
X838913Y608001D01*
X839101Y607289D01*
X839271Y606573D01*
X839424Y605853D01*
X839558Y605129D01*
X839675Y604402D01*
X839774Y603672D01*
X839856Y602941D01*
X839919Y602207D01*
X839964Y601472D01*
X839991Y600736D01*
X840000Y600000D01*
X839991Y599264D01*
X839964Y598528D01*
X839919Y597793D01*
X839856Y597059D01*
X839774Y596328D01*
X839675Y595598D01*
X839558Y594871D01*
X839424Y594147D01*
X839271Y593427D01*
X839101Y592711D01*
X838913Y591999D01*
X838708Y591291D01*
X838486Y590590D01*
X838246Y589893D01*
X837990Y589203D01*
X837716Y588519D01*
X837426Y587843D01*
X837120Y587173D01*
X836797Y586512D01*
X836458Y585858D01*
X836103Y585213D01*
X835732Y584577D01*
X835346Y583950D01*
X834944Y583333D01*
X834528Y582726D01*
X834096Y582129D01*
X833650Y581543D01*
X833190Y580968D01*
X832716Y580405D01*
X832229Y579853D01*
X831727Y579314D01*
X831213Y578787D01*
X830686Y578273D01*
X830147Y577771D01*
X829595Y577284D01*
X829032Y576810D01*
X828457Y576350D01*
X827871Y575904D01*
X827274Y575472D01*
X826667Y575056D01*
X826050Y574654D01*
X825423Y574268D01*
X824787Y573897D01*
X824142Y573542D01*
X823488Y573203D01*
X822827Y572880D01*
X822157Y572574D01*
X821481Y572284D01*
X820797Y572010D01*
X820107Y571754D01*
X819410Y571514D01*
X818709Y571292D01*
X818001Y571087D01*
X817289Y570899D01*
X816573Y570729D01*
X815853Y570576D01*
X815129Y570442D01*
X814402Y570325D01*
X813672Y570226D01*
X812941Y570144D01*
X812207Y570081D01*
X811472Y570036D01*
X810736Y570009D01*
X810000Y570000D01*
X809264Y570009D01*
X808528Y570036D01*
X807793Y570081D01*
X807059Y570144D01*
X806328Y570226D01*
X805598Y570325D01*
X804871Y570442D01*
X804147Y570576D01*
X803427Y570729D01*
X802711Y570899D01*
X801999Y571087D01*
X801291Y571292D01*
X800590Y571514D01*
X799893Y571754D01*
X799203Y572010D01*
X798519Y572284D01*
X797843Y572574D01*
X797173Y572880D01*
X796512Y573203D01*
X795858Y573542D01*
X795213Y573897D01*
X794577Y574268D01*
X793950Y574654D01*
X793333Y575056D01*
X792726Y575472D01*
X792129Y575904D01*
X791543Y576350D01*
X790968Y576810D01*
X790405Y577284D01*
X789853Y577771D01*
X789314Y578273D01*
X788787Y578787D01*
X788273Y579314D01*
X787771Y579853D01*
X787284Y580405D01*
X786810Y580968D01*
X786350Y581543D01*
X785904Y582129D01*
X785472Y582726D01*
X785056Y583333D01*
X784654Y583950D01*
X784268Y584577D01*
X783897Y585213D01*
X783542Y585858D01*
X783203Y586512D01*
X782880Y587173D01*
X782574Y587843D01*
X782284Y588519D01*
X782010Y589203D01*
X781754Y589893D01*
X781514Y590590D01*
X781292Y591291D01*
X781087Y591999D01*
X780899Y592711D01*
X780729Y593427D01*
X780576Y594147D01*
X780442Y594871D01*
X780325Y595598D01*
X780226Y596328D01*
X780144Y597059D01*
X780081Y597793D01*
X780036Y598528D01*
X780009Y599264D01*
X780000Y600000D01*
X10000Y40000D02*
X10009Y40736D01*
X10036Y41472D01*
X10081Y42207D01*
X10144Y42941D01*
X10226Y43672D01*
X10325Y44402D01*
X10442Y45129D01*
X10576Y45853D01*
X10729Y46573D01*
X10899Y47289D01*
X11087Y48001D01*
X11292Y48709D01*
X11514Y49410D01*
X11754Y50107D01*
X12010Y50797D01*
X12284Y51481D01*
X12574Y52157D01*
X12880Y52827D01*
X13203Y53488D01*
X13542Y54142D01*
X13897Y54787D01*
X14268Y55423D01*
X14654Y56050D01*
X15056Y56667D01*
X15472Y57274D01*
X15904Y57871D01*
X16350Y58457D01*
X16810Y59032D01*
X17284Y59595D01*
X17771Y60147D01*
X18273Y60686D01*
X18787Y61213D01*
X19314Y61727D01*
X19853Y62229D01*
X20405Y62716D01*
X20968Y63190D01*
X21543Y63650D01*
X22129Y64096D01*
X22726Y64528D01*
X23333Y64944D01*
X23950Y65346D01*
X24577Y65732D01*
X25213Y66103D01*
X25858Y66458D01*
X26512Y66797D01*
X27173Y67120D01*
X27843Y67426D01*
X28519Y67716D01*
X29203Y67990D01*
X29893Y68246D01*
X30590Y68486D01*
X31291Y68708D01*
X31999Y68913D01*
X32711Y69101D01*
X33427Y69271D01*
X34147Y69424D01*
X34871Y69558D01*
X35598Y69675D01*
X36328Y69774D01*
X37059Y69856D01*
X37793Y69919D01*
X38528Y69964D01*
X39264Y69991D01*
X40000Y70000D01*
X40736Y69991D01*
X41472Y69964D01*
X42207Y69919D01*
X42941Y69856D01*
X43672Y69774D01*
X44402Y69675D01*
X45129Y69558D01*
X45853Y69424D01*
X46573Y69271D01*
X47289Y69101D01*
X48001Y68913D01*
X48709Y68708D01*
X49410Y68486D01*
X50107Y68246D01*
X50797Y67990D01*
X51481Y67716D01*
X52157Y67426D01*
X52827Y67120D01*
X53488Y66797D01*
X54142Y66458D01*
X54787Y66103D01*
X55423Y65732D01*
X56050Y65346D01*
X56667Y64944D01*
X57274Y64528D01*
X57871Y64096D01*
X58457Y63650D01*
X59032Y63190D01*
X59595Y62716D01*
X60147Y62229D01*
X60686Y61727D01*
X61213Y61213D01*
X61727Y60686D01*
X62229Y60147D01*
X62716Y59595D01*
X63190Y59032D01*
X63650Y58457D01*
X64096Y57871D01*
X64528Y57274D01*
X64944Y56667D01*
X65346Y56050D01*
X65732Y55423D01*
X66103Y54787D01*
X66458Y54142D01*
X66797Y53488D01*
X67120Y52827D01*
X67426Y52157D01*
X67716Y51481D01*
X67990Y50797D01*
X68246Y50107D01*
X68486Y49410D01*
X68708Y48709D01*
X68913Y48001D01*
X69101Y47289D01*
X69271Y46573D01*
X69424Y45853D01*
X69558Y45129D01*
X69675Y44402D01*
X69774Y43672D01*
X69856Y42941D01*
X69919Y42207D01*
X69964Y41472D01*
X69991Y40736D01*
X70000Y40000D01*
X69991Y39264D01*
X69964Y38528D01*
X69919Y37793D01*
X69856Y37059D01*
X69774Y36328D01*
X69675Y35598D01*
X69558Y34871D01*
X69424Y34147D01*
X69271Y33427D01*
X69101Y32711D01*
X68913Y31999D01*
X68708Y31291D01*
X68486Y30590D01*
X68246Y29893D01*
X67990Y29203D01*
X67716Y28519D01*
X67426Y27843D01*
X67120Y27173D01*
X66797Y26512D01*
X66458Y25858D01*
X66103Y25213D01*
X65732Y24577D01*
X65346Y23950D01*
X64944Y23333D01*
X64528Y22726D01*
X64096Y22129D01*
X63650Y21543D01*
X63190Y20968D01*
X62716Y20405D01*
X62229Y19853D01*
X61727Y19314D01*
X61213Y18787D01*
X60686Y18273D01*
X60147Y17771D01*
X59595Y17284D01*
X59032Y16810D01*
X58457Y16350D01*
X57871Y15904D01*
X57274Y15472D01*
X56667Y15056D01*
X56050Y14654D01*
X55423Y14268D01*
X54787Y13897D01*
X54142Y13542D01*
X53488Y13203D01*
X52827Y12880D01*
X52157Y12574D01*
X51481Y12284D01*
X50797Y12010D01*
X50107Y11754D01*
X49410Y11514D01*
X48709Y11292D01*
X48001Y11087D01*
X47289Y10899D01*
X46573Y10729D01*
X45853Y10576D01*
X45129Y10442D01*
X44402Y10325D01*
X43672Y10226D01*
X42941Y10144D01*
X42207Y10081D01*
X41472Y10036D01*
X40736Y10009D01*
X40000Y10000D01*
X39264Y10009D01*
X38528Y10036D01*
X37793Y10081D01*
X37059Y10144D01*
X36328Y10226D01*
X35598Y10325D01*
X34871Y10442D01*
X34147Y10576D01*
X33427Y10729D01*
X32711Y10899D01*
X31999Y11087D01*
X31291Y11292D01*
X30590Y11514D01*
X29893Y11754D01*
X29203Y12010D01*
X28519Y12284D01*
X27843Y12574D01*
X27173Y12880D01*
X26512Y13203D01*
X25858Y13542D01*
X25213Y13897D01*
X24577Y14268D01*
X23950Y14654D01*
X23333Y15056D01*
X22726Y15472D01*
X22129Y15904D01*
X21543Y16350D01*
X20968Y16810D01*
X20405Y17284D01*
X19853Y17771D01*
X19314Y18273D01*
X18787Y18787D01*
X18273Y19314D01*
X17771Y19853D01*
X17284Y20405D01*
X16810Y20968D01*
X16350Y21543D01*
X15904Y22129D01*
X15472Y22726D01*
X15056Y23333D01*
X14654Y23950D01*
X14268Y24577D01*
X13897Y25213D01*
X13542Y25858D01*
X13203Y26512D01*
X12880Y27173D01*
X12574Y27843D01*
X12284Y28519D01*
X12010Y29203D01*
X11754Y29893D01*
X11514Y30590D01*
X11292Y31291D01*
X11087Y31999D01*
X10899Y32711D01*
X10729Y33427D01*
X10576Y34147D01*
X10442Y34871D01*
X10325Y35598D01*
X10226Y36328D01*
X10144Y37059D01*
X10081Y37793D01*
X10036Y38528D01*
X10009Y39264D01*
X10000Y40000D01*
X780000Y40000D02*
X780009Y40736D01*
X780036Y41472D01*
X780081Y42207D01*
X780144Y42941D01*
X780226Y43672D01*
X780325Y44402D01*
X780442Y45129D01*
X780576Y45853D01*
X780729Y46573D01*
X780899Y47289D01*
X781087Y48001D01*
X781292Y48709D01*
X781514Y49410D01*
X781754Y50107D01*
X782010Y50797D01*
X782284Y51481D01*
X782574Y52157D01*
X782880Y52827D01*
X783203Y53488D01*
X783542Y54142D01*
X783897Y54787D01*
X784268Y55423D01*
X784654Y56050D01*
X785056Y56667D01*
X785472Y57274D01*
X785904Y57871D01*
X786350Y58457D01*
X786810Y59032D01*
X787284Y59595D01*
X787771Y60147D01*
X788273Y60686D01*
X788787Y61213D01*
X789314Y61727D01*
X789853Y62229D01*
X790405Y62716D01*
X790968Y63190D01*
X791543Y63650D01*
X792129Y64096D01*
X792726Y64528D01*
X793333Y64944D01*
X793950Y65346D01*
X794577Y65732D01*
X795213Y66103D01*
X795858Y66458D01*
X796512Y66797D01*
X797173Y67120D01*
X797843Y67426D01*
X798519Y67716D01*
X799203Y67990D01*
X799893Y68246D01*
X800590Y68486D01*
X801291Y68708D01*
X801999Y68913D01*
X802711Y69101D01*
X803427Y69271D01*
X804147Y69424D01*
X804871Y69558D01*
X805598Y69675D01*
X806328Y69774D01*
X807059Y69856D01*
X807793Y69919D01*
X808528Y69964D01*
X809264Y69991D01*
X810000Y70000D01*
X810736Y69991D01*
X811472Y69964D01*
X812207Y69919D01*
X812941Y69856D01*
X813672Y69774D01*
X814402Y69675D01*
X815129Y69558D01*
X815853Y69424D01*
X816573Y69271D01*
X817289Y69101D01*
X818001Y68913D01*
X818709Y68708D01*
X819410Y68486D01*
X820107Y68246D01*
X820797Y67990D01*
X821481Y67716D01*
X822157Y67426D01*
X822827Y67120D01*
X823488Y66797D01*
X824142Y66458D01*
X824787Y66103D01*
X825423Y65732D01*
X826050Y65346D01*
X826667Y64944D01*
X827274Y64528D01*
X827871Y64096D01*
X828457Y63650D01*
X829032Y63190D01*
X829595Y62716D01*
X830147Y62229D01*
X830686Y61727D01*
X831213Y61213D01*
X831727Y60686D01*
X832229Y60147D01*
X832716Y59595D01*
X833190Y59032D01*
X833650Y58457D01*
X834096Y57871D01*
X834528Y57274D01*
X834944Y56667D01*
X835346Y56050D01*
X835732Y55423D01*
X836103Y54787D01*
X836458Y54142D01*
X836797Y53488D01*
X837120Y52827D01*
X837426Y52157D01*
X837716Y51481D01*
X837990Y50797D01*
X838246Y50107D01*
X838486Y49410D01*
X838708Y48709D01*
X838913Y48001D01*
X839101Y47289D01*
X839271Y46573D01*
X839424Y45853D01*
X839558Y45129D01*
X839675Y44402D01*
X839774Y43672D01*
X839856Y42941D01*
X839919Y42207D01*
X839964Y41472D01*
X839991Y40736D01*
X840000Y40000D01*
X839991Y39264D01*
X839964Y38528D01*
X839919Y37793D01*
X839856Y37059D01*
X839774Y36328D01*
X839675Y35598D01*
X839558Y34871D01*
X839424Y34147D01*
X839271Y33427D01*
X839101Y32711D01*
X838913Y31999D01*
X838708Y31291D01*
X838486Y30590D01*
X838246Y29893D01*
X837990Y29203D01*
X837716Y28519D01*
X837426Y27843D01*
X837120Y27173D01*
X836797Y26512D01*
X836458Y25858D01*
X836103Y25213D01*
X835732Y24577D01*
X835346Y23950D01*
X834944Y23333D01*
X834528Y22726D01*
X834096Y22129D01*
X833650Y21543D01*
X833190Y20968D01*
X832716Y20405D01*
X832229Y19853D01*
X831727Y19314D01*
X831213Y18787D01*
X830686Y18273D01*
X830147Y17771D01*
X829595Y17284D01*
X829032Y16810D01*
X828457Y16350D01*
X827871Y15904D01*
X827274Y15472D01*
X826667Y15056D01*
X826050Y14654D01*
X825423Y14268D01*
X824787Y13897D01*
X824142Y13542D01*
X823488Y13203D01*
X822827Y12880D01*
X822157Y12574D01*
X821481Y12284D01*
X820797Y12010D01*
X820107Y11754D01*
X819410Y11514D01*
X818709Y11292D01*
X818001Y11087D01*
X817289Y10899D01*
X816573Y10729D01*
X815853Y10576D01*
X815129Y10442D01*
X814402Y10325D01*
X813672Y10226D01*
X812941Y10144D01*
X812207Y10081D01*
X811472Y10036D01*
X810736Y10009D01*
X810000Y10000D01*
X809264Y10009D01*
X808528Y10036D01*
X807793Y10081D01*
X807059Y10144D01*
X806328Y10226D01*
X805598Y10325D01*
X804871Y10442D01*
X804147Y10576D01*
X803427Y10729D01*
X802711Y10899D01*
X801999Y11087D01*
X801291Y11292D01*
X800590Y11514D01*
X799893Y11754D01*
X799203Y12010D01*
X798519Y12284D01*
X797843Y12574D01*
X797173Y12880D01*
X796512Y13203D01*
X795858Y13542D01*
X795213Y13897D01*
X794577Y14268D01*
X793950Y14654D01*
X793333Y15056D01*
X792726Y15472D01*
X792129Y15904D01*
X791543Y16350D01*
X790968Y16810D01*
X790405Y17284D01*
X789853Y17771D01*
X789314Y18273D01*
X788787Y18787D01*
X788273Y19314D01*
X787771Y19853D01*
X787284Y20405D01*
X786810Y20968D01*
X786350Y21543D01*
X785904Y22129D01*
X785472Y22726D01*
X785056Y23333D01*
X784654Y23950D01*
X784268Y24577D01*
X783897Y25213D01*
X783542Y25858D01*
X783203Y26512D01*
X782880Y27173D01*
X782574Y27843D01*
X782284Y28519D01*
X782010Y29203D01*
X781754Y29893D01*
X781514Y30590D01*
X781292Y31291D01*
X781087Y31999D01*
X780899Y32711D01*
X780729Y33427D01*
X780576Y34147D01*
X780442Y34871D01*
X780325Y35598D01*
X780226Y36328D01*
X780144Y37059D01*
X780081Y37793D01*
X780036Y38528D01*
X780009Y39264D01*
X780000Y40000D01*
D11*
X550380Y333055D03*
D12*
X550380Y297495D03*
D13*
X418300Y566100D03*
X392900Y566100D03*
X367500Y566100D03*
X342100Y566100D03*
X316700Y566100D03*
X291300Y566100D03*
X418300Y540700D03*
X392900Y540700D03*
X367500Y540700D03*
X342100Y540700D03*
X316700Y540700D03*
X291300Y540700D03*
X265900Y566100D03*
X240500Y566100D03*
X265900Y540700D03*
X240500Y540700D03*
X646900Y96200D03*
X621500Y96200D03*
X596100Y96200D03*
X570700Y96200D03*
X545300Y96200D03*
X519900Y96200D03*
X646900Y70800D03*
X621500Y70800D03*
X596100Y70800D03*
X570700Y70800D03*
X545300Y70800D03*
X519900Y70800D03*
X494500Y96200D03*
X469100Y96200D03*
X494500Y70800D03*
X469100Y70800D03*
D14*
X126200Y337500D03*
X126200Y362900D03*
X126200Y388300D03*
X126200Y413700D03*
X126200Y439100D03*
X126200Y464500D03*
X100800Y337500D03*
X100800Y362900D03*
X100800Y388300D03*
X100800Y413700D03*
X100800Y439100D03*
X100800Y464500D03*
X126200Y489900D03*
X126200Y515300D03*
X100800Y489900D03*
X100800Y515300D03*
D15*
X316700Y70800D03*
X342100Y70800D03*
X367500Y70800D03*
X392900Y70800D03*
X418300Y70800D03*
X316700Y96200D03*
X342100Y96200D03*
X367500Y96200D03*
X392900Y96200D03*
X418300Y96200D03*
X469100Y540700D03*
X494500Y540700D03*
X519900Y540700D03*
X545300Y540700D03*
X570700Y540700D03*
X596100Y540700D03*
X469100Y566100D03*
X494500Y566100D03*
X519900Y566100D03*
X545300Y566100D03*
X570700Y566100D03*
X596100Y566100D03*
X621500Y540700D03*
X646900Y540700D03*
X621500Y566100D03*
X646900Y566100D03*
D16*
X699450Y69380D03*
D15*
X724850Y69380D03*
X750250Y69380D03*
X699450Y94780D03*
X724850Y94780D03*
X750250Y94780D03*
D16*
X749300Y565150D03*
D13*
X723900Y565150D03*
X698500Y565150D03*
X749300Y539750D03*
X723900Y539750D03*
X698500Y539750D03*
D17*
X101600Y177800D03*
X101600Y203200D03*
X101600Y228600D03*
X101600Y254000D03*
X101600Y279400D03*
D18*
X437350Y404810D03*
D19*
X554190Y404810D01*
X558000Y401000D01*
D18*
X558000Y401000D03*
X240500Y195260D03*
D10*
X240500Y216215D02*
X240500Y216850D01*
D18*
X240500Y216850D03*
D10*
X239230Y217485D02*
X239230Y196530D01*
X240500Y195260D01*
D18*
X619595Y292415D03*
D20*
X552285Y295590D02*
X550380Y297495D01*
X616420Y295590D02*
X619595Y292415D01*
X616420Y295590D02*
X552285Y295590D01*
D21*
X380200Y210500D03*
D10*
X246215Y210500D01*
X240500Y216215D01*
X239230Y217485D01*
D21*
X181060Y290702D03*
D22*
X179790Y289432D01*
D10*
X151130Y289432D01*
X115698Y254000D01*
X101600Y254000D01*
D18*
X227800Y235900D03*
D20*
X380835Y235900D01*
X415760Y200975D01*
D18*
X415760Y200975D03*
X417030Y373060D03*
D20*
X444335Y345755D01*
X537680Y345755D02*
X550380Y333055D01*
X537680Y345755D02*
X444335Y345755D01*
D18*
X316065Y356550D03*
D10*
X319240Y353375D02*
X397345Y353375D01*
X319240Y353375D02*
X316065Y356550D01*
X397345Y353375D02*
X417030Y373060D01*
D18*
X456400Y235900D03*
D19*
X456400Y238440D02*
X549745Y331785D01*
X456400Y238440D02*
X456400Y235900D01*
X549745Y332420D02*
X550380Y333055D01*
X549745Y332420D02*
X549745Y331785D01*
D18*
X538315Y256220D03*
D19*
X550380Y319085D02*
X550380Y333055D01*
X550380Y319085D02*
X538315Y307020D01*
X538315Y256220D01*
X415760Y220660D02*
X415760Y200975D01*
X528155Y333055D02*
X550380Y333055D01*
X528155Y333055D02*
X415760Y220660D01*
D20*
X550380Y333055D02*
X604355Y333055D01*
X635470Y364170D01*
X635470Y375280D01*
D18*
X635470Y375280D03*
D21*
X182576Y261161D03*
D18*
X702700Y164600D03*
X732700Y164600D03*
X762700Y164600D03*
X792700Y164600D03*
X822700Y164600D03*
X822700Y194600D03*
X792700Y194600D03*
X762700Y194600D03*
X732700Y194600D03*
X702700Y194600D03*
X702700Y224600D03*
X822700Y224600D03*
X822700Y254600D03*
X822700Y284600D03*
X702700Y254600D03*
X702700Y284600D03*
X732700Y279520D03*
X792700Y279520D03*
D22*
X456400Y58100D02*
X418300Y96200D01*
D18*
X736600Y482600D03*
D20*
X736600Y283420D01*
X732700Y279520D01*
X736600Y482600D02*
X774700Y520700D01*
X774700Y558800D01*
X768350Y565150D01*
X749300Y565150D01*
D22*
X699450Y69380D02*
X688170Y58100D01*
X456400Y58100D01*
D18*
X185420Y95250D03*
D10*
X190500Y100330D02*
X190500Y253236D01*
X190500Y100330D02*
X185420Y95250D01*
X190500Y253236D02*
X182576Y261161D01*
X152400Y230985D02*
X152400Y228600D01*
D18*
X152400Y228600D03*
D10*
X152400Y230985D02*
X182576Y261161D01*
D21*
X181060Y337500D03*
D10*
X177250Y337500D01*
X119150Y279400D01*
X101600Y279400D01*
D18*
X352370Y457510D03*
D22*
X348370Y457510D01*
X331021Y440161D01*
X313728Y440161D01*
X199860Y326293D01*
X352370Y457510D02*
X366980Y472120D01*
X422110Y472120D01*
X422539Y472549D01*
D18*
X422539Y472549D03*
D22*
X104295Y203200D02*
X101600Y203200D01*
X104295Y203200D02*
X199860Y298765D01*
X199860Y326293D01*
D18*
X327130Y447845D03*
D22*
X360295Y481010D01*
X411950Y481010D01*
X413014Y482074D01*
D18*
X413014Y482074D03*
X317500Y431800D03*
D22*
X313887Y428187D01*
X307743Y428187D01*
X203200Y323644D01*
X203200Y297180D02*
X123190Y217170D01*
X123190Y189230D01*
X111760Y177800D01*
X101600Y177800D01*
X203200Y297180D02*
X203200Y323644D01*
D18*
X680720Y401320D03*
D22*
X680720Y403286D01*
X673378Y410628D01*
X673378Y514628D01*
X698500Y539750D01*
D18*
X680720Y434691D03*
D22*
X683260Y437610D01*
X683260Y499110D01*
X723900Y539750D01*
D18*
X469735Y490535D03*
D22*
X412085Y527492D02*
X405727Y533850D01*
X469735Y491170D02*
X469735Y490535D01*
X469735Y491170D02*
X433413Y527492D01*
X412085Y527492D01*
X405727Y533850D02*
X405727Y547296D01*
X399496Y553527D01*
X380970Y553527D01*
X368397Y566100D01*
X367500Y566100D01*
D21*
X265900Y489900D03*
D22*
X295110Y519110D01*
X339022Y519110D01*
X360612Y540700D02*
X367500Y540700D01*
X360612Y540700D02*
X339022Y519110D01*
D21*
X265900Y502600D03*
D22*
X286474Y523174D01*
X317686Y523174D01*
X335212Y540700D02*
X342100Y540700D01*
X335212Y540700D02*
X317686Y523174D01*
D21*
X253200Y502600D03*
D22*
X278473Y527873D01*
X297620Y527873D01*
X310447Y540700D02*
X316700Y540700D01*
X310447Y540700D02*
X297620Y527873D01*
X405727Y553273D02*
X425150Y553273D01*
D18*
X539585Y466405D03*
D22*
X539077Y465897D01*
X512526Y465897D01*
X425150Y553273D01*
X405727Y553273D02*
X392900Y566100D01*
D18*
X481800Y477200D03*
D22*
X380073Y547550D02*
X374350Y553273D01*
X354927Y553273D01*
X436977Y477200D02*
X481800Y477200D01*
X436977Y477200D02*
X380073Y534104D01*
X380073Y547550D01*
X354927Y553273D02*
X342100Y566100D01*
D21*
X240500Y502600D03*
D22*
X265773Y527873D01*
X272220Y527873D01*
X285047Y540700D01*
X291300Y540700D01*
D21*
X227800Y502600D03*
D22*
X265900Y540700D01*
D18*
X290665Y182560D03*
D22*
X294475Y178750D02*
X502755Y178750D01*
X294475Y178750D02*
X290665Y182560D01*
X523075Y199070D02*
X544030Y199070D01*
X523075Y199070D02*
X502755Y178750D01*
X544030Y199070D02*
X646900Y96200D01*
D18*
X478625Y155890D03*
D22*
X489420Y166685D01*
X497675Y166685D02*
X524980Y193990D01*
X542760Y193990D01*
X497675Y166685D02*
X489420Y166685D01*
X542760Y193990D02*
X621500Y115250D01*
X621500Y96200D01*
D18*
X492595Y155890D03*
D22*
X564985Y162875D02*
X564985Y127315D01*
X564985Y162875D02*
X537680Y190180D01*
X528567Y190180D02*
X494277Y155890D01*
X492595Y155890D01*
X528567Y190180D02*
X537680Y190180D01*
X564985Y127315D02*
X596100Y96200D01*
D18*
X531965Y182560D03*
D22*
X558000Y122870D02*
X570700Y110170D01*
X531965Y181925D02*
X531965Y182560D01*
X531965Y181925D02*
X558000Y155890D01*
X558000Y122870D01*
X570700Y110170D02*
X570700Y96200D01*
D18*
X323685Y407350D03*
D22*
X510787Y113345D02*
X528155Y113345D01*
X510787Y113345D02*
X449446Y174686D01*
X233083Y174686D01*
X220458Y187311D01*
X220458Y254472D02*
X244691Y278705D01*
X220458Y254472D02*
X220458Y187311D01*
X244691Y328356D02*
X323685Y407350D01*
X244691Y328356D02*
X244691Y278705D01*
X528155Y113345D02*
X545300Y96200D01*
X311620Y407985D02*
X292570Y407985D01*
X311620Y407985D02*
X312255Y407350D01*
D18*
X312255Y407350D03*
D22*
X517874Y96200D02*
X519900Y96200D01*
X446500Y167574D02*
X229502Y167574D01*
X213346Y183730D01*
X213346Y257418D01*
X236944Y281016D01*
X236944Y352359D01*
X292570Y407985D01*
X446500Y167574D02*
X517874Y96200D01*
D18*
X450050Y147635D03*
D22*
X450050Y146365D01*
X494500Y101915D02*
X494500Y96200D01*
X494500Y101915D02*
X450050Y146365D01*
D18*
X516090Y374330D03*
D22*
X592290Y374330D01*
X597688Y368933D01*
X597370Y368615D01*
D18*
X597370Y368615D03*
X459575Y388300D03*
D22*
X463385Y392110D02*
X598005Y392110D01*
X621500Y368615D01*
X463385Y392110D02*
X459575Y388300D01*
D18*
X621500Y368615D03*
X453225Y379410D03*
D22*
X472910Y387665D02*
X595465Y387665D01*
X472910Y387665D02*
X464655Y379410D01*
X453225Y379410D01*
X608165Y374965D02*
X608165Y371155D01*
X608165Y374965D02*
X595465Y387665D01*
D18*
X608165Y371155D03*
X316700Y420845D03*
D22*
X376390Y423225D02*
X592290Y423225D01*
X376390Y423225D02*
X363515Y436100D01*
X608165Y407350D02*
X609435Y407350D01*
X608165Y407350D02*
X592290Y423225D01*
D18*
X609435Y407350D03*
X591655Y128585D03*
D22*
X608800Y111440D01*
X608800Y83500D01*
X320700Y420845D02*
X316700Y420845D01*
X320700Y420845D02*
X335955Y436100D01*
X363515Y436100D01*
X608800Y83500D02*
X596100Y70800D01*
X558000Y83500D02*
X538950Y83500D01*
X532473Y100510D02*
X524845Y108138D01*
X532473Y89977D02*
X538950Y83500D01*
X524845Y108138D02*
X510965Y108138D01*
X532473Y100510D02*
X532473Y89977D01*
X447973Y171130D02*
X230975Y171130D01*
X216902Y185203D02*
X216902Y255945D01*
X240500Y279543D01*
X240500Y350200D01*
X289395Y399095D01*
X295745Y399095D01*
X447973Y171130D02*
X510965Y108138D01*
X230975Y171130D02*
X216902Y185203D01*
D18*
X295745Y399095D03*
D22*
X558000Y83500D02*
X570700Y70800D01*
D18*
X227165Y287335D03*
D22*
X507327Y89985D02*
X513050Y84262D01*
X531838Y84262D01*
X507327Y89985D02*
X507327Y101718D01*
X227165Y277124D02*
X227165Y287335D01*
X227165Y277124D02*
X209790Y259749D01*
X445027Y164018D02*
X507327Y101718D01*
X445027Y164018D02*
X228029Y164018D01*
X209790Y182257D02*
X209790Y259749D01*
X209790Y182257D02*
X228029Y164018D01*
X531838Y84262D02*
X545300Y70800D01*
D18*
X215100Y275905D03*
D22*
X215100Y272095D01*
X481292Y91255D02*
X488285Y84262D01*
X506438Y84262D01*
X481292Y91255D02*
X481292Y103693D01*
X215100Y272095D02*
X206234Y263229D01*
X424523Y160462D02*
X481292Y103693D01*
X424523Y160462D02*
X226556Y160462D01*
X206234Y180784D02*
X206234Y263229D01*
X206234Y180784D02*
X226556Y160462D01*
X506438Y84262D02*
X519900Y70800D01*
D18*
X215100Y287335D03*
D22*
X202678Y274913D01*
X202678Y179311D01*
X225083Y156906D01*
X493865Y70800D02*
X494500Y70800D01*
X462623Y83627D02*
X455765Y90485D01*
X455765Y122870D01*
X421729Y156906D01*
X462623Y83627D02*
X481038Y83627D01*
X421729Y156906D02*
X225083Y156906D01*
X481038Y83627D02*
X493865Y70800D01*
X214465Y299400D02*
X212560Y299400D01*
X199122Y285962D01*
X199122Y177838D01*
X223610Y153350D01*
D21*
X214465Y299400D03*
D22*
X451320Y121600D02*
X451320Y88580D01*
X451320Y121600D02*
X419570Y153350D01*
X223610Y153350D01*
X451320Y88580D02*
X469100Y70800D01*
D18*
X244310Y400365D03*
D22*
X238595Y406080D01*
X194780Y406080D01*
X126200Y337500D01*
D18*
X244310Y418780D03*
D22*
X243726Y418780D02*
X240297Y422209D01*
X243726Y418780D02*
X244310Y418780D01*
X240297Y422209D02*
X185509Y422209D01*
X126200Y362900D01*
D18*
X258280Y434655D03*
D22*
X255105Y431480D01*
X169380Y431480D01*
X126200Y388300D01*
D18*
X244310Y444180D03*
D22*
X241135Y447355D01*
X159855Y447355D01*
X126200Y413700D01*
D18*
X254470Y461960D03*
D22*
X249390Y456880D01*
X143980Y456880D01*
X126200Y439100D01*
X327495Y483550D02*
X328448Y482598D01*
D18*
X328448Y482598D03*
D22*
X313652Y469707D02*
X223228Y469707D01*
X190970Y501965D01*
X313652Y469707D02*
X327495Y483550D01*
X190970Y501965D02*
X163665Y501965D01*
X126200Y464500D01*
X189700Y508315D02*
X224625Y473390D01*
X305270Y473390D02*
X326225Y494345D01*
X328765Y494345D01*
D18*
X328765Y494345D03*
D22*
X305270Y473390D02*
X224625Y473390D01*
X189700Y508315D02*
X144615Y508315D01*
X126200Y489900D01*
D21*
X328765Y506410D03*
D22*
X328765Y505140D01*
X301079Y477454D01*
X226225Y477454D02*
X188379Y515300D01*
X226225Y477454D02*
X301079Y477454D01*
X188379Y515300D02*
X126200Y515300D01*
D18*
X376390Y489900D03*
D22*
X133185Y350835D02*
X114135Y350835D01*
X133185Y350835D02*
X192875Y410525D01*
X278067Y410525D01*
X357442Y489900D01*
X376390Y489900D01*
X114135Y350835D02*
X100800Y337500D01*
X364960Y502600D02*
X371310Y502600D01*
D18*
X371310Y502600D03*
D22*
X132161Y375473D02*
X121890Y375473D01*
X132161Y375473D02*
X183088Y426400D01*
X288760Y426400D02*
X364960Y502600D01*
X288760Y426400D02*
X183088Y426400D01*
X109317Y362900D02*
X100800Y362900D01*
X109317Y362900D02*
X121890Y375473D01*
X170388Y438465D02*
X206845Y438465D01*
X208115Y439735D01*
D18*
X208115Y439735D03*
D22*
X132161Y400238D02*
X121255Y400238D01*
X132161Y400238D02*
X170388Y438465D01*
X109317Y388300D02*
X100800Y388300D01*
X109317Y388300D02*
X121255Y400238D01*
X308390Y452157D02*
X366453Y510220D01*
X308390Y452157D02*
X157672Y452157D01*
X366453Y510220D02*
X398470Y510220D01*
X527774Y462341D02*
X538950Y451165D01*
D18*
X538950Y451165D03*
D22*
X527774Y462341D02*
X446349Y462341D01*
X398470Y510220D01*
X157672Y452157D02*
X131915Y426400D01*
X113500Y426400D01*
X100800Y413700D01*
D18*
X208115Y464500D03*
D22*
X131915Y451800D02*
X113500Y451800D01*
X131915Y451800D02*
X144615Y464500D01*
X208115Y464500D01*
X113500Y451800D02*
X100800Y439100D01*
D18*
X332575Y145730D03*
D22*
X329527Y142682D01*
X329527Y83635D01*
X329527Y83373D01*
X342100Y70800D01*
D18*
X357975Y145730D03*
D22*
X354927Y142682D01*
X354927Y83373D01*
X367500Y70800D01*
D18*
X373850Y145730D03*
D22*
X380073Y139507D01*
X380073Y83627D01*
X392900Y70800D01*
D18*
X402425Y145095D03*
D22*
X405727Y141793D01*
X405727Y83373D01*
X418300Y70800D01*
D18*
X344830Y443515D03*
D22*
X371100Y453785D02*
X523630Y453785D01*
X371100Y453785D02*
X363830Y446515D01*
X347830Y446515D01*
X344830Y443515D01*
X523630Y453785D02*
X536410Y441005D01*
X540855Y441005D01*
X547205Y447355D01*
X547205Y469168D02*
X542626Y473747D01*
X547205Y469168D02*
X547205Y447355D01*
X542626Y473747D02*
X536053Y473747D01*
X469100Y540700D01*
D18*
X197320Y517205D03*
D22*
X197955Y516570D01*
X197955Y512125D01*
X229070Y481010D01*
X291935Y481010D01*
D18*
X380200Y521650D03*
D22*
X373187Y514637D01*
X325562Y514637D01*
X291935Y481010D01*
D18*
X609435Y420685D03*
D22*
X609435Y425593D01*
X519900Y515128D01*
X519900Y540700D01*
D18*
X613245Y440370D03*
D22*
X610070Y440370D01*
X548856Y501584D01*
X548856Y537144D01*
X545300Y540700D01*
D18*
X359785Y426765D03*
D22*
X586575Y419415D02*
X607530Y398460D01*
X370040Y419415D02*
X362690Y426765D01*
X359785Y426765D01*
X370040Y419415D02*
X586575Y419415D01*
X543395Y498790D02*
X543395Y523817D01*
X532727Y534485D01*
X532727Y552630D01*
X543395Y498790D02*
X617690Y424495D01*
X617690Y401051D02*
X615099Y398460D01*
X607530Y398460D01*
X617690Y401051D02*
X617690Y424495D01*
X532727Y552630D02*
X545300Y565203D01*
X545300Y566100D01*
D18*
X375120Y446085D03*
D22*
X554825Y438465D02*
X554825Y474025D01*
X507200Y521650D01*
X507200Y553138D01*
X554825Y438465D02*
X543395Y427035D01*
X394170Y427035D01*
X375120Y446085D01*
X519900Y565838D02*
X519900Y566100D01*
X519900Y565838D02*
X507200Y553138D01*
D18*
X458940Y437830D03*
D22*
X465290Y430845D02*
X542125Y430845D01*
X465290Y430845D02*
X458940Y437195D01*
X458940Y437830D01*
X542125Y430845D02*
X551015Y439735D01*
X481800Y534985D02*
X481800Y553400D01*
X551015Y470387D02*
X551015Y439735D01*
X551015Y470387D02*
X544099Y477303D01*
X539482Y477303D01*
X481800Y534985D01*
X481800Y553400D02*
X494500Y566100D01*
D18*
X501485Y488630D03*
D22*
X455765Y534350D01*
X455765Y552765D01*
X469100Y566100D01*
D18*
X614515Y459420D03*
D22*
X613880Y459420D01*
X570700Y502600D01*
X570700Y540700D01*
D18*
X603720Y497520D03*
D22*
X603720Y498567D02*
X596100Y506187D01*
X603720Y498567D02*
X603720Y497520D01*
X596100Y506187D02*
X596100Y540700D01*
D18*
X621500Y510220D03*
D22*
X621500Y540700D01*
D18*
X344640Y396555D03*
D22*
X360388Y412303D02*
X582943Y412303D01*
X360388Y412303D02*
X344640Y396555D01*
X582943Y412303D02*
X605422Y389824D01*
X617258Y389824D01*
X625691Y398257D01*
X625691Y460772D01*
X584162Y502301D02*
X584162Y554162D01*
X584162Y502301D02*
X625691Y460772D01*
X584162Y554162D02*
X596100Y566100D01*
D18*
X340735Y426845D03*
D22*
X342735Y426845D01*
X353721Y415859D01*
X584416Y415859D01*
X606260Y394015D02*
X616420Y394015D01*
X621500Y399095D01*
X616286Y447712D02*
X612888Y447712D01*
X558000Y502600D01*
X616286Y447712D02*
X621500Y442498D01*
X558000Y502600D02*
X558000Y553400D01*
X584416Y415859D02*
X606260Y394015D01*
X621500Y399095D02*
X621500Y442498D01*
X558000Y553400D02*
X570700Y566100D01*
M02*
