M48
;GenerationSoftware,Autodesk,EAGLE,9.6.1*%
;CreationDate,2024-07-27T18:40:43Z*%
FMAT,2
ICI,OFF
METRIC,TZ,000.000
T6C0.300
T5C0.350
T4C0.813
T3C0.900
T2C1.016
T1C3.000
%
G90
M71
T1
X3000Y62000
X82000Y3000
X82000Y62000
X3000Y3000
T2
X29130Y56610
X75025Y6938
X72485Y9478
X75025Y9478
X49450Y56610
X74930Y56515
X72390Y56515
X26590Y54070
X69850Y56515
X74930Y53975
X72390Y53975
X69850Y53975
X10160Y17780
X12620Y41370
X10160Y20320
X10160Y22860
X10160Y25400
X41830Y56610
X39290Y56610
X36750Y56610
X34210Y56610
X31670Y56610
X10160Y27940
X41830Y54070
X39290Y54070
X36750Y54070
X34210Y54070
X31670Y54070
X29130Y54070
X26590Y56610
X24050Y56610
X24050Y54070
X64690Y9620
X62150Y9620
X59610Y9620
X57070Y9620
X54530Y9620
X51990Y9620
X64690Y7080
X62150Y7080
X59610Y7080
X57070Y7080
X54530Y7080
X51990Y7080
X49450Y9620
X46910Y9620
X49450Y7080
X46910Y7080
X12620Y33750
X12620Y36290
X12620Y38830
X69945Y9478
X12620Y43910
X12620Y46450
X10080Y33750
X10080Y36290
X10080Y38830
X10080Y41370
X10080Y43910
X10080Y46450
X12620Y48990
X12620Y51530
X10080Y48990
X10080Y51530
X31670Y7080
X34210Y7080
X36750Y7080
X39290Y7080
X41830Y7080
X31670Y9620
X34210Y9620
X36750Y9620
X39290Y9620
X41830Y9620
X46910Y54070
X49450Y54070
X51990Y54070
X54530Y54070
X57070Y54070
X59610Y54070
X46910Y56610
X51990Y56610
X54530Y56610
X57070Y56610
X59610Y56610
X62150Y54070
X64690Y54070
X62150Y56610
X64690Y56610
X69945Y6938
X72485Y6938
T3
X78660Y46840
X78660Y42440
T4
X55038Y33306
X55038Y29749
T5
X25320Y50260
X18258Y26116
X32877Y50641
X38020Y21050
X18106Y29070
X21447Y29940
X18106Y33750
X22780Y50260
X26590Y48990
X26590Y50260
X24050Y50260
T6
X41703Y37306
X31606Y35655
X45640Y23590
X53831Y25622
X63547Y37528
X70270Y16460
X73270Y16460
X76270Y16460
X79270Y16460
X82270Y16460
X82270Y19460
X79270Y19460
X76270Y19460
X73270Y19460
X70270Y19460
X82270Y22460
X62150Y51022
X82270Y25460
X82270Y28460
X70270Y25460
X70270Y28460
X73270Y28460
X79270Y28460
X73660Y48260
X18542Y9525
X15240Y22860
X35237Y45751
X42254Y47255
X32713Y44784
X41301Y48207
X31750Y43180
X68072Y40132
X68072Y43469
X46973Y49053
X53958Y46640
X48180Y47720
X70270Y22460
X29066Y18256
X47862Y15589
X49259Y15589
X53196Y18256
X32368Y40735
X31225Y40735
X45005Y14763
X51609Y37433
X59737Y36862
X45957Y38830
X62150Y36862
X45322Y37941
X60816Y37116
X31670Y42085
X60943Y40735
X59165Y12858
X29574Y39910
X22716Y28733
X21510Y27590
X21510Y28733
X24431Y40037
X24431Y41878
X25828Y43466
X25447Y46196
X32845Y48260
X32877Y49434
X37639Y48990
X37131Y50260
X20812Y43973
X53895Y45116
X24431Y44418
X20812Y46450
X33258Y14573
X35798Y14573
X37385Y14573
X40243Y14509
X34483Y44351
X19732Y51720
X38020Y52165
X60943Y42069
X61324Y44037
X35979Y42677
X37512Y44608
X45894Y43783
X50148Y48863
X61451Y45942
X60372Y49752
X43735Y40481
X34464Y39656
X34074Y42685
X55800Y40100
X24050Y19526
X24050Y21685
X61959Y29241
X22780Y23590
X41576Y20098
M30