G04 EAGLE Gerber RS-274X export*
G75*
%MOMM*%
%FSLAX34Y34*%
%LPD*%
%IN*%
%IPPOS*%
%AMOC8*
5,1,8,0,0,1.08239X$1,22.5*%
G01*
%ADD10C,0.254000*%


D10*
X0Y0D02*
X850000Y0D01*
X850000Y640000D01*
X0Y640000D01*
X0Y0D01*
X55000Y39464D02*
X54924Y38396D01*
X54771Y37335D01*
X54543Y36288D01*
X54241Y35260D01*
X53867Y34256D01*
X53422Y33281D01*
X52908Y32341D01*
X52329Y31440D01*
X51687Y30582D01*
X50985Y29772D01*
X50228Y29015D01*
X49418Y28313D01*
X48560Y27671D01*
X47659Y27092D01*
X46719Y26578D01*
X45744Y26133D01*
X44740Y25759D01*
X43712Y25457D01*
X42665Y25229D01*
X41604Y25076D01*
X40536Y25000D01*
X39464Y25000D01*
X38396Y25076D01*
X37335Y25229D01*
X36288Y25457D01*
X35260Y25759D01*
X34256Y26133D01*
X33281Y26578D01*
X32341Y27092D01*
X31440Y27671D01*
X30582Y28313D01*
X29772Y29015D01*
X29015Y29772D01*
X28313Y30582D01*
X27671Y31440D01*
X27092Y32341D01*
X26578Y33281D01*
X26133Y34256D01*
X25759Y35260D01*
X25457Y36288D01*
X25229Y37335D01*
X25076Y38396D01*
X25000Y39464D01*
X25000Y40536D01*
X25076Y41604D01*
X25229Y42665D01*
X25457Y43712D01*
X25759Y44740D01*
X26133Y45744D01*
X26578Y46719D01*
X27092Y47659D01*
X27671Y48560D01*
X28313Y49418D01*
X29015Y50228D01*
X29772Y50985D01*
X30582Y51687D01*
X31440Y52329D01*
X32341Y52908D01*
X33281Y53422D01*
X34256Y53867D01*
X35260Y54241D01*
X36288Y54543D01*
X37335Y54771D01*
X38396Y54924D01*
X39464Y55000D01*
X40536Y55000D01*
X41604Y54924D01*
X42665Y54771D01*
X43712Y54543D01*
X44740Y54241D01*
X45744Y53867D01*
X46719Y53422D01*
X47659Y52908D01*
X48560Y52329D01*
X49418Y51687D01*
X50228Y50985D01*
X50985Y50228D01*
X51687Y49418D01*
X52329Y48560D01*
X52908Y47659D01*
X53422Y46719D01*
X53867Y45744D01*
X54241Y44740D01*
X54543Y43712D01*
X54771Y42665D01*
X54924Y41604D01*
X55000Y40536D01*
X55000Y39464D01*
X55000Y599464D02*
X54924Y598396D01*
X54771Y597335D01*
X54543Y596288D01*
X54241Y595260D01*
X53867Y594256D01*
X53422Y593281D01*
X52908Y592341D01*
X52329Y591440D01*
X51687Y590582D01*
X50985Y589772D01*
X50228Y589015D01*
X49418Y588313D01*
X48560Y587671D01*
X47659Y587092D01*
X46719Y586578D01*
X45744Y586133D01*
X44740Y585759D01*
X43712Y585457D01*
X42665Y585229D01*
X41604Y585076D01*
X40536Y585000D01*
X39464Y585000D01*
X38396Y585076D01*
X37335Y585229D01*
X36288Y585457D01*
X35260Y585759D01*
X34256Y586133D01*
X33281Y586578D01*
X32341Y587092D01*
X31440Y587671D01*
X30582Y588313D01*
X29772Y589015D01*
X29015Y589772D01*
X28313Y590582D01*
X27671Y591440D01*
X27092Y592341D01*
X26578Y593281D01*
X26133Y594256D01*
X25759Y595260D01*
X25457Y596288D01*
X25229Y597335D01*
X25076Y598396D01*
X25000Y599464D01*
X25000Y600536D01*
X25076Y601604D01*
X25229Y602665D01*
X25457Y603712D01*
X25759Y604740D01*
X26133Y605744D01*
X26578Y606719D01*
X27092Y607659D01*
X27671Y608560D01*
X28313Y609418D01*
X29015Y610228D01*
X29772Y610985D01*
X30582Y611687D01*
X31440Y612329D01*
X32341Y612908D01*
X33281Y613422D01*
X34256Y613867D01*
X35260Y614241D01*
X36288Y614543D01*
X37335Y614771D01*
X38396Y614924D01*
X39464Y615000D01*
X40536Y615000D01*
X41604Y614924D01*
X42665Y614771D01*
X43712Y614543D01*
X44740Y614241D01*
X45744Y613867D01*
X46719Y613422D01*
X47659Y612908D01*
X48560Y612329D01*
X49418Y611687D01*
X50228Y610985D01*
X50985Y610228D01*
X51687Y609418D01*
X52329Y608560D01*
X52908Y607659D01*
X53422Y606719D01*
X53867Y605744D01*
X54241Y604740D01*
X54543Y603712D01*
X54771Y602665D01*
X54924Y601604D01*
X55000Y600536D01*
X55000Y599464D01*
X825000Y39464D02*
X824924Y38396D01*
X824771Y37335D01*
X824543Y36288D01*
X824241Y35260D01*
X823867Y34256D01*
X823422Y33281D01*
X822908Y32341D01*
X822329Y31440D01*
X821687Y30582D01*
X820985Y29772D01*
X820228Y29015D01*
X819418Y28313D01*
X818560Y27671D01*
X817659Y27092D01*
X816719Y26578D01*
X815744Y26133D01*
X814740Y25759D01*
X813712Y25457D01*
X812665Y25229D01*
X811604Y25076D01*
X810536Y25000D01*
X809464Y25000D01*
X808396Y25076D01*
X807335Y25229D01*
X806288Y25457D01*
X805260Y25759D01*
X804256Y26133D01*
X803281Y26578D01*
X802341Y27092D01*
X801440Y27671D01*
X800582Y28313D01*
X799772Y29015D01*
X799015Y29772D01*
X798313Y30582D01*
X797671Y31440D01*
X797092Y32341D01*
X796578Y33281D01*
X796133Y34256D01*
X795759Y35260D01*
X795457Y36288D01*
X795229Y37335D01*
X795076Y38396D01*
X795000Y39464D01*
X795000Y40536D01*
X795076Y41604D01*
X795229Y42665D01*
X795457Y43712D01*
X795759Y44740D01*
X796133Y45744D01*
X796578Y46719D01*
X797092Y47659D01*
X797671Y48560D01*
X798313Y49418D01*
X799015Y50228D01*
X799772Y50985D01*
X800582Y51687D01*
X801440Y52329D01*
X802341Y52908D01*
X803281Y53422D01*
X804256Y53867D01*
X805260Y54241D01*
X806288Y54543D01*
X807335Y54771D01*
X808396Y54924D01*
X809464Y55000D01*
X810536Y55000D01*
X811604Y54924D01*
X812665Y54771D01*
X813712Y54543D01*
X814740Y54241D01*
X815744Y53867D01*
X816719Y53422D01*
X817659Y52908D01*
X818560Y52329D01*
X819418Y51687D01*
X820228Y50985D01*
X820985Y50228D01*
X821687Y49418D01*
X822329Y48560D01*
X822908Y47659D01*
X823422Y46719D01*
X823867Y45744D01*
X824241Y44740D01*
X824543Y43712D01*
X824771Y42665D01*
X824924Y41604D01*
X825000Y40536D01*
X825000Y39464D01*
X825000Y599464D02*
X824924Y598396D01*
X824771Y597335D01*
X824543Y596288D01*
X824241Y595260D01*
X823867Y594256D01*
X823422Y593281D01*
X822908Y592341D01*
X822329Y591440D01*
X821687Y590582D01*
X820985Y589772D01*
X820228Y589015D01*
X819418Y588313D01*
X818560Y587671D01*
X817659Y587092D01*
X816719Y586578D01*
X815744Y586133D01*
X814740Y585759D01*
X813712Y585457D01*
X812665Y585229D01*
X811604Y585076D01*
X810536Y585000D01*
X809464Y585000D01*
X808396Y585076D01*
X807335Y585229D01*
X806288Y585457D01*
X805260Y585759D01*
X804256Y586133D01*
X803281Y586578D01*
X802341Y587092D01*
X801440Y587671D01*
X800582Y588313D01*
X799772Y589015D01*
X799015Y589772D01*
X798313Y590582D01*
X797671Y591440D01*
X797092Y592341D01*
X796578Y593281D01*
X796133Y594256D01*
X795759Y595260D01*
X795457Y596288D01*
X795229Y597335D01*
X795076Y598396D01*
X795000Y599464D01*
X795000Y600536D01*
X795076Y601604D01*
X795229Y602665D01*
X795457Y603712D01*
X795759Y604740D01*
X796133Y605744D01*
X796578Y606719D01*
X797092Y607659D01*
X797671Y608560D01*
X798313Y609418D01*
X799015Y610228D01*
X799772Y610985D01*
X800582Y611687D01*
X801440Y612329D01*
X802341Y612908D01*
X803281Y613422D01*
X804256Y613867D01*
X805260Y614241D01*
X806288Y614543D01*
X807335Y614771D01*
X808396Y614924D01*
X809464Y615000D01*
X810536Y615000D01*
X811604Y614924D01*
X812665Y614771D01*
X813712Y614543D01*
X814740Y614241D01*
X815744Y613867D01*
X816719Y613422D01*
X817659Y612908D01*
X818560Y612329D01*
X819418Y611687D01*
X820228Y610985D01*
X820985Y610228D01*
X821687Y609418D01*
X822329Y608560D01*
X822908Y607659D01*
X823422Y606719D01*
X823867Y605744D01*
X824241Y604740D01*
X824543Y603712D01*
X824771Y602665D01*
X824924Y601604D01*
X825000Y600536D01*
X825000Y599464D01*
X782100Y424695D02*
X782177Y425280D01*
X782330Y425850D01*
X782555Y426395D01*
X782850Y426905D01*
X783209Y427373D01*
X783627Y427791D01*
X784095Y428150D01*
X784605Y428445D01*
X785150Y428670D01*
X785720Y428823D01*
X786305Y428900D01*
X786895Y428900D01*
X787480Y428823D01*
X788050Y428670D01*
X788595Y428445D01*
X789105Y428150D01*
X789573Y427791D01*
X789991Y427373D01*
X790350Y426905D01*
X790645Y426395D01*
X790870Y425850D01*
X791023Y425280D01*
X791100Y424695D01*
X791100Y424105D01*
X791023Y423520D01*
X790870Y422950D01*
X790645Y422405D01*
X790350Y421895D01*
X789991Y421427D01*
X789573Y421009D01*
X789105Y420650D01*
X788595Y420355D01*
X788050Y420130D01*
X787480Y419977D01*
X786895Y419900D01*
X786305Y419900D01*
X785720Y419977D01*
X785150Y420130D01*
X784605Y420355D01*
X784095Y420650D01*
X783627Y421009D01*
X783209Y421427D01*
X782850Y421895D01*
X782555Y422405D01*
X782330Y422950D01*
X782177Y423520D01*
X782100Y424105D01*
X782100Y424695D01*
X782100Y468695D02*
X782177Y469280D01*
X782330Y469850D01*
X782555Y470395D01*
X782850Y470905D01*
X783209Y471373D01*
X783627Y471791D01*
X784095Y472150D01*
X784605Y472445D01*
X785150Y472670D01*
X785720Y472823D01*
X786305Y472900D01*
X786895Y472900D01*
X787480Y472823D01*
X788050Y472670D01*
X788595Y472445D01*
X789105Y472150D01*
X789573Y471791D01*
X789991Y471373D01*
X790350Y470905D01*
X790645Y470395D01*
X790870Y469850D01*
X791023Y469280D01*
X791100Y468695D01*
X791100Y468105D01*
X791023Y467520D01*
X790870Y466950D01*
X790645Y466405D01*
X790350Y465895D01*
X789991Y465427D01*
X789573Y465009D01*
X789105Y464650D01*
X788595Y464355D01*
X788050Y464130D01*
X787480Y463977D01*
X786895Y463900D01*
X786305Y463900D01*
X785720Y463977D01*
X785150Y464130D01*
X784605Y464355D01*
X784095Y464650D01*
X783627Y465009D01*
X783209Y465427D01*
X782850Y465895D01*
X782555Y466405D01*
X782330Y466950D01*
X782177Y467520D01*
X782100Y468105D01*
X782100Y468695D01*
M02*
