G04 EAGLE Gerber RS-274X export*
G75*
%MOMM*%
%FSLAX34Y34*%
%LPD*%
%INSolderpaste Top*%
%IPPOS*%
%AMOC8*
5,1,8,0,0,1.08239X$1,22.5*%
G01*
%ADD10R,1.300000X1.500000*%
%ADD11R,1.475000X0.300000*%
%ADD12R,1.500000X1.300000*%
%ADD13R,1.200000X1.200000*%
%ADD14R,2.500000X0.500000*%
%ADD15R,2.500000X2.000000*%
%ADD16R,0.400000X1.499997*%
%ADD17R,0.900000X1.900000*%
%ADD18R,3.200000X1.900000*%
%ADD19R,2.300000X1.600000*%


D10*
G36*
X265885Y232918D02*
X275077Y223726D01*
X264471Y213120D01*
X255279Y222312D01*
X265885Y232918D01*
G37*
G36*
X252450Y246353D02*
X261642Y237161D01*
X251036Y226555D01*
X241844Y235747D01*
X252450Y246353D01*
G37*
G36*
X412681Y388200D02*
X403489Y397392D01*
X414095Y407998D01*
X423287Y398806D01*
X412681Y388200D01*
G37*
G36*
X426116Y374765D02*
X416924Y383957D01*
X427530Y394563D01*
X436722Y385371D01*
X426116Y374765D01*
G37*
G36*
X432902Y228753D02*
X423710Y219561D01*
X413104Y230167D01*
X422296Y239359D01*
X432902Y228753D01*
G37*
G36*
X446337Y242188D02*
X437145Y232996D01*
X426539Y243602D01*
X435731Y252794D01*
X446337Y242188D01*
G37*
G36*
X399521Y196007D02*
X390329Y186815D01*
X379723Y197421D01*
X388915Y206613D01*
X399521Y196007D01*
G37*
G36*
X412956Y209442D02*
X403764Y200250D01*
X393158Y210856D01*
X402350Y220048D01*
X412956Y209442D01*
G37*
G36*
X269262Y375702D02*
X260070Y366510D01*
X249464Y377116D01*
X258656Y386308D01*
X269262Y375702D01*
G37*
G36*
X282697Y389137D02*
X273505Y379945D01*
X262899Y390551D01*
X272091Y399743D01*
X282697Y389137D01*
G37*
D11*
G36*
X264325Y300656D02*
X253896Y290227D01*
X251775Y292348D01*
X262204Y302777D01*
X264325Y300656D01*
G37*
G36*
X267861Y297120D02*
X257432Y286691D01*
X255311Y288812D01*
X265740Y299241D01*
X267861Y297120D01*
G37*
G36*
X271396Y293585D02*
X260967Y283156D01*
X258846Y285277D01*
X269275Y295706D01*
X271396Y293585D01*
G37*
G36*
X274932Y290049D02*
X264503Y279620D01*
X262382Y281741D01*
X272811Y292170D01*
X274932Y290049D01*
G37*
G36*
X278468Y286514D02*
X268039Y276085D01*
X265918Y278206D01*
X276347Y288635D01*
X278468Y286514D01*
G37*
G36*
X282003Y282978D02*
X271574Y272549D01*
X269453Y274670D01*
X279882Y285099D01*
X282003Y282978D01*
G37*
G36*
X285539Y279443D02*
X275110Y269014D01*
X272989Y271135D01*
X283418Y281564D01*
X285539Y279443D01*
G37*
G36*
X289074Y275907D02*
X278645Y265478D01*
X276524Y267599D01*
X286953Y278028D01*
X289074Y275907D01*
G37*
G36*
X292610Y272372D02*
X282181Y261943D01*
X280060Y264064D01*
X290489Y274493D01*
X292610Y272372D01*
G37*
G36*
X296145Y268836D02*
X285716Y258407D01*
X283595Y260528D01*
X294024Y270957D01*
X296145Y268836D01*
G37*
G36*
X299681Y265301D02*
X289252Y254872D01*
X287131Y256993D01*
X297560Y267422D01*
X299681Y265301D01*
G37*
G36*
X303216Y261765D02*
X292787Y251336D01*
X290666Y253457D01*
X301095Y263886D01*
X303216Y261765D01*
G37*
G36*
X306752Y258230D02*
X296323Y247801D01*
X294202Y249922D01*
X304631Y260351D01*
X306752Y258230D01*
G37*
G36*
X310287Y254694D02*
X299858Y244265D01*
X297737Y246386D01*
X308166Y256815D01*
X310287Y254694D01*
G37*
G36*
X313823Y251159D02*
X303394Y240730D01*
X301273Y242851D01*
X311702Y253280D01*
X313823Y251159D01*
G37*
G36*
X317358Y247623D02*
X306929Y237194D01*
X304808Y239315D01*
X315237Y249744D01*
X317358Y247623D01*
G37*
G36*
X320894Y244087D02*
X310465Y233658D01*
X308344Y235779D01*
X318773Y246208D01*
X320894Y244087D01*
G37*
G36*
X324429Y240552D02*
X314000Y230123D01*
X311879Y232244D01*
X322308Y242673D01*
X324429Y240552D01*
G37*
G36*
X327965Y237016D02*
X317536Y226587D01*
X315415Y228708D01*
X325844Y239137D01*
X327965Y237016D01*
G37*
G36*
X331501Y233481D02*
X321072Y223052D01*
X318951Y225173D01*
X329380Y235602D01*
X331501Y233481D01*
G37*
G36*
X349186Y235602D02*
X359615Y225173D01*
X357494Y223052D01*
X347065Y233481D01*
X349186Y235602D01*
G37*
G36*
X352722Y239137D02*
X363151Y228708D01*
X361030Y226587D01*
X350601Y237016D01*
X352722Y239137D01*
G37*
G36*
X356257Y242673D02*
X366686Y232244D01*
X364565Y230123D01*
X354136Y240552D01*
X356257Y242673D01*
G37*
G36*
X359793Y246208D02*
X370222Y235779D01*
X368101Y233658D01*
X357672Y244087D01*
X359793Y246208D01*
G37*
G36*
X363328Y249744D02*
X373757Y239315D01*
X371636Y237194D01*
X361207Y247623D01*
X363328Y249744D01*
G37*
G36*
X366864Y253280D02*
X377293Y242851D01*
X375172Y240730D01*
X364743Y251159D01*
X366864Y253280D01*
G37*
G36*
X370399Y256815D02*
X380828Y246386D01*
X378707Y244265D01*
X368278Y254694D01*
X370399Y256815D01*
G37*
G36*
X373935Y260351D02*
X384364Y249922D01*
X382243Y247801D01*
X371814Y258230D01*
X373935Y260351D01*
G37*
G36*
X377470Y263886D02*
X387899Y253457D01*
X385778Y251336D01*
X375349Y261765D01*
X377470Y263886D01*
G37*
G36*
X381006Y267422D02*
X391435Y256993D01*
X389314Y254872D01*
X378885Y265301D01*
X381006Y267422D01*
G37*
G36*
X384541Y270957D02*
X394970Y260528D01*
X392849Y258407D01*
X382420Y268836D01*
X384541Y270957D01*
G37*
G36*
X388077Y274493D02*
X398506Y264064D01*
X396385Y261943D01*
X385956Y272372D01*
X388077Y274493D01*
G37*
G36*
X391613Y278028D02*
X402042Y267599D01*
X399921Y265478D01*
X389492Y275907D01*
X391613Y278028D01*
G37*
G36*
X395148Y281564D02*
X405577Y271135D01*
X403456Y269014D01*
X393027Y279443D01*
X395148Y281564D01*
G37*
G36*
X398684Y285099D02*
X409113Y274670D01*
X406992Y272549D01*
X396563Y282978D01*
X398684Y285099D01*
G37*
G36*
X402219Y288635D02*
X412648Y278206D01*
X410527Y276085D01*
X400098Y286514D01*
X402219Y288635D01*
G37*
G36*
X405755Y292170D02*
X416184Y281741D01*
X414063Y279620D01*
X403634Y290049D01*
X405755Y292170D01*
G37*
G36*
X409290Y295706D02*
X419719Y285277D01*
X417598Y283156D01*
X407169Y293585D01*
X409290Y295706D01*
G37*
G36*
X412826Y299241D02*
X423255Y288812D01*
X421134Y286691D01*
X410705Y297120D01*
X412826Y299241D01*
G37*
G36*
X416361Y302777D02*
X426790Y292348D01*
X424669Y290227D01*
X414240Y300656D01*
X416361Y302777D01*
G37*
G36*
X426790Y328771D02*
X416361Y318342D01*
X414240Y320463D01*
X424669Y330892D01*
X426790Y328771D01*
G37*
G36*
X423255Y332306D02*
X412826Y321877D01*
X410705Y323998D01*
X421134Y334427D01*
X423255Y332306D01*
G37*
G36*
X419719Y335842D02*
X409290Y325413D01*
X407169Y327534D01*
X417598Y337963D01*
X419719Y335842D01*
G37*
G36*
X416184Y339377D02*
X405755Y328948D01*
X403634Y331069D01*
X414063Y341498D01*
X416184Y339377D01*
G37*
G36*
X412648Y342913D02*
X402219Y332484D01*
X400098Y334605D01*
X410527Y345034D01*
X412648Y342913D01*
G37*
G36*
X409113Y346448D02*
X398684Y336019D01*
X396563Y338140D01*
X406992Y348569D01*
X409113Y346448D01*
G37*
G36*
X405577Y349984D02*
X395148Y339555D01*
X393027Y341676D01*
X403456Y352105D01*
X405577Y349984D01*
G37*
G36*
X402042Y353519D02*
X391613Y343090D01*
X389492Y345211D01*
X399921Y355640D01*
X402042Y353519D01*
G37*
G36*
X398506Y357055D02*
X388077Y346626D01*
X385956Y348747D01*
X396385Y359176D01*
X398506Y357055D01*
G37*
G36*
X394970Y360590D02*
X384541Y350161D01*
X382420Y352282D01*
X392849Y362711D01*
X394970Y360590D01*
G37*
G36*
X391435Y364126D02*
X381006Y353697D01*
X378885Y355818D01*
X389314Y366247D01*
X391435Y364126D01*
G37*
G36*
X387899Y367661D02*
X377470Y357232D01*
X375349Y359353D01*
X385778Y369782D01*
X387899Y367661D01*
G37*
G36*
X384364Y371197D02*
X373935Y360768D01*
X371814Y362889D01*
X382243Y373318D01*
X384364Y371197D01*
G37*
G36*
X380828Y374733D02*
X370399Y364304D01*
X368278Y366425D01*
X378707Y376854D01*
X380828Y374733D01*
G37*
G36*
X377293Y378268D02*
X366864Y367839D01*
X364743Y369960D01*
X375172Y380389D01*
X377293Y378268D01*
G37*
G36*
X373757Y381804D02*
X363328Y371375D01*
X361207Y373496D01*
X371636Y383925D01*
X373757Y381804D01*
G37*
G36*
X370222Y385339D02*
X359793Y374910D01*
X357672Y377031D01*
X368101Y387460D01*
X370222Y385339D01*
G37*
G36*
X366686Y388875D02*
X356257Y378446D01*
X354136Y380567D01*
X364565Y390996D01*
X366686Y388875D01*
G37*
G36*
X363151Y392410D02*
X352722Y381981D01*
X350601Y384102D01*
X361030Y394531D01*
X363151Y392410D01*
G37*
G36*
X359615Y395946D02*
X349186Y385517D01*
X347065Y387638D01*
X357494Y398067D01*
X359615Y395946D01*
G37*
G36*
X321072Y398067D02*
X331501Y387638D01*
X329380Y385517D01*
X318951Y395946D01*
X321072Y398067D01*
G37*
G36*
X317536Y394531D02*
X327965Y384102D01*
X325844Y381981D01*
X315415Y392410D01*
X317536Y394531D01*
G37*
G36*
X314000Y390996D02*
X324429Y380567D01*
X322308Y378446D01*
X311879Y388875D01*
X314000Y390996D01*
G37*
G36*
X310465Y387460D02*
X320894Y377031D01*
X318773Y374910D01*
X308344Y385339D01*
X310465Y387460D01*
G37*
G36*
X306929Y383925D02*
X317358Y373496D01*
X315237Y371375D01*
X304808Y381804D01*
X306929Y383925D01*
G37*
G36*
X303394Y380389D02*
X313823Y369960D01*
X311702Y367839D01*
X301273Y378268D01*
X303394Y380389D01*
G37*
G36*
X299858Y376854D02*
X310287Y366425D01*
X308166Y364304D01*
X297737Y374733D01*
X299858Y376854D01*
G37*
G36*
X296323Y373318D02*
X306752Y362889D01*
X304631Y360768D01*
X294202Y371197D01*
X296323Y373318D01*
G37*
G36*
X292787Y369782D02*
X303216Y359353D01*
X301095Y357232D01*
X290666Y367661D01*
X292787Y369782D01*
G37*
G36*
X289252Y366247D02*
X299681Y355818D01*
X297560Y353697D01*
X287131Y364126D01*
X289252Y366247D01*
G37*
G36*
X285716Y362711D02*
X296145Y352282D01*
X294024Y350161D01*
X283595Y360590D01*
X285716Y362711D01*
G37*
G36*
X282181Y359176D02*
X292610Y348747D01*
X290489Y346626D01*
X280060Y357055D01*
X282181Y359176D01*
G37*
G36*
X278645Y355640D02*
X289074Y345211D01*
X286953Y343090D01*
X276524Y353519D01*
X278645Y355640D01*
G37*
G36*
X275110Y352105D02*
X285539Y341676D01*
X283418Y339555D01*
X272989Y349984D01*
X275110Y352105D01*
G37*
G36*
X271574Y348569D02*
X282003Y338140D01*
X279882Y336019D01*
X269453Y346448D01*
X271574Y348569D01*
G37*
G36*
X268039Y345034D02*
X278468Y334605D01*
X276347Y332484D01*
X265918Y342913D01*
X268039Y345034D01*
G37*
G36*
X264503Y341498D02*
X274932Y331069D01*
X272811Y328948D01*
X262382Y339377D01*
X264503Y341498D01*
G37*
G36*
X260967Y337963D02*
X271396Y327534D01*
X269275Y325413D01*
X258846Y335842D01*
X260967Y337963D01*
G37*
G36*
X257432Y334427D02*
X267861Y323998D01*
X265740Y321877D01*
X255311Y332306D01*
X257432Y334427D01*
G37*
G36*
X253896Y330892D02*
X264325Y320463D01*
X262204Y318342D01*
X251775Y328771D01*
X253896Y330892D01*
G37*
D12*
X185553Y324108D03*
X185553Y305108D03*
D13*
X666290Y249550D03*
X645290Y249550D03*
D10*
X646290Y274950D03*
X665290Y274950D03*
G36*
X524609Y225578D02*
X515417Y216386D01*
X504811Y226992D01*
X514003Y236184D01*
X524609Y225578D01*
G37*
G36*
X538044Y239013D02*
X528852Y229821D01*
X518246Y240427D01*
X527438Y249619D01*
X538044Y239013D01*
G37*
G36*
X488906Y269132D02*
X498098Y278324D01*
X508704Y267718D01*
X499512Y258526D01*
X488906Y269132D01*
G37*
G36*
X471935Y286103D02*
X481127Y295295D01*
X491733Y284689D01*
X482541Y275497D01*
X471935Y286103D01*
G37*
G36*
X458500Y272668D02*
X467692Y281860D01*
X478298Y271254D01*
X469106Y262062D01*
X458500Y272668D01*
G37*
G36*
X475471Y255697D02*
X484663Y264889D01*
X495269Y254283D01*
X486077Y245091D01*
X475471Y255697D01*
G37*
D14*
X761600Y446400D03*
X761600Y438400D03*
X761600Y462400D03*
X761600Y454400D03*
D15*
X816600Y491400D03*
X816600Y401400D03*
X761600Y491400D03*
X761600Y401400D03*
D14*
X761600Y430400D03*
D16*
X698650Y468861D03*
X678330Y468861D03*
X688650Y468861D03*
X668650Y468861D03*
X658650Y468861D03*
X658650Y418859D03*
X668650Y418859D03*
X678330Y418859D03*
X688650Y418859D03*
X698650Y418859D03*
D12*
X659600Y392400D03*
X659600Y373400D03*
X698970Y393035D03*
X698970Y374035D03*
D17*
X784200Y301800D03*
X761200Y301800D03*
X738200Y301800D03*
D18*
X761200Y240800D03*
D10*
X718690Y338620D03*
X737690Y338620D03*
X805000Y338620D03*
X786000Y338620D03*
D13*
X205600Y133900D03*
X226600Y133900D03*
D10*
X206320Y111900D03*
X225320Y111900D03*
D13*
X205600Y45800D03*
X226600Y45800D03*
D10*
X206320Y66800D03*
X225320Y66800D03*
D19*
X172600Y57700D03*
X109600Y57700D03*
X172600Y122900D03*
X109600Y122900D03*
M02*
