G04 EAGLE Gerber RS-274X export*
G75*
%MOMM*%
%FSLAX34Y34*%
%LPD*%
%INSoldermask Bottom*%
%IPPOS*%
%AMOC8*
5,1,8,0,0,1.08239X$1,22.5*%
G01*
%ADD10C,3.203200*%
%ADD11P,1.951982X8X112.500000*%
%ADD12C,1.803400*%
%ADD13C,1.103200*%
%ADD14P,2.199416X8X202.500000*%
%ADD15P,2.199416X8X112.500000*%
%ADD16P,2.199416X8X22.500000*%
%ADD17C,2.032000*%
%ADD18C,2.082800*%
%ADD19C,1.011200*%
%ADD20C,1.061200*%

G36*
X800218Y214646D02*
X800218Y214646D01*
X800337Y214653D01*
X800375Y214666D01*
X800416Y214671D01*
X800526Y214714D01*
X800639Y214751D01*
X800674Y214773D01*
X800711Y214788D01*
X800807Y214858D01*
X800908Y214921D01*
X800936Y214951D01*
X800969Y214974D01*
X801045Y215066D01*
X801126Y215153D01*
X801146Y215188D01*
X801171Y215219D01*
X801222Y215327D01*
X801280Y215431D01*
X801290Y215471D01*
X801307Y215507D01*
X801329Y215624D01*
X801359Y215739D01*
X801363Y215800D01*
X801367Y215820D01*
X801365Y215840D01*
X801369Y215900D01*
X801369Y266700D01*
X801354Y266818D01*
X801347Y266937D01*
X801334Y266975D01*
X801329Y267016D01*
X801286Y267126D01*
X801249Y267239D01*
X801227Y267274D01*
X801212Y267311D01*
X801143Y267407D01*
X801079Y267508D01*
X801049Y267536D01*
X801026Y267569D01*
X800934Y267645D01*
X800847Y267726D01*
X800812Y267746D01*
X800781Y267771D01*
X800673Y267822D01*
X800569Y267880D01*
X800529Y267890D01*
X800493Y267907D01*
X800376Y267929D01*
X800261Y267959D01*
X800201Y267963D01*
X800181Y267967D01*
X800160Y267965D01*
X800100Y267969D01*
X723900Y267969D01*
X723782Y267954D01*
X723663Y267947D01*
X723625Y267934D01*
X723584Y267929D01*
X723474Y267886D01*
X723361Y267849D01*
X723326Y267827D01*
X723289Y267812D01*
X723193Y267743D01*
X723092Y267679D01*
X723064Y267649D01*
X723031Y267626D01*
X722956Y267534D01*
X722874Y267447D01*
X722854Y267412D01*
X722829Y267381D01*
X722778Y267273D01*
X722720Y267169D01*
X722710Y267129D01*
X722693Y267093D01*
X722671Y266976D01*
X722641Y266861D01*
X722637Y266801D01*
X722633Y266781D01*
X722635Y266760D01*
X722634Y266756D01*
X722633Y266751D01*
X722634Y266745D01*
X722631Y266700D01*
X722631Y215900D01*
X722646Y215782D01*
X722653Y215663D01*
X722666Y215625D01*
X722671Y215584D01*
X722714Y215474D01*
X722751Y215361D01*
X722773Y215326D01*
X722788Y215289D01*
X722858Y215193D01*
X722921Y215092D01*
X722951Y215064D01*
X722974Y215031D01*
X723066Y214956D01*
X723153Y214874D01*
X723188Y214854D01*
X723219Y214829D01*
X723327Y214778D01*
X723431Y214720D01*
X723471Y214710D01*
X723507Y214693D01*
X723624Y214671D01*
X723739Y214641D01*
X723800Y214637D01*
X723820Y214633D01*
X723840Y214635D01*
X723900Y214631D01*
X800100Y214631D01*
X800218Y214646D01*
G37*
D10*
X40000Y40000D03*
X40000Y600000D03*
X810000Y40000D03*
X810000Y600000D03*
D11*
X550380Y333055D03*
D12*
X550380Y297495D03*
D13*
X786600Y424400D03*
X786600Y468400D03*
D14*
X418300Y566100D03*
X392900Y566100D03*
X367500Y566100D03*
X342100Y566100D03*
X316700Y566100D03*
X291300Y566100D03*
X418300Y540700D03*
X392900Y540700D03*
X367500Y540700D03*
X342100Y540700D03*
X316700Y540700D03*
X291300Y540700D03*
X265900Y566100D03*
X240500Y566100D03*
X265900Y540700D03*
X240500Y540700D03*
X646900Y96200D03*
X621500Y96200D03*
X596100Y96200D03*
X570700Y96200D03*
X545300Y96200D03*
X519900Y96200D03*
X646900Y70800D03*
X621500Y70800D03*
X596100Y70800D03*
X570700Y70800D03*
X545300Y70800D03*
X519900Y70800D03*
X494500Y96200D03*
X469100Y96200D03*
X494500Y70800D03*
X469100Y70800D03*
D15*
X126200Y337500D03*
X126200Y362900D03*
X126200Y388300D03*
X126200Y413700D03*
X126200Y439100D03*
X126200Y464500D03*
X100800Y337500D03*
X100800Y362900D03*
X100800Y388300D03*
X100800Y413700D03*
X100800Y439100D03*
X100800Y464500D03*
X126200Y489900D03*
X126200Y515300D03*
X100800Y489900D03*
X100800Y515300D03*
D16*
X316700Y70800D03*
X342100Y70800D03*
X367500Y70800D03*
X392900Y70800D03*
X418300Y70800D03*
X316700Y96200D03*
X342100Y96200D03*
X367500Y96200D03*
X392900Y96200D03*
X418300Y96200D03*
X469100Y540700D03*
X494500Y540700D03*
X519900Y540700D03*
X545300Y540700D03*
X570700Y540700D03*
X596100Y540700D03*
X469100Y566100D03*
X494500Y566100D03*
X519900Y566100D03*
X545300Y566100D03*
X570700Y566100D03*
X596100Y566100D03*
X621500Y540700D03*
X646900Y540700D03*
X621500Y566100D03*
X646900Y566100D03*
D17*
X699450Y69380D03*
D16*
X724850Y69380D03*
X750250Y69380D03*
X699450Y94780D03*
X724850Y94780D03*
X750250Y94780D03*
D17*
X749300Y565150D03*
D14*
X723900Y565150D03*
X698500Y565150D03*
X749300Y539750D03*
X723900Y539750D03*
X698500Y539750D03*
D18*
X101600Y177800D03*
X101600Y203200D03*
X101600Y228600D03*
X101600Y254000D03*
X101600Y279400D03*
D19*
X437350Y404810D03*
X558000Y401000D03*
X240500Y195260D03*
X240500Y216850D03*
X619595Y292415D03*
D20*
X380200Y210500D03*
X181060Y290702D03*
D19*
X227800Y235900D03*
X415760Y200975D03*
X417030Y373060D03*
X316065Y356550D03*
X456400Y235900D03*
X538315Y256220D03*
X635470Y375280D03*
D20*
X182576Y261161D03*
D19*
X702700Y164600D03*
X732700Y164600D03*
X762700Y164600D03*
X792700Y164600D03*
X822700Y164600D03*
X822700Y194600D03*
X792700Y194600D03*
X762700Y194600D03*
X732700Y194600D03*
X702700Y194600D03*
X702700Y224600D03*
X822700Y224600D03*
X822700Y254600D03*
X822700Y284600D03*
X702700Y254600D03*
X702700Y284600D03*
X732700Y279520D03*
X792700Y279520D03*
X736600Y482600D03*
X185420Y95250D03*
X152400Y228600D03*
D20*
X181060Y337500D03*
D19*
X352370Y457510D03*
X422539Y472549D03*
X327130Y447845D03*
X413014Y482074D03*
X317500Y431800D03*
X680720Y401320D03*
X680720Y434691D03*
X469735Y490535D03*
D20*
X265900Y489900D03*
X265900Y502600D03*
X253200Y502600D03*
D19*
X539585Y466405D03*
X481800Y477200D03*
D20*
X240500Y502600D03*
X227800Y502600D03*
D19*
X290665Y182560D03*
X478625Y155890D03*
X492595Y155890D03*
X531965Y182560D03*
X323685Y407350D03*
X312255Y407350D03*
X450050Y147635D03*
X516090Y374330D03*
X597370Y368615D03*
X459575Y388300D03*
X621500Y368615D03*
X453225Y379410D03*
X608165Y371155D03*
X316700Y420845D03*
X609435Y407350D03*
X591655Y128585D03*
X295745Y399095D03*
X227165Y287335D03*
X215100Y275905D03*
X215100Y287335D03*
D20*
X214465Y299400D03*
D19*
X244310Y400365D03*
X244310Y418780D03*
X258280Y434655D03*
X244310Y444180D03*
X254470Y461960D03*
X328448Y482598D03*
X328765Y494345D03*
D20*
X328765Y506410D03*
D19*
X376390Y489900D03*
X371310Y502600D03*
X208115Y439735D03*
X538950Y451165D03*
X208115Y464500D03*
X332575Y145730D03*
X357975Y145730D03*
X373850Y145730D03*
X402425Y145095D03*
X344830Y443515D03*
X197320Y517205D03*
X380200Y521650D03*
X609435Y420685D03*
X613245Y440370D03*
X359785Y426765D03*
X375120Y446085D03*
X458940Y437830D03*
X501485Y488630D03*
X614515Y459420D03*
X603720Y497520D03*
X621500Y510220D03*
X344640Y396555D03*
X340735Y426845D03*
M02*
